<?xml version="1.0" encoding="UTF-8" standalone="no"?>
<svg
   xmlns:dc="http://purl.org/dc/elements/1.1/"
   xmlns:cc="http://creativecommons.org/ns#"
   xmlns:rdf="http://www.w3.org/1999/02/22-rdf-syntax-ns#"
   xmlns:svg="http://www.w3.org/2000/svg"
   xmlns="http://www.w3.org/2000/svg"
   xmlns:sodipodi="http://sodipodi.sourceforge.net/DTD/sodipodi-0.dtd"
   xmlns:inkscape="http://www.inkscape.org/namespaces/inkscape"
   version="1.1"
   x="0px"
   y="0px"
   viewBox="0 0 100 125"
   enable-background="new 0 0 100 100"
   xml:space="preserve"
   id="svg20410"
   inkscape:version="0.91 r13725"
   sodipodi:docname="buscar.svg"><metadata
     id="metadata20422"><rdf:RDF><cc:Work
         rdf:about=""><dc:format>image/svg+xml</dc:format><dc:type
           rdf:resource="http://purl.org/dc/dcmitype/StillImage" /><dc:title></dc:title></cc:Work></rdf:RDF></metadata><defs
     id="defs20420" /><sodipodi:namedview
     pagecolor="#ffffff"
     bordercolor="#666666"
     borderopacity="1"
     objecttolerance="10"
     gridtolerance="10"
     guidetolerance="10"
     inkscape:pageopacity="0"
     inkscape:pageshadow="2"
     inkscape:window-width="1364"
     inkscape:window-height="744"
     id="namedview20418"
     showgrid="false"
     inkscape:zoom="1.888"
     inkscape:cx="-12.235169"
     inkscape:cy="65.665355"
     inkscape:window-x="1"
     inkscape:window-y="1"
     inkscape:window-maximized="1"
     inkscape:current-layer="svg20410" /><path
     d="m 29.998074,115.12442 c 0,0.0296 -0.002,0.0604 -0.0023,0.0895 -0.001,0.0486 -0.003,0.0972 -0.0043,0.14693 -0.003,0.0794 -0.005,0.15998 -0.0083,0.23878 -0.0017,0.0148 -0.0017,0.0308 -0.0023,0.0474 -0.004,0.0746 -0.008,0.1499 -0.014,0.22573 0,0 3.33e-4,0 3.33e-4,0.002 0,0.002 -3.33e-4,0.002 -3.33e-4,0.003 -0.0023,0.0273 -0.0043,0.0545 -0.006,0.0806 -0.0017,0.0196 -0.003,0.0385 -0.005,0.0581 -0.0023,0.032 -0.0043,0.0616 -0.007,0.093 -0.0063,0.077 -0.01367,0.15405 -0.02133,0.23107 -0.0023,0.0213 -0.0053,0.0427 -0.007,0.064 -0.0023,0.0172 -0.0047,0.0356 -0.0063,0.0533 -0.001,0.007 -6.66e-4,0.0148 -0.0017,0.0225 -0.0017,0.0118 -0.0037,0.0237 -0.005,0.0367 -0.0023,0.0178 -0.0037,0.0356 -0.0063,0.0533 -0.007,0.0616 -0.015,0.12324 -0.02333,0.18486 -3.33e-4,0.005 -0.001,0.0113 -0.002,0.0154 -0.001,0.009 -0.0023,0.019 -0.0037,0.0284 -0.003,0.0178 -0.005,0.0367 -0.0077,0.0557 -0.0017,0.009 -0.003,0.0213 -0.0043,0.032 -0.003,0.0166 -0.0053,0.035 -0.0077,0.0521 -0.005,0.0367 -0.01067,0.0735 -0.01633,0.1108 -0.0023,0.0148 -0.005,0.0284 -0.0067,0.0433 -0.0017,0.0113 -0.0037,0.0201 -0.005,0.0296 -0.0097,0.0598 -0.02,0.12087 -0.03033,0.1813 -3.33e-4,0.004 -10e-4,0.007 -0.0017,0.009 l 0,0.001 c -0.003,0.0136 -0.005,0.0296 -0.008,0.0444 -0.0023,0.0124 -0.0043,0.0249 -0.007,0.0379 -0.0037,0.0225 -0.007,0.0439 -0.011,0.0658 -0.01,0.0521 -0.02067,0.10427 -0.03033,0.1576 -0.0027,0.0124 -0.0053,0.0249 -0.0077,0.0379 -0.0023,0.0107 -0.0047,0.0225 -0.007,0.0344 -0.0033,0.0178 -0.007,0.035 -0.01067,0.0521 -3.33e-4,0.002 -3.33e-4,0.005 -0.0013,0.006 3.33e-4,0.001 -3.34e-4,0.004 -6.67e-4,0.005 -0.0013,0.007 -0.003,0.0136 -0.0043,0.0207 -0.01067,0.0521 -0.02233,0.10427 -0.034,0.15641 -0.002,0.009 -0.0043,0.0178 -0.006,0.0261 -0.0017,0.008 -0.003,0.0142 -0.0043,0.0213 -0.0073,0.0308 -0.01433,0.0628 -0.02167,0.0936 -0.0077,0.032 -0.01567,0.0634 -0.02267,0.096 -0.0013,0.006 -0.0033,0.0118 -0.0043,0.0172 -0.0027,0.0101 -0.0047,0.0178 -0.007,0.0284 -0.0023,0.0101 -0.0057,0.0201 -0.0073,0.0308 -0.003,0.0113 -0.006,0.0213 -0.0087,0.0338 -0.0063,0.0249 -0.01267,0.051 -0.019,0.0758 -0.01167,0.0456 -0.02367,0.093 -0.036,0.13923 -0.004,0.0124 -0.008,0.0273 -0.012,0.0403 -0.002,0.0118 -0.006,0.0219 -0.0083,0.0332 -0.003,0.009 -0.005,0.0178 -0.007,0.0273 -0.0017,0.004 -0.0023,0.009 -0.004,0.0124 -0.0013,0.005 -0.003,0.0101 -0.0037,0.0142 -0.01167,0.0427 -0.024,0.0853 -0.03667,0.12797 -0.0067,0.0237 -0.013,0.0462 -0.02033,0.0681 -0.0023,0.008 -0.0037,0.0142 -0.0057,0.0213 -0.002,0.005 -0.0027,0.0101 -0.0047,0.0142 -0.003,0.007 -0.0047,0.0148 -0.007,0.0237 -0.01267,0.0421 -0.026,0.0853 -0.039,0.12798 -0.0013,0.004 -0.003,0.009 -0.005,0.0136 -6.67e-4,0.002 -0.001,0.005 -0.0027,0.007 -0.0093,0.0314 -0.01833,0.061 -0.02767,0.0901 -0.0017,0.002 -0.002,0.006 -0.0027,0.008 -0.01333,0.0403 -0.02633,0.0806 -0.039,0.11968 -0.014,0.0397 -0.02733,0.0806 -0.04133,0.12027 -0.003,0.009 -0.0067,0.0178 -0.0097,0.0273 -0.003,0.009 -0.0057,0.0166 -0.009,0.0267 -0.0013,0.002 -0.0027,0.006 -0.0033,0.008 -0.002,0.006 -0.004,0.0119 -0.0063,0.0172 -0.004,0.013 -0.008,0.0267 -0.01233,0.0391 -0.014,0.0373 -0.02833,0.077 -0.04267,0.11435 -0.0093,0.0249 -0.01767,0.0498 -0.02733,0.0746 -0.0023,0.006 -0.004,0.0113 -0.0057,0.0166 -0.0033,0.008 -0.0067,0.0148 -0.0097,0.0237 -0.01433,0.0385 -0.02933,0.0758 -0.04333,0.11435 -0.0023,0.005 -0.004,0.009 -0.0057,0.013 -0.0017,0.002 -0.0023,0.005 -0.0037,0.008 -0.01167,0.0308 -0.02367,0.0604 -0.03567,0.0913 -0.002,0.005 -0.004,0.009 -0.006,0.0136 -10e-4,0.002 -0.0027,0.007 -0.004,0.0107 -0.01167,0.029 -0.02333,0.0587 -0.035,0.0865 -0.01533,0.0367 -0.03133,0.0735 -0.04667,0.1102 -0.008,0.0178 -0.01567,0.0373 -0.02333,0.0545 -0.0037,0.007 -0.007,0.0154 -0.01,0.0225 -0.0017,0.005 -0.0037,0.008 -0.005,0.0124 -0.0037,0.007 -0.0057,0.013 -0.0087,0.0201 -0.016,0.0362 -0.03233,0.0735 -0.04833,0.10902 -0.01633,0.0361 -0.03233,0.0723 -0.04867,0.10843 -0.0013,0.002 -0.0027,0.005 -0.0037,0.007 -0.0017,0.004 -0.0027,0.007 -0.0053,0.0107 -0.014,0.0284 -0.02667,0.061 -0.04167,0.0889 -0.0063,0.0136 -0.01133,0.0261 -0.018,0.0373 -0.002,0.006 -0.004,0.0113 -0.006,0.0142 -0.009,0.0184 -0.018,0.0367 -0.027,0.0557 -0.0083,0.016 -0.01733,0.0344 -0.02533,0.051 -0.003,0.007 -0.0063,0.0124 -0.009,0.0184 -0.0063,0.013 -0.012,0.0249 -0.01767,0.0379 -0.009,0.0178 -0.01833,0.0355 -0.028,0.0533 -0.0083,0.0178 -0.018,0.0367 -0.027,0.0533 -0.0093,0.0178 -0.019,0.0367 -0.02833,0.0545 -0.0087,0.0178 -0.01833,0.0356 -0.02733,0.0545 -0.009,0.0166 -0.018,0.035 -0.028,0.0521 -0.009,0.0166 -0.01833,0.035 -0.02733,0.051 -0.0087,0.0178 -0.01833,0.0344 -0.02733,0.0521 -0.009,0.0166 -0.01933,0.0344 -0.02833,0.0498 -0.019,0.0356 -0.039,0.0699 -0.05833,0.10428 -0.0093,0.0178 -0.01967,0.0344 -0.03,0.0533 -0.002,0.004 -0.005,0.008 -0.007,0.0124 -0.007,0.0118 -0.01467,0.0249 -0.02167,0.0373 -0.02,0.0344 -0.03933,0.0675 -0.05933,0.10191 -0.02067,0.0332 -0.04067,0.0658 -0.061,0.0995 -0.021,0.0344 -0.04233,0.0681 -0.06367,0.10428 -0.001,0.001 -0.0017,0 -0.0017,0.001 -0.021,0.0344 -0.04233,0.067 -0.064,0.10072 -0.02133,0.0344 -0.04333,0.067 -0.065,0.10073 -0.02233,0.0332 -0.045,0.0658 -0.06633,0.0978 -0.007,0.0101 -0.013,0.019 -0.02,0.0284 -0.0027,0.004 -0.006,0.009 -0.0077,0.0124 -0.015,0.0225 -0.03,0.0438 -0.04433,0.0646 -0.024,0.035 -0.04867,0.0687 -0.07267,0.10191 -0.02467,0.0349 -0.04967,0.0675 -0.074,0.10072 -0.009,0.0124 -0.01833,0.0249 -0.02767,0.0367 -0.0033,0.005 -0.006,0.008 -0.0093,0.0118 -0.01233,0.0166 -0.025,0.0344 -0.037,0.0498 -0.027,0.0355 -0.055,0.0711 -0.08233,0.10665 -0.02733,0.0344 -0.05533,0.0699 -0.083,0.10428 -0.0067,0.008 -0.014,0.0166 -0.02033,0.0249 -0.0053,0.005 -0.0087,0.0107 -0.01367,0.0154 -0.01633,0.0196 -0.033,0.0409 -0.05,0.0616 -0.02767,0.0332 -0.05567,0.0658 -0.08467,0.0995 -0.03333,0.0373 -0.06567,0.0758 -0.09867,0.11198 -0.034,0.0367 -0.067,0.0735 -0.100667,0.10902 -0.034,0.0367 -0.067,0.0711 -0.100334,0.10546 -0.01133,0.0125 -0.023,0.0237 -0.03467,0.035 -0.0073,0.008 -0.01533,0.016 -0.02233,0.0231 -0.015,0.0154 -0.02933,0.0314 -0.04467,0.0462 -0.043,0.0427 -0.08667,0.0841 -0.130334,0.12561 -0.016,0.0154 -0.03233,0.0296 -0.04867,0.045 -0.0057,0.006 -0.011,0.0124 -0.017,0.016 -0.0067,0.007 -0.01233,0.0113 -0.01767,0.0166 -0.01567,0.0142 -0.03133,0.0296 -0.048,0.0438 -0.044,0.0385 -0.08833,0.0782 -0.132667,0.11553 -0.01433,0.0125 -0.029,0.0237 -0.04333,0.0367 -0.011,0.008 -0.021,0.0172 -0.03267,0.0273 -0.019,0.0148 -0.038,0.032 -0.05733,0.0468 -0.02333,0.0201 -0.04867,0.0367 -0.07233,0.0563 -0.061,0.0492 -0.122667,0.0954 -0.185,0.14041 -0.01767,0.0125 -0.03467,0.0284 -0.052,0.0415 -0.02033,0.0136 -0.041,0.0261 -0.061,0.0397 -0.061,0.0427 -0.122334,0.0841 -0.183334,0.12323 -0.024,0.016 -0.04733,0.0344 -0.07167,0.0498 -0.01467,0.009 -0.02967,0.016 -0.04433,0.0249 -0.06567,0.0409 -0.131,0.0782 -0.197333,0.11435 -0.02667,0.0154 -0.05267,0.0332 -0.07867,0.0474 -0.0073,0.004 -0.01567,0.006 -0.02333,0.0107 -0.09633,0.0521 -0.194,0.10191 -0.291,0.14694 -0.003,0.001 -0.007,0.002 -0.0097,0.004 -0.01567,0.007 -0.031,0.0142 -0.04767,0.0213 -0.015,0.007 -0.03033,0.0136 -0.046,0.0213 -0.01567,0.007 -0.031,0.0124 -0.04633,0.0184 -0.01567,0.008 -0.03133,0.0142 -0.04767,0.0201 -0.01267,0.006 -0.02667,0.0101 -0.04067,0.0154 -0.06533,0.0249 -0.131334,0.0498 -0.197667,0.0735 -0.02767,0.009 -0.055,0.0207 -0.08267,0.0296 -0.008,0.004 -0.01633,0.006 -0.02433,0.008 -0.0083,0.002 -0.01767,0.006 -0.026,0.009 -0.07767,0.0237 -0.156,0.0462 -0.234,0.0664 -0.013,0.005 -0.02667,0.008 -0.039,0.0118 -0.0017,0 -0.003,0 -0.0047,0.002 -0.101,0.0261 -0.202667,0.0468 -0.304334,0.0658 -0.0063,0.001 -0.01133,0.002 -0.017,0.004 -0.026,0.005 -0.05233,0.007 -0.07833,0.0113 -0.07133,0.0118 -0.142,0.0219 -0.213334,0.0296 -0.01167,0.001 -0.02367,0.005 -0.035,0.005 -0.04867,0.006 -0.098,0.009 -0.147,0.0136 -0.01567,0 -0.031,0 -0.046,0 -0.01133,0.002 -0.02167,0.003 -0.03333,0.003 -0.02267,0.001 -0.04533,0.004 -0.069,0.004 -0.04867,0.002 -0.09767,0.002 -0.146667,0.002 -0.01233,0 -0.024,-0.001 -0.036,-0.001 -0.01133,0 -0.02333,0 -0.03467,-0.001 -0.026,0 -0.05167,0 -0.07667,0 -0.03967,-0.002 -0.07867,-0.004 -0.118333,-0.008 -0.01967,-0.002 -0.03933,-0.004 -0.05867,-0.005 -0.0063,-0.001 -0.01233,-0.001 -0.01967,-0.001 -0.01267,-0.001 -0.02633,-0.004 -0.04,-0.004 -0.03867,-0.002 -0.078,-0.008 -0.117666,-0.0125 -0.03767,-0.007 -0.07633,-0.0113 -0.114667,-0.0154 -0.0013,-0.001 -0.0013,-0.001 -0.002,-0.001 -6.67e-4,0 -6.67e-4,0 -0.0013,0 -0.03367,-0.005 -0.06767,-0.0107 -0.101334,-0.0166 -0.03433,-0.006 -0.06867,-0.0136 -0.102333,-0.0195 -0.02267,-0.004 -0.04633,-0.0101 -0.06867,-0.0154 -0.0027,0 -0.005,0 -0.0073,-0.001 -0.002,0 -0.0033,-0.001 -0.0057,-0.001 -0.007,-0.002 -0.01233,-0.002 -0.01967,-0.004 -0.034,-0.009 -0.06733,-0.0166 -0.101333,-0.0261 -0.031,-0.008 -0.06133,-0.0154 -0.09167,-0.0237 -0.019,-0.006 -0.03767,-0.0124 -0.05633,-0.0178 -0.004,0 -0.0087,-0.001 -0.012,-0.002 -0.008,-0.002 -0.01533,-0.005 -0.02333,-0.007 -0.03067,-0.0101 -0.06133,-0.0201 -0.09167,-0.0296 -0.03,-0.0101 -0.06033,-0.0201 -0.091,-0.0326 -0.02033,-0.006 -0.04033,-0.0136 -0.061,-0.0207 -0.004,-0.001 -0.007,-0.003 -0.011,-0.005 -0.0043,-0.001 -0.008,-0.002 -0.01233,-0.004 -0.027,-0.0107 -0.055,-0.0225 -0.08333,-0.0332 -0.02767,-0.0118 -0.05567,-0.0213 -0.08367,-0.0344 -0.02733,-0.0124 -0.05533,-0.0237 -0.08333,-0.0361 -0.002,-0.001 -0.004,-0.002 -0.006,-0.004 -0.003,-0.002 -0.0057,-0.002 -0.008,-0.005 -0.02133,-0.008 -0.043,-0.019 -0.06467,-0.0296 -0.02667,-0.0124 -0.05233,-0.0249 -0.07867,-0.0379 -0.02633,-0.0124 -0.05267,-0.0273 -0.07867,-0.0397 -0.01367,-0.007 -0.027,-0.0142 -0.04067,-0.0213 -0.0037,-0.002 -0.0073,-0.005 -0.01133,-0.007 -0.0083,-0.004 -0.018,-0.009 -0.02667,-0.013 -0.025,-0.0136 -0.05,-0.0284 -0.07533,-0.0433 -0.02567,-0.0142 -0.051,-0.029 -0.076,-0.0439 -0.02567,-0.0142 -0.05067,-0.0296 -0.07633,-0.0462 -0.0027,-0.001 -0.0043,-0.002 -0.007,-0.002 -0.0023,-0.004 -0.0057,-0.005 -0.0077,-0.007 -0.02033,-0.0124 -0.04,-0.0237 -0.06067,-0.0367 -0.02367,-0.016 -0.04867,-0.032 -0.07367,-0.0486 -0.024,-0.016 -0.04833,-0.032 -0.07333,-0.0492 -0.016,-0.0124 -0.03267,-0.0237 -0.04867,-0.0349 -0.0023,-0.002 -0.0057,-0.005 -0.008,-0.007 -0.0057,-0.004 -0.01067,-0.008 -0.016,-0.0107 -0.02367,-0.0178 -0.048,-0.0361 -0.073,-0.0533 -0.02367,-0.0178 -0.048,-0.0367 -0.07167,-0.0563 -0.02433,-0.0172 -0.04833,-0.0367 -0.072,-0.0557 -0.007,-0.007 -0.01467,-0.0118 -0.02167,-0.0172 -0.0023,-0.003 -0.005,-0.005 -0.008,-0.008 -0.013,-0.0107 -0.02733,-0.0213 -0.041,-0.0332 -0.02433,-0.019 -0.04833,-0.0385 -0.07133,-0.0593 -0.01233,-0.0113 -0.02367,-0.0202 -0.035,-0.0308 -0.011,-0.0101 -0.02267,-0.0201 -0.03467,-0.0302 -0.01133,-0.0107 -0.02367,-0.0219 -0.03467,-0.032 -0.01133,-0.009 -0.023,-0.0202 -0.03467,-0.032 -0.012,-0.009 -0.024,-0.0225 -0.036,-0.0332 -0.01267,-0.0124 -0.02433,-0.0237 -0.03667,-0.0338 -0.01167,-0.0118 -0.023,-0.0219 -0.03567,-0.0344 -0.01167,-0.0119 -0.02333,-0.0237 -0.03533,-0.0356 -0.02333,-0.0237 -0.04733,-0.0462 -0.06967,-0.0687 -0.01133,-0.0107 -0.02167,-0.0225 -0.03333,-0.0332 -0.0017,-0.002 -0.0043,-0.005 -0.0063,-0.007 -0.01033,-0.0113 -0.02067,-0.0213 -0.03067,-0.0326 -0.0063,-0.006 -0.01167,-0.0119 -0.017,-0.0172 -0.0017,-0.001 -0.003,-0.002 -0.005,-0.005 -0.015,-0.0154 -0.031,-0.0326 -0.04633,-0.0486 -0.02233,-0.0249 -0.04533,-0.0498 -0.06767,-0.0747 -0.024,-0.0261 -0.048,-0.0521 -0.07033,-0.0794 -0.023,-0.0261 -0.04667,-0.0533 -0.06933,-0.0794 -0.0093,-0.0113 -0.01767,-0.0213 -0.02667,-0.0338 -0.0027,-0.002 -0.004,-0.004 -0.0063,-0.007 -0.01233,-0.0136 -0.02333,-0.0284 -0.03533,-0.0409 -0.02267,-0.029 -0.045,-0.0563 -0.067,-0.0847 -0.0067,-0.008 -0.01233,-0.0148 -0.01867,-0.0237 -0.0027,-0.002 -0.005,-0.006 -0.007,-0.008 -0.01533,-0.0201 -0.03,-0.0385 -0.04567,-0.0592 -0.02333,-0.0308 -0.047,-0.0616 -0.07,-0.0936 -0.0067,-0.007 -0.013,-0.016 -0.01967,-0.0249 -0.002,-0.004 -0.004,-0.006 -0.0063,-0.008 -0.01433,-0.0201 -0.02867,-0.0403 -0.043,-0.0592 -0.0077,-0.0124 -0.01533,-0.0225 -0.023,-0.0338 -0.003,-0.005 -0.0063,-0.008 -0.0093,-0.0136 -0.01133,-0.0154 -0.02267,-0.032 -0.03467,-0.0498 -0.02433,-0.0344 -0.04867,-0.0711 -0.07267,-0.10665 -0.022,-0.032 -0.043,-0.0652 -0.064,-0.0972 0,-0.001 -6.66e-4,-0.001 -6.66e-4,-0.001 l -0.001,0 c -0.0017,-0.004 -0.0043,-0.008 -0.0057,-0.009 -0.0053,-0.0101 -0.011,-0.0166 -0.016,-0.0261 -0.0033,-0.005 -0.006,-0.0101 -0.0087,-0.0142 -0.01533,-0.0237 -0.03067,-0.0474 -0.04533,-0.0723 -0.023,-0.0367 -0.046,-0.0729 -0.06833,-0.11138 -0.02433,-0.0409 -0.04867,-0.0829 -0.07267,-0.12443 3.33e-4,-0.001 -3.34e-4,-0.001 -3.34e-4,-0.001 -0.0017,-0.002 -0.003,-0.005 -0.0047,-0.007 -0.0033,-0.006 -0.007,-0.0118 -0.0097,-0.0178 -0.0033,-0.005 -0.005,-0.008 -0.007,-0.0124 -0.01933,-0.0332 -0.03833,-0.0687 -0.058,-0.10309 -0.02467,-0.0462 -0.04867,-0.0912 -0.073,-0.13687 -0.007,-0.013 -0.014,-0.0261 -0.02033,-0.0391 -0.0047,-0.009 -0.0097,-0.0201 -0.015,-0.0284 -0.01167,-0.0249 -0.02433,-0.0474 -0.036,-0.0711 -0.0027,-0.005 -0.0047,-0.008 -0.007,-0.0136 -0.0033,-0.007 -0.007,-0.0142 -0.01,-0.0225 -0.02333,-0.0474 -0.047,-0.0936 -0.07,-0.1422 -0.0083,-0.0172 -0.017,-0.0367 -0.025,-0.0557 -0.003,-0.007 -0.007,-0.0124 -0.01033,-0.0207 -0.004,-0.009 -0.007,-0.0154 -0.01133,-0.0249 -0.012,-0.0273 -0.02467,-0.0551 -0.03633,-0.0794 -0.01067,-0.0237 -0.02033,-0.0474 -0.03033,-0.0687 -0.0057,-0.013 -0.01033,-0.0261 -0.016,-0.0379 -0.01133,-0.0273 -0.023,-0.0521 -0.03467,-0.0794 -0.0067,-0.0148 -0.013,-0.0332 -0.02,-0.0498 -0.0063,-0.0136 -0.01233,-0.0308 -0.01867,-0.0444 -0.01267,-0.032 -0.02567,-0.0628 -0.03867,-0.0936 -0.0093,-0.0249 -0.01767,-0.051 -0.02733,-0.0758 -0.01067,-0.0261 -0.02233,-0.0533 -0.033,-0.0806 -0.005,-0.0136 -0.0093,-0.0284 -0.01433,-0.0409 -0.02367,-0.064 -0.04667,-0.13035 -0.06933,-0.19552 -0.01767,-0.0486 -0.035,-0.0972 -0.05067,-0.14813 -0.005,-0.0124 -0.009,-0.0261 -0.01367,-0.0373 -0.0053,-0.0166 -0.011,-0.0308 -0.01533,-0.0462 -0.028,-0.0841 -0.05333,-0.17122 -0.07933,-0.25951 -0.0083,-0.0284 -0.018,-0.0557 -0.02633,-0.0853 -0.0023,-0.008 -0.0043,-0.0154 -0.006,-0.0225 -0.007,-0.0237 -0.014,-0.0486 -0.02033,-0.0711 -0.01267,-0.0456 -0.02367,-0.0906 -0.03567,-0.13686 -0.02233,-0.0841 -0.04533,-0.16767 -0.06533,-0.25359 -0.0063,-0.0261 -0.012,-0.0521 -0.018,-0.0782 -0.01167,-0.0498 -0.02267,-0.10191 -0.034,-0.15109 -0.01833,-0.0835 -0.036,-0.16589 -0.05233,-0.24884 -0.0047,-0.0225 -0.01033,-0.0462 -0.01467,-0.0699 -0.003,-0.0136 -0.0053,-0.0284 -0.0073,-0.0421 -0.0027,-0.0154 -0.006,-0.0314 -0.0087,-0.045 -0.004,-0.0213 -0.007,-0.0439 -0.01033,-0.0652 -0.017,-0.0942 -0.032,-0.189 -0.047,-0.28498 -0.0077,-0.0444 -0.01467,-0.0883 -0.02067,-0.1339 -0.0033,-0.0196 -0.0063,-0.0397 -0.0087,-0.0593 -0.0017,-0.0107 -0.0043,-0.0213 -0.0053,-0.0332 -0.01733,-0.12679 -0.03233,-0.25477 -0.04567,-0.38275 -0.0017,-0.0124 -0.0033,-0.0249 -0.005,-0.0385 0,-0.002 -6.67e-4,-0.004 -3.34e-4,-0.005 -10e-4,-0.009 -0.0017,-0.0184 -0.003,-0.0273 -0.0033,-0.0344 -0.0053,-0.0681 -0.008,-0.10131 -0.012,-0.12679 -0.02233,-0.25359 -0.03,-0.38156 -0.0013,-0.019 -0.003,-0.0367 -0.0043,-0.0569 -0.0027,-0.0415 -0.004,-0.0865 -0.0057,-0.12798 -3.33e-4,-0.005 -3.33e-4,-0.0101 -6.66e-4,-0.013 l -0.950335,-0.23344 c -0.235667,1.01789 -0.823667,1.74309 -1.516001,1.74309 -0.692668,0 -1.280335,-0.72579 -1.516002,-1.74309 l -0.950001,0.23225 c 0,0.005 -3.33e-4,0.0101 -3.33e-4,0.0142 -0.0023,0.0421 -0.0027,0.0865 -0.0053,0.12916 -0.0017,0.0172 -0.0033,0.0367 -0.0043,0.0557 -0.0083,0.12797 -0.01867,0.25595 -0.03033,0.38156 -0.0033,0.0344 -0.0053,0.067 -0.0083,0.10131 -10e-4,0.0101 -0.0013,0.019 -0.0023,0.0273 -6.66e-4,0.003 -6.66e-4,0.004 -6.66e-4,0.007 -0.001,0.0125 -0.003,0.0249 -0.0047,0.0385 -0.01333,0.12797 -0.028,0.25595 -0.04533,0.38156 -0.0017,0.0119 -0.0037,0.0225 -0.0057,0.0332 -0.0027,0.0201 -0.005,0.0403 -0.0077,0.0593 -0.0067,0.0462 -0.01433,0.0901 -0.02133,0.13568 -0.01467,0.0954 -0.03,0.189 -0.04733,0.2838 -0.0037,0.0213 -0.0063,0.0438 -0.0097,0.0652 -0.003,0.0154 -0.007,0.0296 -0.0093,0.045 -0.0027,0.0136 -0.005,0.0284 -0.0073,0.0421 -0.0043,0.0249 -0.01,0.0462 -0.01467,0.0699 -0.017,0.0841 -0.03433,0.16767 -0.05267,0.25003 -0.01133,0.051 -0.022,0.10191 -0.034,0.15108 -0.006,0.0261 -0.01133,0.051 -0.018,0.077 -0.02033,0.0859 -0.04267,0.16826 -0.06533,0.2524 -0.01167,0.0474 -0.023,0.0936 -0.03533,0.13805 -0.007,0.0237 -0.01267,0.0486 -0.02,0.0723 -0.0023,0.007 -0.004,0.0142 -0.0063,0.0237 -0.0083,0.0272 -0.018,0.0545 -0.027,0.0841 -0.02567,0.0865 -0.05067,0.17419 -0.07867,0.25833 -0.005,0.0166 -0.01067,0.0308 -0.015,0.0462 -0.005,0.0118 -0.0093,0.0249 -0.014,0.0385 -0.01633,0.0486 -0.03367,0.0984 -0.05133,0.14694 -0.02233,0.0664 -0.045,0.13153 -0.069,0.19671 -0.0053,0.0124 -0.0097,0.0272 -0.015,0.0409 -0.01033,0.0272 -0.022,0.0533 -0.03233,0.0806 -0.009,0.0261 -0.01867,0.051 -0.02767,0.0758 -0.01267,0.0296 -0.02567,0.061 -0.03833,0.0924 -0.0067,0.0148 -0.01233,0.0296 -0.019,0.0444 -0.0067,0.0166 -0.013,0.0349 -0.02,0.0498 -0.01133,0.0273 -0.02267,0.0521 -0.03433,0.0794 -0.0057,0.0124 -0.011,0.0249 -0.016,0.0379 -0.01033,0.0225 -0.02,0.045 -0.03,0.0687 -0.01167,0.0261 -0.02467,0.0533 -0.03667,0.0806 -0.0037,0.007 -0.0073,0.016 -0.01133,0.0237 -0.0027,0.009 -0.0073,0.0148 -0.01,0.0219 -0.0087,0.0178 -0.017,0.0367 -0.025,0.0563 -0.02267,0.0468 -0.04667,0.0942 -0.06967,0.14161 -0.004,0.007 -0.0073,0.0154 -0.01067,0.0213 -0.002,0.006 -0.0043,0.009 -0.007,0.0136 -0.01133,0.0249 -0.024,0.0462 -0.03567,0.0699 -0.005,0.0107 -0.01033,0.019 -0.015,0.0296 -0.0067,0.0142 -0.01367,0.0261 -0.02,0.0379 -0.02467,0.0468 -0.04867,0.093 -0.073,0.13805 -0.01933,0.0344 -0.03867,0.0699 -0.05833,0.10428 -0.0023,0.004 -0.004,0.007 -0.006,0.0107 -0.0043,0.008 -0.0073,0.0142 -0.01167,0.019 -10e-4,0.002 -0.0023,0.006 -0.0033,0.007 0,0 -6.67e-4,0.001 -6.67e-4,0.002 -0.02433,0.0415 -0.04833,0.0835 -0.07233,0.12324 -0.02233,0.0391 -0.045,0.0758 -0.06867,0.11198 -0.01433,0.0249 -0.03,0.0474 -0.045,0.0723 -0.003,0.005 -0.006,0.0101 -0.0083,0.0142 -0.0057,0.008 -0.01133,0.0148 -0.016,0.0249 -0.0023,0.004 -0.0043,0.007 -0.0067,0.009 0,0.001 0,0.001 -3.34e-4,0.001 -3.33e-4,0 -3.33e-4,0.001 -3.33e-4,0.001 -0.02133,0.0308 -0.04267,0.064 -0.06433,0.096 -0.02367,0.0356 -0.048,0.0711 -0.07267,0.10665 -0.01167,0.0178 -0.02333,0.0344 -0.03533,0.051 -0.0027,0.005 -0.006,0.009 -0.009,0.0125 -0.0073,0.0112 -0.01533,0.0213 -0.023,0.0338 -0.014,0.0184 -0.02867,0.0385 -0.043,0.0581 -0.002,0.004 -0.0043,0.006 -0.0067,0.0107 -0.0063,0.008 -0.01267,0.0166 -0.019,0.0249 -0.023,0.032 -0.04667,0.0628 -0.06967,0.0936 -0.01533,0.019 -0.03067,0.0385 -0.04633,0.0581 -0.002,0.004 -0.004,0.007 -0.0063,0.008 -0.006,0.009 -0.01267,0.0166 -0.01867,0.0249 -0.02233,0.0284 -0.045,0.0557 -0.06767,0.0847 -0.01167,0.0124 -0.02333,0.0273 -0.03533,0.0409 -0.0017,0.002 -0.0033,0.005 -0.006,0.007 -0.0087,0.0125 -0.01767,0.0225 -0.027,0.0326 -0.02233,0.0273 -0.046,0.0533 -0.06933,0.0794 -0.02333,0.0261 -0.04667,0.0533 -0.06967,0.0806 -0.02233,0.0237 -0.04533,0.0486 -0.06767,0.0723 -0.01567,0.0172 -0.03133,0.0344 -0.04733,0.0498 -0.0013,0.001 -0.003,0.004 -0.0043,0.005 -0.0057,0.007 -0.011,0.0125 -0.017,0.0184 -0.0097,0.0113 -0.02033,0.0202 -0.03067,0.0314 -0.002,0.002 -0.004,0.005 -0.0067,0.007 -0.01067,0.0107 -0.02067,0.0225 -0.03233,0.0332 -0.02333,0.0237 -0.047,0.0462 -0.07033,0.0699 -0.011334,0.0118 -0.023667,0.0237 -0.035,0.0355 -0.012333,0.0113 -0.024333,0.0225 -0.036667,0.0344 -0.012,0.0113 -0.023667,0.0213 -0.036,0.0338 -0.012333,0.0107 -0.024333,0.0225 -0.036333,0.0332 -0.011333,0.0118 -0.023,0.0213 -0.034667,0.0308 -0.012,0.0113 -0.023333,0.0213 -0.034667,0.032 -0.012,0.0101 -0.023333,0.0213 -0.034667,0.0314 -0.011333,0.0107 -0.023333,0.0195 -0.034667,0.0296 -0.023667,0.0213 -0.047,0.0409 -0.071333,0.0604 -0.013667,0.0107 -0.027667,0.0213 -0.041667,0.032 -0.00233,0.004 -0.00467,0.005 -0.00733,0.009 -0.00733,0.005 -0.015,0.0107 -0.022,0.016 -0.023667,0.019 -0.047333,0.0391 -0.071333,0.0569 -0.024333,0.0178 -0.048333,0.0367 -0.072333,0.0551 -0.024333,0.0172 -0.048667,0.0356 -0.072333,0.0533 -0.005,0.005 -0.011,0.007 -0.015667,0.0107 -0.003,0.002 -0.005,0.005 -0.00833,0.007 -0.016333,0.0124 -0.032333,0.0237 -0.048667,0.035 -0.025,0.016 -0.048667,0.0344 -0.073333,0.0492 -0.025,0.0166 -0.049333,0.0326 -0.073667,0.0486 -0.020333,0.0142 -0.040333,0.0261 -0.060667,0.0379 -0.003,0.001 -0.005,0.004 -0.00833,0.006 -0.00233,0 -0.00467,0.002 -0.007,0.004 -0.025,0.0154 -0.05,0.0308 -0.075333,0.0462 -0.025333,0.0154 -0.050667,0.0296 -0.075667,0.0438 -0.025667,0.0148 -0.051333,0.0284 -0.076334,0.0433 -0.00833,0.005 -0.018,0.0101 -0.026667,0.013 -0.00433,0.002 -0.00767,0.004 -0.011333,0.007 -0.013667,0.007 -0.027,0.0142 -0.040333,0.0213 -0.026667,0.0124 -0.052667,0.0273 -0.078667,0.0397 -0.026333,0.013 -0.053,0.0249 -0.079,0.0379 -0.021333,0.0107 -0.043,0.0201 -0.064667,0.0296 -0.00233,0.001 -0.00567,0.002 -0.008,0.004 -0.002,0.002 -0.00367,0.002 -0.006,0.005 -0.028,0.0113 -0.055667,0.0225 -0.083667,0.0361 -0.027667,0.0118 -0.055333,0.0225 -0.083333,0.0332 -0.027667,0.0119 -0.055667,0.0225 -0.083667,0.0332 -0.00367,0.001 -0.00767,0.004 -0.012,0.005 -0.00333,0.001 -0.007,0.003 -0.011,0.004 -0.020667,0.007 -0.040667,0.0148 -0.061333,0.0219 -0.030333,0.0113 -0.060667,0.0201 -0.091,0.0326 -0.030333,0.009 -0.060667,0.0184 -0.091,0.0296 -0.008,0.001 -0.015333,0.005 -0.023333,0.006 -0.00367,0.001 -0.00833,0.002 -0.012667,0.004 -0.018667,0.005 -0.037333,0.0113 -0.056,0.0154 -0.030333,0.009 -0.060667,0.0172 -0.091667,0.0249 -0.033667,0.009 -0.067667,0.016 -0.1013335,0.0249 -0.00667,0.002 -0.013333,0.004 -0.02,0.005 -0.002,0.001 -0.00333,0.001 -0.00533,0.001 -0.00167,0.001 -0.00467,0.001 -0.007,0.001 -0.023333,0.005 -0.046,0.0107 -0.069333,0.0154 -0.034333,0.007 -0.067667,0.0136 -0.1016668,0.0196 -0.033667,0.007 -0.068,0.0124 -0.1023335,0.0166 0,0 0,0 -6.666e-4,0.001 -0.001,-0.001 -0.00133,-0.001 -0.00133,-0.001 -0.038333,0.006 -0.076667,0.0107 -0.1150001,0.0166 -0.039333,0.005 -0.078333,0.009 -0.1180001,0.0124 -0.013333,0.001 -0.026667,0.002 -0.04,0.004 -0.00633,0 -0.013333,0.001 -0.019333,0.002 -0.02,0.001 -0.039333,0.002 -0.058667,0.004 -0.039333,0.004 -0.078667,0.005 -0.1180001,0.008 -0.025333,0 -0.051667,0 -0.077333,0 -0.011667,0.001 -0.023333,0.001 -0.035333,0.001 C 6.829384,125 6.817384,125 6.8057173,125 c -0.049,0 -0.098333,0 -0.1473334,-0.002 -0.023333,0 -0.046,-0.002 -0.069333,-0.002 -0.010667,-0.001 -0.022,-0.002 -0.032667,-0.004 -0.015,0.002 -0.030667,0 -0.046,-0.001 -0.049,-0.004 -0.097667,-0.007 -0.1476668,-0.0124 -0.011333,0 -0.023,-0.004 -0.034333,-0.005 -0.071,-0.009 -0.1420001,-0.019 -0.2133335,-0.0296 -0.025667,-0.002 -0.052333,-0.007 -0.078667,-0.0113 -0.00567,-0.002 -0.010667,-0.002 -0.015667,-0.002 -0.1026667,-0.0201 -0.2040002,-0.0409 -0.3053336,-0.0658 -0.002,-0.001 -0.003,-0.001 -0.00467,-0.003 -0.013333,-0.004 -0.026,-0.007 -0.039333,-0.0107 -0.078333,-0.0213 -0.1563334,-0.0427 -0.2340002,-0.0687 -0.009,-0.002 -0.017667,-0.006 -0.026667,-0.008 -0.00767,-0.002 -0.015667,-0.004 -0.024,-0.007 -0.027667,-0.0113 -0.054667,-0.0213 -0.082333,-0.0308 -0.066333,-0.0237 -0.1323335,-0.0486 -0.1983336,-0.0723 -0.013667,-0.006 -0.027333,-0.009 -0.040667,-0.0166 -0.015667,-0.006 -0.031,-0.0118 -0.047,-0.0201 -0.015,-0.006 -0.030667,-0.0119 -0.046333,-0.0172 -0.015667,-0.007 -0.031667,-0.0142 -0.046667,-0.0202 -0.015667,-0.008 -0.031333,-0.0154 -0.047,-0.0225 -0.003,0 -0.006,-0.002 -0.00967,-0.005 -0.097334,-0.045 -0.1946669,-0.0936 -0.291667,-0.14575 -0.00733,-0.004 -0.015,-0.007 -0.023,-0.0107 -0.026333,-0.0154 -0.052667,-0.0332 -0.078667,-0.0474 -0.065667,-0.0367 -0.1316668,-0.0747 -0.1970002,-0.11435 -0.014667,-0.0101 -0.029667,-0.0166 -0.044667,-0.0261 -0.023667,-0.0166 -0.047667,-0.0338 -0.071333,-0.0498 -0.061,-0.0379 -0.1223335,-0.0794 -0.1833335,-0.12324 -0.020333,-0.0124 -0.040667,-0.0261 -0.060667,-0.0397 -0.017667,-0.0124 -0.035667,-0.0273 -0.053,-0.0403 -0.061667,-0.045 -0.1233335,-0.0924 -0.1846669,-0.13923 -0.023667,-0.019 -0.048333,-0.0367 -0.072333,-0.0575 -0.019333,-0.0148 -0.038333,-0.032 -0.057333,-0.048 -0.010667,-0.0101 -0.021667,-0.0178 -0.032333,-0.0273 -0.014333,-0.0124 -0.029,-0.0237 -0.043667,-0.0361 -0.045,-0.0385 -0.088667,-0.0782 -0.1323335,-0.11672 -0.015667,-0.0142 -0.031667,-0.0296 -0.047333,-0.0438 -0.00567,-0.006 -0.012333,-0.0107 -0.017667,-0.0166 -0.006,-0.005 -0.011333,-0.0107 -0.017667,-0.016 -0.015667,-0.0154 -0.032,-0.0296 -0.048667,-0.0438 -0.043,-0.0409 -0.086333,-0.0841 -0.1293334,-0.12679 -0.015333,-0.0148 -0.029667,-0.0308 -0.044667,-0.045 -0.00767,-0.008 -0.015333,-0.016 -0.023,-0.0243 -0.011,-0.0113 -0.022667,-0.0225 -0.034,-0.035 -0.034,-0.0332 -0.067333,-0.067 -0.1010001,-0.10427 -0.033667,-0.0367 -0.066333,-0.0723 -0.099667,-0.11021 -0.033333,-0.0367 -0.066,-0.0735 -0.098667,-0.11138 -0.028333,-0.035 -0.056667,-0.0675 -0.084667,-0.10073 -0.017,-0.0213 -0.033667,-0.0403 -0.050667,-0.0604 -0.004,-0.007 -0.008,-0.0113 -0.012333,-0.0166 -0.007,-0.008 -0.014333,-0.0166 -0.020667,-0.0237 -0.028,-0.0356 -0.056,-0.0711 -0.083,-0.10546 -0.027333,-0.0344 -0.055333,-0.0699 -0.082667,-0.10665 -0.012333,-0.0154 -0.024333,-0.032 -0.037,-0.0486 -0.00333,-0.005 -0.00667,-0.008 -0.00967,-0.0119 -0.00933,-0.013 -0.018667,-0.0249 -0.027333,-0.0367 -0.024667,-0.0332 -0.048667,-0.0658 -0.073333,-0.10072 -0.024667,-0.0344 -0.048667,-0.067 -0.072667,-0.10309 -0.015,-0.0207 -0.029,-0.0409 -0.044,-0.0634 -0.00267,-0.004 -0.00567,-0.008 -0.00867,-0.013 -0.00633,-0.008 -0.012667,-0.0172 -0.019667,-0.0273 -0.022,-0.0332 -0.044,-0.0658 -0.066,-0.0978 -0.022,-0.0338 -0.043667,-0.0675 -0.066333,-0.10191 -0.021333,-0.0338 -0.042333,-0.0664 -0.063667,-0.0995 0,-0.001 -6.667e-4,-0.002 -0.00133,-0.002 -0.021667,-0.0361 -0.043,-0.0699 -0.064,-0.1031 -0.020333,-0.0332 -0.040333,-0.0664 -0.060333,-0.10072 -0.020333,-0.0332 -0.04,-0.0675 -0.059667,-0.10072 -0.007,-0.0142 -0.014333,-0.0261 -0.021,-0.0391 -0.00267,-0.004 -0.005,-0.009 -0.00733,-0.0124 -0.01,-0.0178 -0.02,-0.0356 -0.03,-0.0521 -0.019333,-0.0338 -0.038667,-0.0681 -0.058667,-0.10487 -0.009,-0.0154 -0.018333,-0.0332 -0.027667,-0.051 -0.00933,-0.0148 -0.018333,-0.0332 -0.027667,-0.0498 -0.009,-0.0172 -0.018667,-0.0356 -0.027667,-0.0521 -0.009,-0.0172 -0.018333,-0.0356 -0.027333,-0.0521 -0.009,-0.0172 -0.019,-0.0367 -0.028,-0.0545 -0.00967,-0.0178 -0.018667,-0.0367 -0.028,-0.0533 -0.00867,-0.0166 -0.018,-0.0356 -0.027,-0.0533 -0.00933,-0.0178 -0.018667,-0.0356 -0.027333,-0.0545 -0.00667,-0.013 -0.012,-0.0237 -0.018,-0.0367 -0.003,-0.007 -0.00667,-0.013 -0.00933,-0.019 -0.008,-0.0166 -0.016667,-0.035 -0.025,-0.051 -0.009,-0.019 -0.018,-0.0379 -0.027,-0.0569 -0.00167,-0.005 -0.004,-0.009 -0.00633,-0.013 -0.006,-0.0119 -0.012,-0.0249 -0.017667,-0.0373 -0.014333,-0.0296 -0.028,-0.0598 -0.042,-0.0901 -0.00167,-0.004 -0.00333,-0.006 -0.00533,-0.0107 -0.001,-0.003 -0.002,-0.004 -0.003,-0.007 -0.016667,-0.0361 -0.033333,-0.0723 -0.049333,-0.10843 -0.015667,-0.0356 -0.032,-0.0717 -0.047667,-0.10783 -0.00333,-0.008 -0.006,-0.0136 -0.00933,-0.0213 -0.00133,-0.004 -0.00333,-0.008 -0.005,-0.0118 -0.003,-0.007 -0.00633,-0.0154 -0.00967,-0.0237 -0.00767,-0.0166 -0.016,-0.0356 -0.023667,-0.0545 -0.015667,-0.0356 -0.031,-0.0723 -0.0460001,-0.10902 -0.0116667,-0.0284 -0.0236667,-0.0581 -0.035,-0.0877 -0.001333,-0.002 -0.003333,-0.007 -0.004333,-0.0107 -0.001667,-0.004 -0.003667,-0.008 -0.005667,-0.0124 -0.012,-0.0314 -0.0243334,-0.0616 -0.0356667,-0.0912 -0.001333,-0.004 -0.002,-0.006 -0.003667,-0.008 -0.001667,-0.005 -0.003667,-0.0101 -0.005667,-0.0142 -0.0143334,-0.0373 -0.029,-0.0758 -0.0436667,-0.11316 -0.003333,-0.0101 -0.006333,-0.0166 -0.009333,-0.0249 -0.002,-0.005 -0.003667,-0.0113 -0.006,-0.0166 -0.009,-0.0249 -0.0183334,-0.0486 -0.0273334,-0.0735 -0.0143333,-0.0385 -0.0283334,-0.0782 -0.0423334,-0.11672 -0.004333,-0.0119 -0.008667,-0.0249 -0.0133334,-0.0379 -0.002,-0.006 -0.004,-0.0107 -0.005667,-0.016 -0.001,-0.002 -0.002333,-0.006 -0.003667,-0.008 -0.003,-0.0113 -0.005667,-0.0178 -0.009,-0.0261 -0.003333,-0.0112 -0.006667,-0.019 -0.01,-0.029 -0.0136667,-0.0385 -0.0273334,-0.0794 -0.0406667,-0.11909 -0.0126667,-0.0403 -0.0263334,-0.0806 -0.039,-0.11968 -6.6667e-4,-0.004 -0.001667,-0.006 -0.003,-0.008 -0.009,-0.0308 -0.0186667,-0.0592 -0.0276667,-0.09 -0.001,-0.002 -0.002,-0.005 -0.003,-0.008 -0.001333,-0.005 -0.003,-0.0107 -0.005,-0.0148 -0.0126667,-0.0415 -0.0256667,-0.0847 -0.0383334,-0.12561 -0.002667,-0.009 -0.005,-0.0178 -0.007333,-0.0237 -0.001333,-0.007 -0.002667,-0.0113 -0.004333,-0.0154 -0.001667,-0.008 -0.004,-0.0136 -0.006,-0.0213 -0.006667,-0.0231 -0.0136667,-0.0444 -0.0203334,-0.0681 -0.0126667,-0.0427 -0.0243334,-0.0853 -0.0363334,-0.12679 -0.001333,-0.005 -0.002333,-0.009 -0.004,-0.0142 -6.6667e-4,-0.005 -0.002333,-0.009 -0.003333,-0.0136 -0.002333,-0.008 -0.004667,-0.0166 -0.007333,-0.0261 -0.002333,-0.013 -0.005333,-0.0225 -0.008333,-0.0344 -0.003667,-0.013 -0.007667,-0.0273 -0.0113333,-0.0415 -0.0126667,-0.045 -0.0246667,-0.0924 -0.0366667,-0.13923 -0.006333,-0.0237 -0.0126667,-0.0509 -0.019,-0.0746 -0.002667,-0.0125 -0.005667,-0.0225 -0.008333,-0.035 -0.002333,-0.0107 -0.005333,-0.0207 -0.008,-0.0308 -0.002333,-0.0107 -0.004333,-0.0184 -0.006667,-0.0272 -0.001333,-0.007 -0.002667,-0.0119 -0.004333,-0.0184 -0.007333,-0.0326 -0.0153333,-0.064 -0.0226667,-0.0948 -0.007,-0.032 -0.0143334,-0.064 -0.0213334,-0.0948 -0.001667,-0.007 -0.003667,-0.0124 -0.005,-0.0213 -0.001667,-0.008 -0.004,-0.0172 -0.006,-0.0261 -0.0113334,-0.051 -0.0223334,-0.10309 -0.0333334,-0.15523 -0.001667,-0.007 -0.003333,-0.0136 -0.004667,-0.0207 0,-0.002 -3.3333e-4,-0.004 -6.6667e-4,-0.005 -3.3333e-4,-0.001 -6.6666e-4,-0.004 -0.001,-0.006 -0.003667,-0.0172 -0.007,-0.0344 -0.011,-0.0521 -0.001667,-0.0124 -0.004333,-0.0237 -0.006667,-0.0356 -0.002667,-0.013 -0.005333,-0.0237 -0.008,-0.0367 -0.01,-0.0533 -0.0203333,-0.10665 -0.0296667,-0.15879 -0.004333,-0.0219 -0.008,-0.0433 -0.012,-0.0658 -0.002667,-0.013 -0.005,-0.0249 -0.007,-0.0379 -0.002667,-0.0148 -0.005333,-0.0296 -0.007667,-0.0444 l -3.3334e-4,-0.001 c -3.3333e-4,-0.001 -0.001,-0.005 -0.001667,-0.009 -0.0103333,-0.0604 -0.0203334,-0.12028 -0.0296667,-0.18012 -0.001667,-0.009 -0.003667,-0.0196 -0.004667,-0.0296 -0.002333,-0.0148 -0.004333,-0.0296 -0.006667,-0.0433 -0.005667,-0.0367 -0.0113333,-0.0735 -0.017,-0.11079 -0.002333,-0.0172 -0.004667,-0.0356 -0.007,-0.0521 -0.002,-0.0119 -0.003333,-0.0237 -0.004667,-0.0332 -0.002333,-0.0178 -0.005333,-0.0367 -0.007667,-0.0557 -0.001,-0.008 -0.002667,-0.0178 -0.003667,-0.0273 -6.6666e-4,-0.005 -0.002,-0.0113 -0.002333,-0.0166 -0.008,-0.0604 -0.0156667,-0.12146 -0.02300003,-0.18485 -0.0023333,-0.0178 -0.004,-0.0356 -0.006,-0.0545 -0.0016667,-0.0118 -0.0036667,-0.0237 -0.005,-0.0356 -6.6666e-4,-0.008 -0.001,-0.0154 -0.0016667,-0.0213 -0.0016667,-0.0178 -0.0036667,-0.0367 -0.006,-0.0557 -0.002,-0.0201 -0.005,-0.0403 -0.007,-0.0628 -0.0073333,-0.0758 -0.01500001,-0.15286 -0.02166669,-0.23107 -0.0026667,-0.0308 -0.0043333,-0.0616 -0.007,-0.0918 -0.0016667,-0.019 -0.0033333,-0.0403 -0.0046667,-0.0593 -0.002,-0.0261 -0.0043333,-0.0533 -0.006,-0.0806 -3.3334e-4,-0.001 -3.3334e-4,-0.003 -6.6667e-4,-0.004 3.3333e-4,0 3.3333e-4,0 3.3333e-4,-0.001 -0.0053333,-0.0758 -0.0096667,-0.15109 -0.01366668,-0.22574 -6.6666e-4,-0.0166 -10e-4,-0.0308 -0.0016667,-0.0474 -0.004,-0.0794 -0.0063333,-0.15879 -0.00866667,-0.23759 -0.002,-0.0498 -0.00366667,-0.0983 -0.00466667,-0.14812 -6.6667e-4,-0.0296 -0.00166667,-0.0604 -0.002,-0.0883 -0.00233334,-0.15049 -0.00233334,-0.29861 3.3333e-4,-0.44733 0,-0.005 0,-0.0113 0,-0.0154 0,-0.004 3.3333e-4,-0.007 0,-0.009 3.3333e-4,-0.003 3.3333e-4,-0.005 3.3333e-4,-0.008 0,-0.0213 0.00166667,-0.0421 0.002,-0.0634 0.00300001,-0.12205 0.00666668,-0.24411 0.01266668,-0.3632 6.6667e-4,-0.013 0.0016667,-0.0261 0.0026667,-0.0391 0.0016667,-0.0261 0.0036667,-0.0533 0.0046667,-0.0782 0.001,-0.0124 6.6666e-4,-0.0249 0.0013333,-0.0367 0.002,-0.032 0.006,-0.0634 0.008,-0.0948 0.0066667,-0.0883 0.01266668,-0.17478 0.02033335,-0.26129 0.0016667,-0.0195 0.0023333,-0.0385 0.0043333,-0.0581 0.003,-0.0356 0.0083333,-0.0711 0.01166668,-0.10665 0.0046667,-0.045 0.009,-0.0883 0.01400001,-0.13153 0.0066667,-0.0581 0.01366668,-0.11613 0.02100002,-0.17419 0.007667,-0.0634 0.0166667,-0.12798 0.0256667,-0.19138 0.008,-0.0545 0.0146667,-0.10901 0.023,-0.16293 0.003667,-0.0237 0.008333,-0.0462 0.012,-0.0687 0.002667,-0.0142 0.005,-0.0284 0.007333,-0.0427 0.005333,-0.0344 0.01,-0.0681 0.0153333,-0.1019 0.005333,-0.0296 0.012,-0.0581 0.017,-0.0865 0.014,-0.0758 0.0276667,-0.15167 0.0430001,-0.22633 0.007333,-0.0373 0.0146667,-0.0752 0.0223334,-0.11316 0.008667,-0.0385 0.017,-0.0782 0.026,-0.11791 0.021,-0.0948 0.0433334,-0.18722 0.0663334,-0.28084 0.0103333,-0.0415 0.0193334,-0.0859 0.0296667,-0.12679 L 2.3213795,104.2742 c 0.00633,-0.0249 0.013,-0.0498 0.019333,-0.0746 6.666e-4,-0.001 6.666e-4,-0.002 0.00133,-0.004 0,0 -3.333e-4,-5.9e-4 0,-0.001 0.00733,-0.0261 0.014333,-0.0533 0.021667,-0.08 0.007,-0.0255 0.014667,-0.0527 0.022333,-0.0794 0.007,-0.0261 0.014333,-0.0527 0.022333,-0.0788 0.00967,-0.0326 0.019667,-0.064 0.029,-0.096 0.00467,-0.0148 0.00867,-0.029 0.013333,-0.0433 0.00267,-0.008 0.00467,-0.016 0.007,-0.0237 0.003,-0.009 0.005,-0.0172 0.008,-0.0261 0.019333,-0.0628 0.04,-0.12443 0.060667,-0.18604 0.009,-0.0279 0.018667,-0.0545 0.028333,-0.0824 0.003,-0.008 0.00533,-0.0172 0.008,-0.0255 0.00233,-0.007 0.00567,-0.013 0.00767,-0.0201 0.00667,-0.019 0.013,-0.0379 0.019333,-0.0569 0.00467,-0.0124 0.00933,-0.0237 0.013333,-0.035 0.00133,-0.004 0.00233,-0.008 0.004,-0.0124 0.002,-0.006 0.00467,-0.0113 0.00667,-0.0166 0.014667,-0.0397 0.028667,-0.0794 0.044,-0.1185 0.010333,-0.0273 0.020667,-0.0545 0.031667,-0.0812 0.003,-0.007 0.00567,-0.0142 0.00867,-0.0213 0.00533,-0.013 0.01,-0.0267 0.015333,-0.0397 0.018667,-0.048 0.038,-0.0948 0.058,-0.14102 0.00267,-0.006 0.00533,-0.0124 0.00833,-0.019 0.00133,-0.004 0.00333,-0.008 0.00467,-0.0118 0.015667,-0.0361 0.030667,-0.0723 0.047,-0.10843 10e-4,-0.003 0.00233,-0.005 0.00333,-0.008 0.00267,-0.005 0.00533,-0.0107 0.00767,-0.016 0.017,-0.0373 0.033667,-0.0747 0.050667,-0.11257 0.018333,-0.0391 0.036667,-0.0782 0.055333,-0.11791 0.008,-0.0166 0.016333,-0.0326 0.024333,-0.0492 6.667e-4,-0.002 0.00233,-0.004 0.00267,-0.006 0.00133,-0.002 0.00233,-0.004 0.00333,-0.006 0.004,-0.009 0.00767,-0.0166 0.012,-0.0243 0.00167,-0.004 0.003,-0.007 0.00467,-0.0101 0.00333,-0.007 0.007,-0.0142 0.010333,-0.0213 0.019333,-0.0385 0.038667,-0.0764 0.058667,-0.11435 0.019667,-0.0379 0.04,-0.0758 0.06,-0.11376 0.010667,-0.0201 0.021667,-0.0391 0.032667,-0.0587 0.003,-0.006 0.00633,-0.0107 0.00933,-0.016 0.00467,-0.009 0.00967,-0.0178 0.014333,-0.0255 0.00233,-0.006 0.00533,-0.0101 0.00767,-0.0142 0.002,-0.004 0.004,-0.007 0.006,-0.0107 0.014333,-0.0255 0.029,-0.051 0.043333,-0.0764 0.02,-0.0338 0.039667,-0.0664 0.059,-0.0989 0.013667,-0.0219 0.027667,-0.0438 0.041667,-0.0664 0.00233,-0.005 0.00533,-0.009 0.00833,-0.0142 0.00367,-0.005 0.007,-0.0112 0.01,-0.0166 0.019333,-0.0302 0.038,-0.0592 0.057333,-0.0895 0.00333,-0.005 0.007,-0.0107 0.010333,-0.0148 6.667e-4,-0.001 0.00133,-0.002 0.002,-0.004 0.00133,-0.002 0.00167,-0.004 0.003,-0.005 0.014,-0.0219 0.028333,-0.0433 0.043,-0.0652 0.019333,-0.029 0.039333,-0.0581 0.059333,-0.0877 0.00133,-0.001 0.00233,-0.003 0.004,-0.005 0,-6e-4 6.667e-4,0 10e-4,-0.001 0.018333,-0.0261 0.036667,-0.0527 0.055667,-0.0788 0.019333,-0.0267 0.038667,-0.0539 0.058333,-0.0806 0.00933,-0.0124 0.019,-0.0249 0.028333,-0.0373 0.00233,-0.004 0.005,-0.007 0.008,-0.0107 0.00767,-0.0101 0.015333,-0.0207 0.023,-0.0314 0.009,-0.0113 0.018,-0.0225 0.027,-0.0344 0.00267,-0.004 0.00633,-0.008 0.00867,-0.0125 0.00833,-0.0101 0.016667,-0.0213 0.025,-0.0314 0.020333,-0.0261 0.041,-0.051 0.062,-0.0764 0.01,-0.0124 0.020667,-0.0255 0.031,-0.0385 0.010667,-0.0124 0.021333,-0.0255 0.032,-0.0385 0.010667,-0.0124 0.021333,-0.0249 0.032,-0.0373 0.011,-0.0119 0.021333,-0.0249 0.032333,-0.0373 0.01,-0.0118 0.020333,-0.0231 0.030667,-0.0349 0.01,-0.0118 0.020667,-0.0231 0.030667,-0.035 0.011,-0.0113 0.021,-0.0231 0.031333,-0.0344 0.01,-0.0113 0.020333,-0.0231 0.030333,-0.0338 0.021333,-0.0225 0.042667,-0.045 0.063667,-0.067 0.013333,-0.0142 0.027,-0.0278 0.04,-0.0415 0.00167,-0.002 0.00367,-0.004 0.00633,-0.006 0.00567,-0.007 0.011667,-0.0124 0.018,-0.019 0.021333,-0.0213 0.042667,-0.0426 0.064333,-0.064 0.021333,-0.0207 0.043,-0.0415 0.064667,-0.0616 0.021667,-0.0202 0.043667,-0.0403 0.065667,-0.061 0.00567,-0.005 0.011667,-0.0101 0.017,-0.0148 0.00233,-0.002 0.005,-0.005 0.00767,-0.007 0.014,-0.0124 0.027667,-0.0243 0.041667,-0.0367 0.022,-0.019 0.044,-0.0379 0.066667,-0.0569 0.022,-0.0184 0.044333,-0.0373 0.067333,-0.0557 0.02,-0.0166 0.040667,-0.0338 0.061333,-0.0492 3.334e-4,-6e-4 0.00167,-0.002 0.00267,-0.002 0.00133,-0.001 0.003,-0.002 0.00467,-0.004 0.022667,-0.0178 0.046,-0.0361 0.069,-0.0527 0.023,-0.0172 0.046333,-0.0344 0.069333,-0.0521 0.023333,-0.0166 0.047,-0.0332 0.069667,-0.0492 0.009,-0.007 0.017667,-0.0124 0.026333,-0.0184 0.00133,-6e-4 0.00267,-0.002 0.00433,-0.003 0.001,-0.0113 0.00133,-0.0231 0.00233,-0.035 6.667e-4,-0.003 3.333e-4,-0.007 6.667e-4,-0.0113 3.333e-4,-5.9e-4 6.666e-4,-0.002 3.333e-4,-0.002 10e-4,-0.0124 0.003,-0.0249 0.00433,-0.0373 0.009,-0.09184 0.020333,-0.183674 0.032333,-0.27551 6.667e-4,-0.0071 0.00133,-0.01422 0.00267,-0.02133 0.005,-0.0397 0.012333,-0.07939 0.018,-0.11909 0.002,-0.01126 0.00267,-0.0237 0.00433,-0.03496 0.00167,-0.0095 0.004,-0.01896 0.00567,-0.02844 0.00567,-0.03673 0.011333,-0.07347 0.018,-0.110203 0.00467,-0.02844 0.010333,-0.05569 0.015333,-0.08295 0.013333,-0.06991 0.026667,-0.138642 0.041667,-0.207371 0.003,-0.01659 0.006,-0.03377 0.00967,-0.04977 l 0.1726599,-0.776751 c 0,0 0,-5.92e-4 0,-0.0012 0.008,-0.03437 0.016,-0.06814 0.024667,-0.102501 3.333e-4,-0.0047 0.00167,-0.0095 0.00267,-0.01422 10e-4,-0.003 0.00133,-0.0065 0.00267,-0.01007 0.01,-0.04207 0.020667,-0.08472 0.032,-0.1262 0.00633,-0.02548 0.013667,-0.05095 0.02,-0.07584 0.00133,-0.0041 0.00233,-0.0089 0.00333,-0.01304 0.00133,-0.0047 0.00333,-0.01007 0.00467,-0.0154 0.00167,-0.0071 0.00333,-0.01304 0.005,-0.02014 0.012,-0.04147 0.023333,-0.08295 0.035667,-0.12383 0.00633,-0.02014 0.012667,-0.0391 0.018667,-0.05984 0.00367,-0.01067 0.00667,-0.02074 0.00967,-0.03081 0.003,-0.0095 0.00567,-0.01837 0.00833,-0.02785 0.00433,-0.01304 0.009,-0.02666 0.013333,-0.0391 0.00133,-0.0041 0.002,-0.0077 0.003,-0.01067 0.001,-0.0041 0.00267,-0.0071 0.00433,-0.01126 0.006,-0.01837 0.012333,-0.03733 0.018333,-0.05569 0.00567,-0.016 0.011667,-0.03318 0.017,-0.04918 0.00233,-0.0053 0.004,-0.01244 0.00633,-0.01837 0.00167,-0.0059 0.004,-0.01066 0.006,-0.0154 0.00367,-0.01067 0.008,-0.02251 0.012,-0.03377 0.014,-0.0391 0.028,-0.07643 0.043,-0.11435 0.002,-0.0053 0.00467,-0.01126 0.00667,-0.01718 0.001,-0.0041 0.00267,-0.0071 0.004,-0.01126 0.00267,-0.0065 0.005,-0.01244 0.00733,-0.01896 0.00233,-0.0065 0.00567,-0.01481 0.00867,-0.02074 0.00267,-0.0083 0.00533,-0.01481 0.008,-0.02251 0.012333,-0.02903 0.024333,-0.05806 0.037,-0.08769 0.012333,-0.02903 0.024667,-0.05866 0.037667,-0.08769 6.667e-4,-5.92e-4 0.00133,-0.003 0.002,-0.0041 0.00167,-0.0036 0.00333,-0.0071 0.00533,-0.01067 0.006,-0.01422 0.012667,-0.02844 0.019,-0.04207 0.001,-0.0018 0.00133,-0.0036 0.00233,-0.0053 3.333e-4,-0.0018 10e-4,-0.003 0.002,-0.0041 0.003,-0.0065 0.00567,-0.01244 0.00833,-0.01955 0.012,-0.02488 0.023333,-0.04918 0.035333,-0.07347 0.008,-0.01718 0.016333,-0.03377 0.024333,-0.05036 0.00167,-0.0036 0.00333,-0.0065 0.005,-0.01007 0.002,-0.0047 0.00367,-0.0083 0.00633,-0.01244 0.011667,-0.02429 0.023667,-0.04799 0.036333,-0.07228 0.008,-0.01541 0.016333,-0.03081 0.025,-0.04681 0.00167,-0.003 0.00333,-0.0059 0.005,-0.0095 0.00267,-0.0041 0.00533,-0.0095 0.008,-0.01481 0.006,-0.01185 0.012333,-0.02251 0.019,-0.03436 0.002,-0.0041 0.00467,-0.0089 0.007,-0.01244 0.00267,-0.0053 0.006,-0.01126 0.00867,-0.016 0.012,-0.02074 0.023667,-0.04147 0.035667,-0.0628 0.012,-0.02074 0.024,-0.04088 0.036333,-0.06221 0.008,-0.01244 0.015667,-0.02548 0.024,-0.03851 0.002,-0.0041 0.00467,-0.0077 0.00733,-0.01185 0.00167,-0.003 0.00367,-0.0065 0.006,-0.01007 0.001,-0.0018 0.00267,-0.0036 0.00333,-0.0053 6.667e-4,-0.0018 0.00133,-0.0024 0.002,-0.0041 10e-4,-0.0012 0.002,-0.0024 0.00267,-0.003 0.00867,-0.01422 0.018,-0.02903 0.027,-0.04325 0.011667,-0.01896 0.024,-0.03733 0.036333,-0.0551 0.012,-0.01837 0.024333,-0.03673 0.036333,-0.05451 0.001,-5.92e-4 0.001,-5.92e-4 0.001,-0.0018 0.00167,-0.0012 0.00267,-0.003 0.00333,-0.0041 0.011667,-0.01659 0.022,-0.03199 0.033667,-0.0474 0.011333,-0.01659 0.022667,-0.03259 0.034667,-0.04918 3.333e-4,0 10e-4,-0.0012 0.00167,-0.0018 0.011667,-0.01659 0.024,-0.03377 0.036,-0.04918 0.00533,-0.0071 0.010667,-0.01363 0.015667,-0.02014 0.00267,-0.003 0.00467,-0.0065 0.00767,-0.0095 0.00433,-0.0059 0.009,-0.01185 0.014,-0.01837 0.012667,-0.016 0.025333,-0.03259 0.038,-0.04799 0.00633,-0.0083 0.012333,-0.01541 0.019333,-0.02429 0.00633,-0.0077 0.013,-0.01541 0.019667,-0.0237 0.00633,-0.0071 0.013,-0.0154 0.019667,-0.0237 0.00633,-0.0077 0.012667,-0.01481 0.019667,-0.02311 0.006,-0.0077 0.012333,-0.01422 0.018667,-0.02192 0.00667,-0.0071 0.013,-0.01422 0.019333,-0.02192 0.006,-0.0065 0.012667,-0.01363 0.019,-0.02074 0.00633,-0.0071 0.012,-0.01422 0.018667,-0.02192 0.012667,-0.01363 0.025667,-0.02666 0.038667,-0.04147 0.00733,-0.0077 0.014667,-0.01481 0.022,-0.0237 0.003,-0.0024 0.00533,-0.0053 0.008,-0.0077 0.003,-0.003 0.006,-0.0065 0.00867,-0.0095 0.013333,-0.01363 0.026,-0.02666 0.039667,-0.0397 0.013,-0.01244 0.026333,-0.02548 0.039333,-0.03851 0.013,-0.01303 0.027,-0.02488 0.040333,-0.03792 0.00267,-0.0018 0.00567,-0.0047 0.00867,-0.0077 0.00233,-0.0024 0.005,-0.0047 0.008,-0.0071 0.00767,-0.0071 0.015333,-0.01422 0.023667,-0.02192 0.013,-0.01185 0.027,-0.02429 0.040667,-0.03614 0.013,-0.01185 0.026667,-0.02311 0.040333,-0.03436 0.012667,-0.01007 0.025,-0.02133 0.038,-0.03081 0,0 0,0 0,-5.92e-4 0.00133,-5.93e-4 0.00267,-0.0012 0.004,-0.003 0.014,-0.01126 0.028333,-0.02251 0.041667,-0.03259 0.014333,-0.01126 0.028,-0.02192 0.042333,-0.03259 0.014,-0.01007 0.028,-0.02074 0.042333,-0.03081 0.00533,-0.0036 0.010667,-0.0077 0.015333,-0.01126 0.003,-0.0018 0.00633,-0.0041 0.009,-0.0065 0.00633,-0.0041 0.012667,-0.0095 0.019333,-0.01304 0.014667,-0.01007 0.029,-0.02014 0.044,-0.02962 0.014333,-0.0095 0.029333,-0.01955 0.044,-0.02785 0.013333,-0.0083 0.027,-0.016 0.040333,-0.02489 0,0 6.667e-4,-5.92e-4 3.333e-4,-5.92e-4 0.001,0 0.00233,-0.0012 0.003,-0.0012 0.016,-0.01007 0.031333,-0.01896 0.047,-0.02726 0.015667,-0.0089 0.032,-0.01777 0.047333,-0.02607 0.015333,-0.0089 0.031333,-0.01718 0.047333,-0.02488 0.00233,-0.0012 0.00467,-0.0018 0.007,-0.0041 0.00267,-5.93e-4 0.00533,-0.0024 0.00767,-0.0036 0.010667,-0.0053 0.021333,-0.01066 0.032333,-0.01659 0.017,-0.0083 0.034,-0.0154 0.051333,-0.0237 0.017333,-0.0083 0.034667,-0.016 0.051667,-0.02311 0.00367,-0.0012 0.00833,-0.0036 0.012667,-0.0041 0.00333,-0.0018 0.00733,-0.0036 0.010667,-0.0047 0.00933,-0.0041 0.019667,-0.0083 0.029,-0.01244 0.017333,-0.0071 0.034667,-0.01303 0.052,-0.01955 0.019333,-0.0071 0.038,-0.01363 0.057333,-0.02014 0.003,-5.93e-4 0.00667,-0.0012 0.00967,-0.003 0.00133,0 0.00333,-5.92e-4 0.00467,-0.0012 0.00267,-0.0012 0.00467,-0.0012 0.00733,-0.0024 0.011667,-0.0036 0.024,-0.0083 0.036,-0.01244 0.019333,-0.0053 0.038667,-0.01067 0.058,-0.016 0.018667,-0.0053 0.037667,-0.01007 0.057,-0.01481 0.002,0 0.004,-5.93e-4 0.00633,-5.93e-4 0.020333,-0.0059 0.041,-0.01007 0.062,-0.01422 0.022,-0.0047 0.044333,-0.0089 0.067,-0.01303 0.007,-0.0012 0.014333,-0.0018 0.021333,-0.0036 0.005,0 0.01,-0.0012 0.014667,-0.0018 0.010333,-0.0018 0.020667,-0.0036 0.031,-0.0047 0.021667,-0.0024 0.044667,-0.0065 0.067333,-0.0083 0.014333,-0.0018 0.029667,-0.0024 0.044667,-0.0036 0.00667,0 0.013333,-0.0012 0.019667,-0.0012 0.00667,0 0.013,-0.0012 0.02,-0.0018 0.028333,-0.0012 0.056333,-0.003 0.084,-0.0036 0.013333,0 0.026333,5.93e-4 0.039333,5.93e-4 0.00633,0 0.013,0 0.02,-5.93e-4 0.00833,5.93e-4 0.017,5.93e-4 0.025,0.0012 0.028333,5.93e-4 0.056667,0.0018 0.084333,0.0036 0.00633,5.93e-4 0.013,0.0012 0.019333,0.0018 0.041667,0.003 0.083333,0.0083 0.1253335,0.01422 0.013667,0.0018 0.028,0.0024 0.042,0.0041 0.003,5.92e-4 0.006,0.0012 0.00867,0.0012 0.059,0.01007 0.1170001,0.02192 0.1753335,0.03673 6.667e-4,0 0.00133,0 0.002,5.93e-4 0.00633,0.0012 0.012333,0.003 0.018333,0.0053 0.046,0.01244 0.092,0.02488 0.1380001,0.0391 0.00533,0.0024 0.010667,0.0047 0.016667,0.0065 0.004,0.0012 0.008,0.0018 0.012,0.003 0.015,0.0059 0.03,0.01244 0.044667,0.01778 0.038667,0.01363 0.076667,0.02844 0.1146668,0.04384 0.00767,0.0036 0.016333,0.0071 0.024333,0.01007 0.009,0.0036 0.017667,0.0083 0.026667,0.01244 0.009,0.0041 0.017333,0.0083 0.026333,0.01244 0.00867,0.0036 0.017667,0.0077 0.026667,0.01244 0.00867,0.0036 0.017,0.0089 0.025667,0.01303 0.058,0.02785 0.1150001,0.06043 0.1723335,0.09421 0.004,0.0024 0.00833,0.0041 0.012667,0.0065 0.013667,0.0077 0.026667,0.01778 0.040667,0.02607 0.038667,0.0237 0.077333,0.04918 0.1153334,0.07524 0.008,0.0053 0.016667,0.01067 0.024,0.016 0.013,0.0083 0.025333,0.01896 0.037667,0.02844 0.036,0.02666 0.071,0.05273 0.1060001,0.08117 0.011,0.0089 0.022333,0.016 0.033333,0.02488 0.00933,0.0077 0.018333,0.01718 0.027667,0.02488 0.035,0.02962 0.069667,0.06103 0.1046668,0.09243 0.013667,0.01185 0.026333,0.02251 0.04,0.03496 0.010333,0.0089 0.020667,0.02014 0.031,0.02903 0.00633,0.0065 0.012667,0.01304 0.019,0.01896 0.00767,0.0077 0.015667,0.01481 0.023667,0.02311 0.024667,0.02429 0.049,0.04918 0.073,0.07465 0.009,0.0095 0.01733,0.01837 0.02567,0.02725 0.0033,0.0036 0.007,0.0065 0.01,0.01007 0.0037,0.0036 0.007,0.0083 0.01033,0.01185 0.0087,0.0095 0.01733,0.01896 0.02633,0.02844 0.02367,0.02607 0.04767,0.05332 0.07033,0.08058 0.008,0.0095 0.01567,0.01837 0.02333,0.02785 0.0043,0.0047 0.009,0.01007 0.01333,0.016 0.0067,0.0077 0.01267,0.01422 0.01933,0.02192 0.01833,0.02311 0.03667,0.04621 0.055,0.06873 0.017,0.02192 0.03433,0.04444 0.05167,0.06695 10e-4,5.93e-4 0.0017,0.0018 0.0023,0.003 0.01767,0.02429 0.03567,0.0474 0.05333,0.07228 0.01533,0.02074 0.03,0.04147 0.046,0.0634 0.0073,0.01185 0.01533,0.0237 0.02333,0.03555 0.0033,0.0047 0.0067,0.0095 0.0093,0.01304 0.004,0.0053 0.008,0.01126 0.01133,0.01659 0.015,0.02192 0.03,0.04325 0.04467,0.06577 0.01433,0.02251 0.02933,0.04503 0.04367,0.06873 0.006,0.0095 0.01233,0.01896 0.018,0.02844 0.0017,0.003 0.0033,0.0059 0.0057,0.0083 0.005,0.0089 0.01067,0.01718 0.01533,0.02548 0.01333,0.02192 0.026,0.04266 0.039,0.06458 0.01267,0.02192 0.02533,0.04325 0.03833,0.06458 0.0067,0.01244 0.01333,0.02429 0.01967,0.03555 0.0023,0.0041 0.005,0.0089 0.0073,0.01244 0.0033,0.0065 0.0067,0.01244 0.01033,0.01837 0.01167,0.02074 0.023,0.04207 0.03433,0.0628 0.01167,0.02133 0.023,0.04266 0.03433,0.06458 0.011,0.02133 0.02233,0.04325 0.03333,0.06517 0.011,0.02133 0.022,0.04266 0.033,0.06517 0.01033,0.02074 0.02067,0.04147 0.03067,0.0628 0.01033,0.02192 0.02033,0.04266 0.03067,0.06458 0.0037,0.0077 0.0073,0.0154 0.01033,0.0237 0.0013,0.0018 0.002,0.0041 0.003,0.0065 0.006,0.01185 0.01067,0.0237 0.016,0.03555 0.0097,0.02192 0.01967,0.04384 0.02933,0.06517 0.0047,0.01126 0.0093,0.02192 0.014,0.03259 0.0047,0.01067 0.009,0.02192 0.01367,0.03259 0.0047,0.01067 0.0097,0.02133 0.01367,0.03199 0.0047,0.01066 0.009,0.02251 0.014,0.03318 0.0047,0.01126 0.0093,0.02251 0.01367,0.03377 0.005,0.01126 0.0093,0.02251 0.014,0.03436 0.0047,0.01126 0.009,0.02251 0.014,0.03377 0.0043,0.01126 0.0087,0.02251 0.013,0.03377 0.0087,0.02251 0.017,0.04444 0.02533,0.06636 0.005,0.01126 0.009,0.02251 0.013,0.03496 6.67e-4,0.0018 0.0017,0.0036 0.002,0.0065 0.0037,0.0077 0.007,0.01718 0.01033,0.02607 0.0083,0.02192 0.01633,0.04444 0.024,0.06754 0.008,0.02251 0.01567,0.04503 0.02333,0.06754 0.0013,0.0036 0.0023,0.0065 0.004,0.0095 0,0.0024 6.67e-4,0.0041 0.0017,0.0059 0.006,0.01778 0.012,0.03496 0.01733,0.05214 0.0013,0.003 0.002,0.0065 0.003,0.01007 6.67e-4,0.0018 0.0017,0.0036 0.0023,0.0053 0.006,0.01718 0.01167,0.03496 0.01733,0.05273 0.007,0.02251 0.01467,0.04503 0.02133,0.06814 0.002,0.0065 0.004,0.01244 0.006,0.01837 3.34e-4,0.0012 6.67e-4,0.0024 10e-4,0.0036 0.0047,0.01659 0.0097,0.03081 0.014,0.04681 0.0053,0.01718 0.01067,0.03496 0.01533,0.05214 6.66e-4,0.0012 0.0013,0.003 0.0023,0.0047 6.67e-4,0.0047 0.002,0.0089 0.0033,0.01303 0.0067,0.0237 0.01367,0.0474 0.02,0.07051 0.0023,0.0077 0.004,0.01541 0.0063,0.02311 6.66e-4,0.0012 6.66e-4,0.003 6.66e-4,0.0036 0,5.93e-4 3.34e-4,0.0018 6.67e-4,0.0024 0.0037,0.01363 0.0077,0.02844 0.012,0.04207 0.006,0.0237 0.012,0.04799 0.01867,0.07228 10e-4,0.0059 0.0033,0.01244 0.0053,0.01896 3.33e-4,0.0036 0.0013,0.0059 0.0017,0.0089 0.004,0.01481 0.0077,0.03022 0.01133,0.04503 0.006,0.02429 0.012,0.04918 0.018,0.07347 0.0057,0.02488 0.01167,0.04918 0.01733,0.07406 0.0043,0.01778 0.008,0.03614 0.012,0.05392 3.34e-4,0.0024 10e-4,0.0041 0.0017,0.0071 6.67e-4,0.0041 0.002,0.0083 0.0027,0.01303 0.0017,0.0071 0.003,0.01541 0.0053,0.02311 3.33e-4,0.0018 10e-4,0.0041 0.0013,0.0065 0.003,0.016 0.0067,0.03199 0.01,0.04799 0.0057,0.02548 0.011,0.05155 0.016,0.07762 0.0053,0.02548 0.01,0.05155 0.01533,0.07762 0,0.0018 10e-4,0.0041 6.66e-4,0.0065 6.67e-4,5.93e-4 6.67e-4,0.003 10e-4,0.0041 0.0043,0.02311 0.008,0.04503 0.01233,0.06695 0.0053,0.02844 0.01067,0.05688 0.01467,0.08591 0.0043,0.02251 0.008,0.04681 0.012,0.06991 0,5.92e-4 3.34e-4,0.0018 3.34e-4,0.0024 0,0.0012 0,0.0018 0,0.0024 6.66e-4,0.0024 0.0013,0.0059 0.0017,0.0095 6.66e-4,0.0047 0.0017,0.0095 0.0023,0.01422 3.33e-4,0.0047 6.67e-4,0.0071 0.002,0.01126 0.0027,0.01955 0.0057,0.0397 0.0087,0.05984 0.004,0.02844 0.0077,0.05629 0.01167,0.08473 0.0047,0.03199 0.0087,0.0628 0.01267,0.09421 3.33e-4,0.0041 10e-4,0.0083 0.0013,0.01244 3.34e-4,5.93e-4 6.67e-4,0.0012 6.67e-4,0.0024 0,0.0012 3.33e-4,0.0024 3.33e-4,0.0036 0.003,0.02488 0.006,0.04977 0.0087,0.07465 0.0027,0.02488 0.006,0.04918 0.008,0.07347 3.33e-4,0.0024 3.33e-4,0.0041 10e-4,0.0059 0,0.0047 6.67e-4,0.01066 0.0013,0.01481 0.0027,0.02725 0.0053,0.05451 0.008,0.08236 0,0.0018 3.34e-4,0.0041 3.34e-4,0.0059 3.33e-4,0.0018 0,0.003 3.33e-4,0.0053 0.0037,0.03673 0.0067,0.07288 0.0097,0.108425 0.0023,0.03673 0.0053,0.07288 0.008,0.109018 0,0.0095 6.66e-4,0.01836 0.0013,0.02666 0,0.007 6.67e-4,0.013 0.001,0.019 0.0013,0.0213 0.0027,0.0421 0.004,0.0622 0,0.003 0,0.005 3.33e-4,0.008 0,5.9e-4 0,0.002 0,0.003 0,0.001 0,0.002 3.34e-4,0.003 0.0013,0.0314 0.003,0.0628 0.0043,0.0942 10e-4,0.0195 10e-4,0.0385 0.0023,0.0581 0,0.0124 3.34e-4,0.0243 10e-4,0.0361 3.34e-4,0.013 0.0013,0.0279 0.0013,0.0415 0.0013,0.0444 0.002,0.0895 0.0023,0.13508 3.33e-4,0.016 3.33e-4,0.0326 0,0.0492 3.33e-4,0.008 6.67e-4,0.016 6.67e-4,0.0243 0,0.004 0,0.008 0,0.0124 0,0.016 3.33e-4,0.0326 0,0.0492 -3.34e-4,0.0444 -6.67e-4,0.0883 -0.0017,0.1339 -3.33e-4,0.0166 -6.67e-4,0.0326 -0.0013,0.0498 0,0.003 0,0.006 0,0.008 3.33e-4,0.001 0,0.004 0,0.005 -6.67e-4,0.0207 -0.001,0.0421 -0.0017,0.0616 -6.67e-4,0.0219 -0.0013,0.0421 -0.0027,0.0634 -6.66e-4,0.0207 -0.0017,0.0409 -0.0027,0.0622 -0.01367,0.2761 -0.027,0.5522 -0.041,0.8283 -6.67e-4,0.009 -0.0013,0.019 -0.002,0.029 -0.0027,0.0592 -0.0073,0.11909 -0.012,0.17834 -0.002,0.0279 -0.0033,0.0551 -0.0057,0.0824 -3.33e-4,0.005 -6.67e-4,0.0107 -0.001,0.0154 -0.0067,0.0764 -0.01433,0.15405 -0.02333,0.22988 -0.0013,0.0119 -0.002,0.0231 -0.0037,0.035 3.33e-4,0 0,0.002 0,0.002 0,0 0,5.9e-4 0,0.001 -3.33e-4,0.002 -3.33e-4,0.003 -3.33e-4,0.005 -0.002,0.0142 -0.0043,0.0279 -0.0057,0.0421 -0.0087,0.0729 -0.018,0.14398 -0.029,0.21626 -0.001,0.007 -0.0023,0.0148 -0.0037,0.0231 -0.004,0.0272 -0.0097,0.0551 -0.014,0.0835 -0.005,0.0284 -0.009,0.0563 -0.014,0.0853 0.0073,0.0136 0.01433,0.0272 0.02167,0.0409 0.017,0.0338 0.034,0.0681 0.05067,0.1025 0.01733,0.0344 0.03367,0.0693 0.05033,0.10309 0.0053,0.0113 0.01033,0.0225 0.01533,0.0344 0.0027,0.005 0.006,0.0107 0.0087,0.016 0.0083,0.0196 0.01667,0.0367 0.025,0.0557 0.01633,0.035 0.03267,0.0699 0.04867,0.10605 0.008,0.0172 0.016,0.0344 0.023,0.0516 0.0077,0.0172 0.01567,0.0344 0.02333,0.0515 0.0073,0.0178 0.01533,0.0344 0.023,0.0521 0.0073,0.0178 0.015,0.0355 0.02233,0.0527 0.0077,0.0184 0.015,0.0367 0.023,0.0551 0.0073,0.0178 0.01467,0.0361 0.02267,0.0545 0.007,0.0178 0.015,0.0367 0.02267,0.0545 0.007,0.0184 0.01433,0.0373 0.022,0.0551 0.0097,0.0249 0.01933,0.0492 0.02867,0.0735 0.002,0.005 0.004,0.0101 0.0057,0.0154 0.0023,0.006 0.005,0.0124 0.0073,0.019 0.0067,0.0166 0.013,0.0338 0.01967,0.051 0.0023,0.005 0.0043,0.0113 0.0063,0.016 0.005,0.0136 0.01033,0.0261 0.01533,0.0397 0.01367,0.0356 0.02667,0.0729 0.03933,0.10842 0.0067,0.0184 0.01333,0.0356 0.01967,0.0539 0.0027,0.007 0.005,0.0136 0.0073,0.0207 0.004,0.0107 0.008,0.0225 0.012,0.0332 0.013,0.0367 0.02567,0.0723 0.03767,0.10961 0.0013,0.005 0.0037,0.0107 0.0053,0.0166 10e-4,0.002 0.0017,0.004 0.0023,0.007 0.0097,0.029 0.01967,0.0593 0.029,0.0871 0.0037,0.0124 0.0083,0.0249 0.01233,0.0379 0.002,0.007 0.0043,0.0124 0.0063,0.019 0.0057,0.0184 0.01133,0.0356 0.017,0.0533 0.01167,0.0367 0.023,0.0729 0.03433,0.10961 0.0083,0.0267 0.01667,0.0539 0.02433,0.0806 6.67e-4,0.004 0.0023,0.007 0.0033,0.0113 0.002,0.007 0.004,0.0142 0.0063,0.0213 0.0023,0.007 0.0043,0.0154 0.0067,0.0219 3.33e-4,0.001 10e-4,0.003 10e-4,0.004 0.001,0.002 0.001,0.004 0.002,0.007 0.0077,0.0267 0.01567,0.0533 0.02333,0.0806 0.011,0.0373 0.02133,0.0758 0.032,0.11376 0.01033,0.0379 0.02067,0.0747 0.03033,0.11376 0.0027,0.009 0.0057,0.0184 0.0073,0.029 0.0017,0.005 0.0033,0.0101 0.0043,0.0154 0.0063,0.0243 0.01267,0.048 0.01867,0.0723 0.01,0.0385 0.01967,0.0782 0.02967,0.11672 0.0053,0.0243 0.011,0.0474 0.01667,0.0711 0.001,0.006 0.0033,0.013 0.0047,0.0196 0.0017,0.009 0.0043,0.0184 0.0063,0.0278 0.0067,0.0267 0.013,0.0545 0.01867,0.083 0.0013,0.004 0.002,0.008 0.003,0.0124 0.0017,0.008 0.0033,0.0142 0.0053,0.0213 0.009,0.0415 0.018,0.0824 0.02667,0.12324 0.0023,0.0107 0.0043,0.0201 0.0063,0.0302 0.002,0.009 0.0037,0.0178 0.0053,0.0255 0.0047,0.0231 0.0093,0.0462 0.014,0.0681 0.0083,0.0409 0.01667,0.0829 0.02433,0.12383 0,0.002 6.66e-4,0.004 10e-4,0.008 6.66e-4,0.002 0.0017,0.007 0.002,0.009 0.006,0.0302 0.01167,0.061 0.017,0.0906 3.33e-4,0.002 3.33e-4,0.004 10e-4,0.007 3.33e-4,5.9e-4 0,0.001 0,0.002 3.33e-4,0.002 0.001,0.006 0.0013,0.008 0.0013,0.008 0.0027,0.016 0.0043,0.0249 l 1.112667,0.23818 c 0.285667,-0.78446 0.797668,-1.31355 1.387668,-1.31355 0.590001,0 1.102002,0.52909 1.387669,1.31355 l 1.113001,-0.23818 c 0.0017,-0.008 0.0027,-0.0166 0.0043,-0.0249 3.33e-4,-0.002 0.001,-0.005 6.67e-4,-0.008 0.001,-5.9e-4 6.66e-4,-0.002 6.66e-4,-0.003 3.34e-4,-0.002 0.0017,-0.005 0.001,-0.006 0.0057,-0.0302 0.012,-0.0604 0.01767,-0.0907 0,-0.002 6.67e-4,-0.006 6.67e-4,-0.009 0.0017,-0.002 0.0017,-0.006 0.002,-0.008 0.0077,-0.0415 0.016,-0.0824 0.02433,-0.12324 0.0047,-0.0231 0.0097,-0.0456 0.01433,-0.0693 0.0017,-0.008 0.0033,-0.0166 0.0053,-0.0249 0.0023,-0.009 0.0037,-0.0207 0.0063,-0.0302 0.0083,-0.0409 0.01767,-0.0818 0.02667,-0.12324 0.0013,-0.007 0.0033,-0.0148 0.0047,-0.0213 0.0013,-0.004 0.0027,-0.009 0.0033,-0.0124 0.007,-0.029 0.012,-0.0563 0.01933,-0.0835 0.002,-0.009 0.0047,-0.0184 0.0067,-0.029 0.0013,-0.005 0.0033,-0.0118 0.0047,-0.0184 0.0053,-0.0237 0.011,-0.0468 0.01633,-0.0711 0.0097,-0.0385 0.02,-0.0782 0.02933,-0.11731 0.007,-0.0243 0.01267,-0.048 0.01933,-0.0723 0.0013,-0.005 0.002,-0.0107 0.004,-0.0154 0.0027,-0.0101 0.0047,-0.0195 0.007,-0.0296 0.01,-0.0373 0.021,-0.0752 0.032,-0.11317 0.0093,-0.0379 0.02,-0.0758 0.031,-0.11435 0.0073,-0.0267 0.01567,-0.0533 0.02333,-0.08 3.33e-4,-0.002 10e-4,-0.005 0.0023,-0.007 3.34e-4,-0.001 6.67e-4,-0.003 0.001,-0.005 0.0023,-0.007 0.0043,-0.0142 0.0067,-0.0219 0.0023,-0.007 0.0043,-0.0142 0.0063,-0.0207 0.0017,-0.005 0.003,-0.008 0.0033,-0.0124 0.008,-0.0255 0.01567,-0.0533 0.024,-0.08 0.01167,-0.0367 0.023,-0.0735 0.03467,-0.11079 0.0057,-0.0172 0.011,-0.0356 0.01733,-0.0527 0.0023,-0.007 0.004,-0.0119 0.006,-0.019 0.0043,-0.0124 0.008,-0.0255 0.012,-0.0379 0.0097,-0.0284 0.01933,-0.0587 0.02933,-0.0871 3.33e-4,-0.003 0.0017,-0.005 0.002,-0.007 0.002,-0.005 0.0037,-0.0107 0.006,-0.0154 0.01233,-0.0367 0.02467,-0.0729 0.03767,-0.10902 0.0037,-0.0118 0.0077,-0.0231 0.01167,-0.0344 0.0023,-0.007 0.005,-0.013 0.0077,-0.0201 0.006,-0.019 0.012,-0.0367 0.019,-0.0545 0.013,-0.0361 0.02667,-0.0717 0.04,-0.10843 0.0053,-0.0136 0.0093,-0.0267 0.01533,-0.0397 0.002,-0.005 0.004,-0.0113 0.0067,-0.0172 0.006,-0.0172 0.01233,-0.0344 0.019,-0.0504 0.003,-0.007 0.0053,-0.013 0.0077,-0.0184 0.002,-0.005 0.0037,-0.0107 0.006,-0.0154 0.009,-0.0249 0.01933,-0.0498 0.02867,-0.0735 0.0073,-0.019 0.01467,-0.0367 0.02233,-0.0557 0.007,-0.0184 0.014,-0.0367 0.022,-0.0545 0.0073,-0.0184 0.01433,-0.0367 0.02267,-0.0551 0.007,-0.0184 0.01533,-0.0367 0.023,-0.0545 0.007,-0.0178 0.01433,-0.0356 0.022,-0.0521 0.007,-0.0184 0.015,-0.0356 0.02267,-0.0527 0.007,-0.0184 0.015,-0.035 0.02267,-0.0521 0.008,-0.0172 0.015,-0.0356 0.02333,-0.0515 0.01567,-0.0362 0.03167,-0.0717 0.04833,-0.10665 0.008,-0.0184 0.01633,-0.0361 0.025,-0.0545 0.0027,-0.005 0.005,-0.0113 0.0077,-0.0172 0.006,-0.0107 0.011,-0.0225 0.016,-0.0338 0.017,-0.0338 0.03367,-0.0687 0.05033,-0.1025 0.01733,-0.035 0.03433,-0.0699 0.05067,-0.1031 0.007,-0.013 0.014,-0.0273 0.02133,-0.0415 -0.0047,-0.0273 -0.0093,-0.0563 -0.01367,-0.0835 -0.005,-0.029 -0.01,-0.0569 -0.014,-0.0841 -0.0013,-0.009 -0.002,-0.0154 -0.0043,-0.0243 -0.01,-0.0711 -0.01933,-0.14279 -0.029,-0.21507 -0.0013,-0.0136 -0.003,-0.0279 -0.0057,-0.0421 0,-0.002 -6.66e-4,-0.004 0,-0.005 0,0 -6.66e-4,-0.001 -6.66e-4,-0.002 0,-6e-4 0,-0.002 0,-0.002 -0.0013,-0.0113 -0.0017,-0.0225 -0.004,-0.0344 -0.0083,-0.0764 -0.01533,-0.15345 -0.02233,-0.23048 -6.66e-4,-0.005 -0.002,-0.0107 -0.0013,-0.0148 -0.003,-0.0278 -0.0043,-0.0551 -0.006,-0.0823 -0.005,-0.0604 -0.009,-0.11909 -0.01233,-0.17893 3.33e-4,-0.0101 -10e-4,-0.019 -10e-4,-0.0284 -0.01367,-0.2761 -0.028,-0.55279 -0.04133,-0.8283 -10e-4,-0.0207 -0.002,-0.0415 -0.0027,-0.0622 -6.67e-4,-0.0207 -0.0017,-0.0415 -0.002,-0.0628 -6.67e-4,-0.0201 -0.0023,-0.0415 -0.0023,-0.0616 -3.33e-4,-0.002 0,-0.003 -3.33e-4,-0.005 0,-0.002 3.33e-4,-0.005 -6.67e-4,-0.008 -3.33e-4,-0.0166 0,-0.0338 -0.001,-0.0498 -10e-4,-0.045 -10e-4,-0.0895 -0.002,-0.1345 0,-0.016 6.67e-4,-0.0326 3.34e-4,-0.0492 3.33e-4,-0.004 3.33e-4,-0.008 3.33e-4,-0.0118 -3.33e-4,-0.008 -3.33e-4,-0.016 0,-0.0243 -3.33e-4,-0.016 -3.33e-4,-0.0332 3.33e-4,-0.0492 6.67e-4,-0.0444 0.0013,-0.0901 0.002,-0.13449 0.0013,-0.0142 0.002,-0.0279 0.0027,-0.0415 3.33e-4,-0.0124 3.33e-4,-0.0243 0.001,-0.0361 0,-0.0196 6.67e-4,-0.0391 0.002,-0.0581 0.0013,-0.0308 0.0027,-0.0622 0.0047,-0.0936 -3.34e-4,-0.001 -6.67e-4,-0.002 -6.67e-4,-0.004 3.33e-4,-6e-4 6.67e-4,-0.001 0.001,-0.002 -3.33e-4,-0.004 0,-0.006 -3.33e-4,-0.008 0.001,-0.0213 0.0027,-0.0415 0.004,-0.0622 3.33e-4,-0.006 0.0013,-0.0124 0.002,-0.0184 0,-0.0101 6.66e-4,-0.0184 0.0013,-0.02725 0.0023,-0.03614 0.005,-0.07288 0.0077,-0.108426 0.0027,-0.03614 0.0063,-0.07287 0.009,-0.108425 3.33e-4,-0.0018 6.66e-4,-0.0036 10e-4,-0.0053 -6.67e-4,-0.0018 0,-0.0041 3.33e-4,-0.0059 0.0023,-0.02785 0.005,-0.05569 0.0073,-0.08295 6.67e-4,-0.0047 0.002,-0.01007 0.002,-0.01422 6.67e-4,-0.0018 3.34e-4,-0.0041 3.34e-4,-0.0065 0.003,-0.02429 0.0053,-0.04858 0.0077,-0.07347 0.0037,-0.02429 0.0063,-0.04977 0.0093,-0.07406 3.33e-4,-0.0012 3.33e-4,-0.0024 6.66e-4,-0.0036 0,-5.93e-4 3.34e-4,-0.0018 6.67e-4,-0.003 0,-0.0041 6.67e-4,-0.0083 0.001,-0.01244 0.0037,-0.03199 0.0073,-0.0628 0.01267,-0.09421 0.0033,-0.02903 0.0073,-0.05688 0.012,-0.08532 0.0027,-0.02014 0.006,-0.0397 0.0083,-0.05984 0.001,-0.0036 0.0017,-0.0071 0.0013,-0.01126 0.0013,-0.0047 0.002,-0.0089 0.003,-0.01363 0,-0.0036 0.0013,-0.0065 0.002,-0.0095 0,-5.93e-4 -3.33e-4,-0.0012 0,-0.0024 0,-0.0012 6.67e-4,-0.0018 6.67e-4,-0.003 0.0033,-0.0237 0.0073,-0.0474 0.01067,-0.0711 0.0057,-0.02785 0.01,-0.05629 0.01467,-0.08473 0.0047,-0.02251 0.0083,-0.04444 0.013,-0.06695 0,-0.0012 6.67e-4,-0.003 6.67e-4,-0.0041 0,-0.0024 10e-4,-0.0041 6.67e-4,-0.0071 0.0057,-0.02548 0.01067,-0.05155 0.01567,-0.07821 0.0057,-0.02548 0.01067,-0.05155 0.01567,-0.07702 0.004,-0.016 0.007,-0.03199 0.01067,-0.0474 3.33e-4,-0.0024 6.66e-4,-0.0047 0.0013,-0.0065 0.0017,-0.0077 0.0033,-0.016 0.005,-0.0237 6.67e-4,-0.0041 0.002,-0.0083 0.0027,-0.01303 6.66e-4,-0.0018 0.0017,-0.0041 0.0023,-0.0065 0.0033,-0.01837 0.007,-0.03673 0.01133,-0.05392 0.006,-0.02488 0.01167,-0.04977 0.01733,-0.07406 0.0057,-0.02488 0.01233,-0.04918 0.01833,-0.07347 0.0037,-0.01481 0.0073,-0.03022 0.011,-0.04503 6.67e-4,-0.003 0.0017,-0.0053 0.0027,-0.0089 0.0013,-0.0065 0.0027,-0.01363 0.0047,-0.02014 0.0067,-0.0237 0.013,-0.0474 0.019,-0.0711 0.004,-0.01422 0.0077,-0.02785 0.01233,-0.04207 -3.33e-4,-0.0012 0,-0.0018 0,-0.0024 6.67e-4,-5.93e-4 0.001,-0.0018 0.0013,-0.003 0.002,-0.0077 0.004,-0.01481 0.006,-0.02251 0.007,-0.0237 0.014,-0.04681 0.02033,-0.0711 0.0017,-0.0041 0.003,-0.0083 0.0043,-0.01244 3.33e-4,-0.0018 6.67e-4,-0.0036 0.0013,-0.0059 0.0057,-0.01718 0.01,-0.03496 0.01533,-0.05155 0.0047,-0.01541 0.009,-0.03081 0.01433,-0.04621 3.33e-4,-0.0018 0.001,-0.0024 0.0017,-0.0036 0.0013,-0.0059 0.0033,-0.01244 0.0053,-0.01896 0.0077,-0.02311 0.01433,-0.04621 0.022,-0.06873 0.0057,-0.01778 0.011,-0.03496 0.017,-0.05214 6.67e-4,-0.0018 0.0013,-0.0036 0.002,-0.0059 0.0013,-0.0024 0.002,-0.0065 0.0033,-0.01007 0.006,-0.01778 0.01167,-0.03496 0.01733,-0.05273 0.0013,-0.0018 0.0017,-0.0036 0.003,-0.0053 6.66e-4,-0.0036 0.002,-0.0065 0.0027,-0.01007 0.0077,-0.02311 0.01567,-0.04562 0.02333,-0.06754 0.0083,-0.02251 0.01667,-0.04503 0.02433,-0.06754 0.0037,-0.0089 0.007,-0.01718 0.01,-0.02607 0.001,-0.0018 0.0013,-0.0041 0.0027,-0.0059 0.0037,-0.01185 0.008,-0.0237 0.01267,-0.03555 0.008,-0.02133 0.017,-0.04384 0.02533,-0.06636 0.0043,-0.01185 0.008,-0.02251 0.01367,-0.03377 0.004,-0.01185 0.0087,-0.02311 0.01333,-0.03437 0.005,-0.01185 0.0083,-0.02311 0.013,-0.03436 0.005,-0.01126 0.0097,-0.02251 0.01433,-0.03377 0.0047,-0.01126 0.0093,-0.02251 0.01367,-0.03259 0.005,-0.01126 0.0093,-0.02192 0.01367,-0.03259 0.0047,-0.01126 0.0097,-0.02192 0.01367,-0.03259 0.005,-0.01007 0.0097,-0.02133 0.01367,-0.03259 0.01033,-0.02192 0.02067,-0.04325 0.03033,-0.06517 0.005,-0.01244 0.01033,-0.0237 0.016,-0.03555 6.67e-4,-0.0024 0.002,-0.0047 0.003,-0.0065 0.004,-0.0077 0.0073,-0.01541 0.01067,-0.02311 0.01033,-0.02133 0.02,-0.04266 0.03,-0.06458 0.01033,-0.02133 0.021,-0.04207 0.03133,-0.0628 0.011,-0.02251 0.022,-0.04444 0.033,-0.06577 0.01067,-0.02251 0.022,-0.04384 0.03433,-0.06517 0.01067,-0.02192 0.02167,-0.04325 0.03333,-0.06399 0.01167,-0.02133 0.02367,-0.04207 0.035,-0.0628 0.0033,-0.0059 0.007,-0.01244 0.0097,-0.01837 0.0023,-0.0041 0.0057,-0.0083 0.0077,-0.01244 0.007,-0.01185 0.013,-0.02429 0.02033,-0.03555 0.012,-0.02192 0.02467,-0.04384 0.03733,-0.06517 0.013,-0.02192 0.02567,-0.04266 0.039,-0.06399 0.0053,-0.0089 0.01067,-0.01718 0.01533,-0.02548 0.0023,-0.003 0.0043,-0.0059 0.0063,-0.0095 0.0063,-0.0095 0.01167,-0.01896 0.01733,-0.02903 0.015,-0.02251 0.02967,-0.04444 0.04433,-0.06754 0.01433,-0.02311 0.029,-0.04444 0.04433,-0.06636 0.0037,-0.0053 0.0073,-0.01185 0.011,-0.01659 0.0037,-0.0036 0.007,-0.0089 0.009,-0.01363 0.0083,-0.01126 0.01667,-0.02311 0.02433,-0.03496 0.015,-0.02192 0.03033,-0.04207 0.04567,-0.06399 0.01767,-0.02429 0.03533,-0.04799 0.05367,-0.0711 0.001,-5.92e-4 0.0013,-0.0024 0.002,-0.003 0.01767,-0.02251 0.03433,-0.04562 0.052,-0.06695 0.01833,-0.02311 0.036,-0.04562 0.05433,-0.06814 0.0067,-0.0083 0.013,-0.01422 0.02,-0.02311 0.0037,-0.0053 0.008,-0.01126 0.01267,-0.01541 0.0073,-0.0095 0.01567,-0.01896 0.02267,-0.02785 0.024,-0.02666 0.04733,-0.05392 0.072,-0.07999 0.0083,-0.01007 0.01667,-0.01955 0.02567,-0.02844 0.0033,-0.0036 0.007,-0.0077 0.0097,-0.01244 0.004,-0.0036 0.007,-0.0065 0.0097,-0.01007 0.009,-0.0089 0.01767,-0.01837 0.026,-0.02785 0.02433,-0.02488 0.049,-0.05036 0.07333,-0.07465 0.0077,-0.0083 0.016,-0.01481 0.02367,-0.02311 0.007,-0.0065 0.013,-0.01244 0.02,-0.01896 0.01,-0.01007 0.02033,-0.02074 0.03033,-0.02962 0.01367,-0.01244 0.02733,-0.02251 0.04033,-0.03496 0.03467,-0.03199 0.06933,-0.0628 0.104333,-0.09184 0.0093,-0.0083 0.019,-0.01659 0.02833,-0.02429 0.01033,-0.0095 0.02167,-0.01659 0.033,-0.02548 0.03467,-0.02785 0.07,-0.05451 0.105666,-0.08117 0.01233,-0.0095 0.025,-0.01955 0.03767,-0.02844 0.008,-0.0053 0.01633,-0.01007 0.02367,-0.016 0.03867,-0.02548 0.077,-0.05095 0.116,-0.07465 0.014,-0.0089 0.02733,-0.01837 0.041,-0.02607 0.004,-0.0024 0.008,-0.0047 0.012,-0.0071 0.05733,-0.03377 0.114667,-0.06517 0.172333,-0.09421 0.009,-0.0047 0.01767,-0.0089 0.02533,-0.01303 0.0093,-0.0041 0.01833,-0.0089 0.02633,-0.01244 0.01,-0.0036 0.01833,-0.0077 0.02733,-0.01185 0.009,-0.0041 0.01733,-0.0089 0.02667,-0.01244 0.007,-0.003 0.01633,-0.0053 0.024,-0.0095 0.03733,-0.01659 0.07633,-0.03022 0.114,-0.04444 0.015,-0.0053 0.02967,-0.01244 0.04467,-0.01778 0.005,-0.0012 0.0087,-0.0024 0.01233,-0.0036 0.0063,-0.0018 0.01133,-0.0036 0.016,-0.0059 0.04633,-0.01481 0.09233,-0.02725 0.138001,-0.0397 0.0067,-5.92e-4 0.013,-0.0036 0.01867,-0.0053 0.001,0 0.001,-5.93e-4 0.0017,0 0.05867,-0.01481 0.117,-0.02666 0.176,-0.03614 0.0027,-5.93e-4 0.006,-0.0012 0.008,-0.0024 0.01467,-0.0012 0.02833,-0.0024 0.04267,-0.0041 0.04133,-0.0053 0.083,-0.01126 0.125667,-0.01363 0.0067,-5.92e-4 0.01233,-0.0018 0.01867,-0.0024 0.028,-0.0018 0.056,-0.0036 0.08467,-0.0041 0.0087,0 0.01733,0 0.02567,0 0.0063,0 0.01267,0 0.02,0 0.01233,0 0.026,0 0.039,0 0.02767,5.92e-4 0.05633,0.0018 0.084,0.003 0.007,0.0012 0.01333,0.0012 0.02,0.0018 0.0063,5.92e-4 0.013,5.92e-4 0.02,0.0018 0.01433,5.93e-4 0.02933,0.0012 0.04467,0.0036 0.02267,0.0024 0.045,0.0053 0.06733,0.0083 0.01033,0.0012 0.02,0.003 0.03033,0.0047 0.0053,5.92e-4 0.01,0.0012 0.01567,0.0024 0.007,0.0012 0.01433,0.0024 0.02133,0.0036 0.02233,0.0041 0.04467,0.0083 0.067,0.01304 0.02067,0.0041 0.04067,0.0089 0.061,0.01363 0.0033,5.92e-4 0.0053,5.92e-4 0.007,0.0018 0.019,0.0036 0.038,0.0083 0.05767,0.01363 0.01967,0.0053 0.038,0.01126 0.05733,0.016 0.01167,0.0041 0.024,0.0083 0.03633,0.01244 0.0023,5.92e-4 0.0047,0.0012 0.007,0.0018 0.002,5.93e-4 0.0033,5.93e-4 0.005,0.0012 0.0033,0.0012 0.006,0.0018 0.0093,0.0036 0.01933,0.0059 0.03833,0.01244 0.05733,0.01955 0.01767,0.0065 0.03433,0.01244 0.052,0.02014 0.0093,0.003 0.019,0.0077 0.02867,0.01185 0.004,0.0018 0.007,0.003 0.01067,0.0041 0.0047,0.0018 0.008,0.003 0.01267,0.0047 0.01733,0.0077 0.03433,0.01481 0.05133,0.02311 0.017,0.0077 0.03467,0.01541 0.051,0.02429 0.01067,0.0053 0.02167,0.01067 0.033,0.016 0.0027,0.0012 0.0053,0.0024 0.0073,0.0036 0.003,0.0018 0.005,0.0024 0.007,0.0036 0.01633,0.0083 0.032,0.016 0.04733,0.02488 0.01533,0.0083 0.03133,0.01659 0.04667,0.02548 0.016,0.0089 0.032,0.01778 0.047,0.02725 0.002,0.0012 0.0027,0.0012 0.0043,0.0018 l 6.67e-4,0 c 0.013,0.0083 0.02633,0.016 0.03967,0.02488 0.01467,0.0083 0.02967,0.01777 0.044,0.02725 0.015,0.01007 0.03033,0.02014 0.04433,0.03022 0.0063,0.0041 0.013,0.0089 0.01933,0.01304 0.0033,0.0018 0.0057,0.0041 0.0083,0.0065 0.0053,0.003 0.01067,0.0071 0.01667,0.01126 0.013,0.0095 0.02733,0.02014 0.04167,0.03022 0.01433,0.01126 0.028,0.02192 0.042,0.03259 0.01433,0.01067 0.02833,0.02192 0.04267,0.03259 6.67e-4,0.0012 0.002,0.0018 0.0033,0.003 0.013,0.01067 0.02567,0.02074 0.03833,0.0314 0.01333,0.01126 0.02733,0.02251 0.04033,0.03436 0.014,0.01244 0.027,0.0237 0.04,0.03614 0.008,0.0065 0.01633,0.01481 0.02433,0.02133 0.0027,0.003 0.005,0.0047 0.0073,0.0077 0.003,0.0024 0.006,0.0053 0.0083,0.0083 0.01333,0.01185 0.02633,0.02429 0.04,0.03733 0.013,0.01244 0.02667,0.02489 0.03967,0.03851 0.013,0.01303 0.02633,0.02666 0.039,0.0397 0.0033,0.003 0.0063,0.0059 0.0097,0.0095 0.0023,0.0024 0.0053,0.0053 0.007,0.0083 0.0073,0.0077 0.01433,0.01481 0.02233,0.02311 0.01267,0.01422 0.02533,0.02785 0.039,0.04266 0.0053,0.0065 0.01233,0.01422 0.01833,0.02074 0.007,0.0071 0.01267,0.01363 0.019,0.02074 0.0067,0.0071 0.01267,0.01422 0.01933,0.02133 0.0063,0.0071 0.01233,0.01481 0.019,0.02192 0.0067,0.0077 0.01333,0.01541 0.02,0.02311 0.0067,0.0077 0.01267,0.01541 0.019,0.0237 0.007,0.0077 0.01367,0.016 0.01967,0.0237 0.007,0.0083 0.01333,0.016 0.02,0.02488 0.01233,0.0154 0.02533,0.0314 0.038,0.04799 0.004,0.0053 0.009,0.01185 0.01367,0.01778 0.003,0.0036 0.005,0.0071 0.0073,0.01007 0.0053,0.0071 0.01033,0.01363 0.01533,0.02074 0.01233,0.01541 0.02467,0.03259 0.03667,0.04918 6.67e-4,5.93e-4 6.67e-4,5.93e-4 0.0013,0.0012 0.01133,0.016 0.02333,0.03259 0.03433,0.04858 0.012,0.016 0.023,0.03199 0.03367,0.0474 0.0013,0.0024 0.0027,0.0036 0.0033,0.0053 0,0 0.001,5.92e-4 0.0013,0.0012 0.01233,0.01777 0.02433,0.03614 0.03667,0.05451 0.012,0.01837 0.02367,0.03673 0.03567,0.0551 0.009,0.01481 0.01833,0.02903 0.02733,0.04384 6.67e-4,5.92e-4 0.0017,0.0018 0.0027,0.0036 6.67e-4,5.92e-4 10e-4,0.0024 0.0023,0.0036 6.67e-4,0.0018 0.002,0.0036 0.003,0.0053 0.0023,0.0036 0.0043,0.0065 0.0067,0.0095 0.0023,0.0047 0.005,0.0083 0.0073,0.01244 0.0077,0.01244 0.016,0.02548 0.023,0.03851 0.013,0.02074 0.02467,0.04147 0.03667,0.06162 0.01233,0.02133 0.024,0.04207 0.036,0.0628 0.0027,0.0047 0.0057,0.01066 0.0087,0.016 0.0027,0.0041 0.0047,0.0089 0.007,0.01304 0.0063,0.01126 0.01267,0.02251 0.01933,0.03436 0.0027,0.0047 0.0053,0.01067 0.007,0.01422 0.0023,0.0036 0.004,0.0065 0.0057,0.0095 0.0077,0.0154 0.016,0.03081 0.025,0.04681 0.01167,0.0237 0.024,0.04799 0.036,0.07228 0.0023,0.0036 0.0047,0.0077 0.007,0.01244 0.0013,0.003 0.0027,0.0059 0.0043,0.0095 0.008,0.01718 0.016,0.03377 0.025,0.05036 0.01133,0.02488 0.023,0.04918 0.03467,0.07347 0.0027,0.0065 0.006,0.01303 0.0083,0.01955 3.34e-4,0.0012 0.0013,0.0024 0.0023,0.0036 0,0.0018 10e-4,0.0036 0.0023,0.0059 0.0063,0.01363 0.013,0.02725 0.019,0.04207 0.0017,0.003 0.0033,0.0071 0.0047,0.01007 6.66e-4,0.0012 0.0017,0.0036 0.0027,0.0047 0.01233,0.02903 0.025,0.05866 0.03767,0.0871 0.01233,0.02962 0.024,0.05866 0.03633,0.08828 0.003,0.0077 0.0057,0.01481 0.008,0.02192 0.0037,0.0077 0.006,0.01422 0.0083,0.02133 0.003,0.0065 0.0053,0.01244 0.0073,0.01896 0.0013,0.003 0.0027,0.0071 0.005,0.01126 0.0017,0.0053 0.0043,0.01126 0.007,0.01659 0.014,0.03792 0.02867,0.07643 0.04233,0.114351 0.004,0.01126 0.0073,0.02251 0.01233,0.03377 0.0017,0.0053 0.0037,0.0095 0.005,0.01481 0.0023,0.0065 0.0047,0.01304 0.007,0.01955 0.005,0.0154 0.01067,0.03199 0.01667,0.04858 0.0063,0.01837 0.01233,0.03733 0.01867,0.05569 0.0013,0.0036 0.0027,0.0077 0.004,0.01126 0.0013,0.003 0.002,0.0065 0.0033,0.01066 0.0043,0.01244 0.008,0.02607 0.01267,0.03911 0.0033,0.0095 0.006,0.01837 0.0087,0.02725 0.0033,0.01066 0.006,0.02074 0.0097,0.03081 0.0067,0.02074 0.01233,0.04029 0.01867,0.06043 0.01267,0.04088 0.02433,0.08236 0.03567,0.123237 0.002,0.0065 0.004,0.01304 0.0053,0.02014 0.002,0.0053 0.0027,0.01007 0.0047,0.01541 0.0013,0.0047 0.0027,0.0095 0.0037,0.01363 0.007,0.02488 0.01367,0.04977 0.02067,0.07584 0.01033,0.04147 0.021,0.08354 0.03167,0.125015 0.001,0.0036 0.0013,0.0077 0.0023,0.01067 0.001,0.0047 0.002,0.0095 0.003,0.01422 0.0077,0.03437 0.016,0.06814 0.02367,0.102501 l 0.173334,0.777343 c 0.0037,0.01659 0.0063,0.03377 0.0097,0.05036 0.01433,0.06873 0.02867,0.13805 0.042,0.207963 0.0047,0.02785 0.01067,0.0551 0.015,0.08236 0.0067,0.03673 0.01267,0.07347 0.01833,0.110795 10e-4,0.0095 0.0043,0.01896 0.006,0.02844 0.0017,0.01244 0.0027,0.02429 0.004,0.03496 0.007,0.04088 0.01267,0.07999 0.01833,0.11909 0.001,0.0077 0.0017,0.01481 0.0023,0.02133 0.01267,0.09124 0.02367,0.183671 0.03267,0.274912 0.002,0.013 0.003,0.0255 0.0043,0.0373 0,5.9e-4 0,0.001 3.34e-4,0.002 6.66e-4,0.004 3.33e-4,0.008 6.66e-4,0.0113 10e-4,0.0118 0.0017,0.0237 0.0027,0.0356 0.0013,6e-4 0.0027,0.001 0.0043,0.003 0.009,0.006 0.01767,0.0118 0.02567,0.0178 0.02333,0.016 0.047,0.0332 0.07067,0.0492 0.02267,0.0166 0.046,0.0344 0.06933,0.0515 0.023,0.0172 0.046,0.035 0.06933,0.0527 0.001,6e-4 0.003,0.003 0.0043,0.004 6.67e-4,5.9e-4 0.0017,0.001 0.0027,0.002 0.02033,0.0166 0.041,0.0332 0.06167,0.0498 0.023,0.0184 0.04433,0.0367 0.06667,0.0551 0.02233,0.0184 0.04467,0.0379 0.06667,0.0569 0.014,0.0124 0.02767,0.0249 0.041,0.0367 0.0027,0.002 0.005,0.004 0.0077,0.007 0.0057,0.005 0.011,0.0107 0.01733,0.016 0.022,0.0195 0.04333,0.0397 0.065,0.0604 0.02233,0.0201 0.044,0.0409 0.06533,0.0622 0.021,0.0207 0.043,0.0427 0.064,0.0634 0.006,0.006 0.01233,0.0124 0.01833,0.019 0.002,0.001 0.004,0.003 0.006,0.006 0.01333,0.0136 0.027,0.0273 0.04,0.0409 0.021,0.0225 0.04233,0.045 0.063,0.067 0.01067,0.0113 0.02067,0.0225 0.03167,0.0344 0.0093,0.0113 0.02,0.0225 0.03067,0.0338 0.01033,0.0118 0.02067,0.0237 0.03033,0.0344 0.01033,0.0118 0.02067,0.0237 0.031,0.035 0.011,0.0124 0.022,0.0255 0.03233,0.0373 0.011,0.0124 0.02133,0.0255 0.032,0.0373 0.01067,0.0124 0.02167,0.0255 0.032,0.0385 0.01033,0.0124 0.02067,0.0255 0.031,0.0379 0.021,0.0255 0.04133,0.0504 0.062,0.0764 0.0083,0.0107 0.01633,0.0207 0.02433,0.032 0.0037,0.004 0.0067,0.007 0.009,0.0113 0.009,0.0119 0.01833,0.0231 0.02667,0.0344 0.0087,0.0107 0.01667,0.0219 0.02367,0.0314 0.0027,0.004 0.0057,0.007 0.0077,0.0113 0.0097,0.0124 0.01933,0.0249 0.02867,0.0373 0.01967,0.0261 0.03867,0.0527 0.058,0.0794 0.019,0.0261 0.03733,0.0527 0.05567,0.0794 6.67e-4,5.9e-4 0.001,5.9e-4 0.001,0.001 0.002,0.002 0.0027,0.004 0.0047,0.006 0.01967,0.029 0.03967,0.0587 0.05933,0.0871 0.01433,0.0213 0.02833,0.0433 0.04233,0.0646 0.0017,0.002 0.0027,0.003 0.004,0.004 3.33e-4,0.001 0.0017,0.003 0.002,0.004 0.0033,0.005 0.0063,0.0101 0.01033,0.0154 0.01867,0.029 0.03767,0.0592 0.05667,0.0895 0.004,0.005 0.0073,0.0119 0.01,0.0172 0.003,0.004 0.0063,0.009 0.009,0.0136 0.01367,0.0219 0.02767,0.0444 0.04167,0.067 0.01933,0.0326 0.03933,0.0658 0.05833,0.0989 0.01467,0.0255 0.02867,0.051 0.044,0.0764 0.002,0.004 0.0037,0.007 0.0057,0.0101 0.0023,0.005 0.0057,0.0101 0.0083,0.0148 0.0047,0.008 0.009,0.0172 0.01367,0.0249 0.003,0.006 0.0063,0.0113 0.0093,0.0166 0.01067,0.0196 0.02167,0.0391 0.03267,0.0587 0.02067,0.0379 0.04067,0.0758 0.06067,0.11376 0.01967,0.0373 0.03933,0.0758 0.05833,0.11435 0.003,0.007 0.0067,0.0136 0.01,0.0207 0.0023,0.004 0.0037,0.007 0.005,0.0101 0.0043,0.008 0.0083,0.0166 0.01233,0.0249 6.67e-4,0.002 0.002,0.004 0.003,0.005 0.0013,0.002 0.0013,0.004 0.0023,0.007 0.008,0.016 0.017,0.0326 0.02467,0.0492 0.019,0.0397 0.037,0.0782 0.05533,0.1179 0.01767,0.0373 0.03467,0.0752 0.051,0.11317 0.0027,0.005 0.005,0.0107 0.007,0.0154 0.001,0.003 0.0027,0.005 0.004,0.009 0.01533,0.0356 0.03167,0.0723 0.047,0.10783 0.0017,0.004 0.0033,0.008 0.0057,0.0124 0.002,0.006 0.005,0.0124 0.0073,0.019 0.02,0.0462 0.03933,0.093 0.058,0.14042 0.006,0.0136 0.01067,0.0267 0.01567,0.0403 0.003,0.007 0.006,0.0136 0.0087,0.0207 0.01067,0.0272 0.021,0.0545 0.032,0.0818 0.014,0.0385 0.029,0.0782 0.04333,0.11791 0.0023,0.005 0.0047,0.0113 0.007,0.0166 0.001,0.004 0.0027,0.008 0.0037,0.0124 0.0047,0.0113 0.009,0.0231 0.013,0.0349 0.007,0.0184 0.01367,0.0379 0.02033,0.0569 0.002,0.007 0.0053,0.013 0.0073,0.0202 0.003,0.009 0.0053,0.0178 0.008,0.0249 0.0093,0.0279 0.01933,0.0545 0.028,0.0824 0.021,0.0616 0.04167,0.12383 0.06133,0.18663 0.0023,0.009 0.005,0.0178 0.008,0.0267 0.002,0.008 0.0043,0.0148 0.0067,0.0231 0.005,0.0148 0.009,0.029 0.01367,0.0438 0.0097,0.032 0.01967,0.0634 0.02867,0.0954 0.008,0.0261 0.01533,0.0527 0.02267,0.0788 0.0073,0.0267 0.01467,0.0527 0.022,0.0794 0.007,0.0261 0.01433,0.0533 0.022,0.0794 -3.33e-4,0 0,0.001 0,0.001 3.33e-4,5.9e-4 0.0013,0.002 6.67e-4,0.003 0.007,0.0249 0.014,0.0504 0.02033,0.0752 l 1.928669,7.44282 c 0.01033,0.0421 0.01933,0.0853 0.02967,0.12679 0.023,0.0942 0.04533,0.18664 0.06633,0.28025 0.009,0.0403 0.01767,0.0812 0.02567,0.11968 0.008,0.0379 0.01533,0.0758 0.023,0.11317 0.01433,0.0747 0.02933,0.15049 0.04333,0.22633 0.0053,0.0284 0.011,0.0569 0.01633,0.0865 0.006,0.035 0.0093,0.0675 0.01533,0.10072 0.0027,0.0142 0.005,0.0296 0.007,0.0439 0.004,0.0225 0.008,0.045 0.012,0.0687 0.0087,0.0545 0.01533,0.10901 0.023,0.16293 0.0087,0.0634 0.01833,0.12798 0.02633,0.19019 0.007,0.0593 0.014,0.11731 0.02067,0.17419 0.0043,0.0438 0.0087,0.0871 0.01333,0.13153 0.004,0.0367 0.0083,0.0711 0.01233,0.10783 0.0017,0.019 0.0023,0.0379 0.0043,0.0581 0.0077,0.0859 0.014,0.173 0.02,0.2601 0.002,0.0326 0.006,0.0628 0.0077,0.0948 0.001,0.0119 0.001,0.0249 0.002,0.0356 0.0017,0.0273 0.0027,0.0533 0.0047,0.0806 6.67e-4,0.013 0.002,0.0261 0.003,0.0391 0.0067,0.12087 0.0097,0.24114 0.01233,0.36201 6.67e-4,0.0213 0.0027,0.0421 0.003,0.0634 3.34e-4,0.002 -3.33e-4,0.005 0,0.007 3.34e-4,0.003 0,0.007 0,0.0101 3.34e-4,0.006 0,0.0107 3.34e-4,0.0148 0.0023,0.16175 0.002,0.31106 -3.34e-4,0.46036 z m -5.894339,6.98246 c 0.594001,-0.19078 1.158001,-0.53086 1.677335,-1.01078 0.528001,-0.48762 0.989334,-1.1038 1.373668,-1.83612 0.367001,-0.69795 0.636668,-1.45515 0.802001,-2.25323 0.153,-0.73705 0.211667,-1.48062 0.174334,-2.20642 -0.038,-0.73231 -0.171001,-1.42434 -0.394334,-2.05711 -0.251667,-0.7098 -0.609001,-1.3254 -1.063335,-1.82723 -0.494333,-0.54687 -1.064334,-0.91658 -1.694001,-1.09966 -0.288667,-0.0841 -0.588001,-0.12679 -0.889668,-0.12679 -0.355,0 -0.715667,0.0593 -1.073001,0.17478 -0.657001,0.21389 -1.299668,0.62922 -1.859002,1.19919 -0.563334,0.57531 -1.037668,1.2934 -1.409001,2.13177 -0.341001,0.77261 -0.569334,1.58846 -0.678001,2.43157 -0.097,0.74476 -0.097,1.48181 3.33e-4,2.19398 0.09467,0.69854 0.279667,1.34673 0.549667,1.93151 0.291667,0.631 0.673668,1.16365 1.136002,1.58609 0.48,0.43903 1.017001,0.72817 1.596668,0.85674 0.229334,0.0521 0.465667,0.0782 0.702001,0.0782 0.35,0.001 0.702334,-0.0557 1.048334,-0.16649 z m -17.1596842,0.16768 c 0.2360003,0 0.4713338,-0.0261 0.7023341,-0.0782 0.5780006,-0.12916 1.1146678,-0.41652 1.5963349,-0.85674 0.4616672,-0.42125 0.8433342,-0.95449 1.1366682,-1.58964 0.269,-0.58004 0.453333,-1.22823 0.548667,-1.92914 0.097,-0.71217 0.09733,-1.44922 0,-2.19516 -0.109,-0.84134 -0.337334,-1.65956 -0.678667,-2.43098 -0.3696675,-0.83718 -0.8433347,-1.55291 -1.4080019,-2.12821 -0.5683339,-0.58005 -1.1943346,-0.98472 -1.8600019,-1.20157 -0.355667,-0.11553 -0.7160007,-0.17419 -1.0713344,-0.17419 -0.3020003,0 -0.6016673,0.0427 -0.891001,0.12679 -0.6286673,0.18249 -1.1990012,0.5522 -1.6943349,1.10025 -0.4540005,0.50184 -0.8110009,1.11506 -1.0623344,1.82605 -0.2243336,0.63455 -0.3570004,1.32539 -0.3943338,2.05593 -0.037667,0.72876 0.020667,1.47115 0.1736669,2.20761 0.1656668,0.79511 0.4363337,1.55528 0.8043341,2.25737 0.3820004,0.72876 0.8436674,1.34436 1.3730013,1.83197 0.5200006,0.48051 1.0840011,0.82119 1.6746684,1.01079 0.348667,0.1102 0.7023341,0.16708 1.0503344,0.16708 0,0 0,0 0,0 z"
     id="path20412"
     style="fill:#007fff;fill-opacity:1"
     inkscape:export-xdpi="90"
     inkscape:export-ydpi="90"
     inkscape:export-filename="/home/adminlinux/apps/Sihic/src/images/buscar.png"
     inkscape:connector-curvature="0" /></svg>