<?xml version="1.0" encoding="UTF-8" standalone="no"?>
<svg
   xmlns:dc="http://purl.org/dc/elements/1.1/"
   xmlns:cc="http://creativecommons.org/ns#"
   xmlns:rdf="http://www.w3.org/1999/02/22-rdf-syntax-ns#"
   xmlns:svg="http://www.w3.org/2000/svg"
   xmlns="http://www.w3.org/2000/svg"
   xmlns:sodipodi="http://sodipodi.sourceforge.net/DTD/sodipodi-0.dtd"
   xmlns:inkscape="http://www.inkscape.org/namespaces/inkscape"
   version="1.1"
   x="0px"
   y="0px"
   viewBox="0 0 100 125"
   enable-background="new 0 0 100 100"
   xml:space="preserve"
   id="svg2"
   inkscape:version="0.91 r13725"
   sodipodi:docname="empresa.svg"><metadata
     id="metadata52"><rdf:RDF><cc:Work
         rdf:about=""><dc:format>image/svg+xml</dc:format><dc:type
           rdf:resource="http://purl.org/dc/dcmitype/StillImage" /><dc:title /></cc:Work></rdf:RDF></metadata><defs
     id="defs50" /><sodipodi:namedview
     pagecolor="#ffffff"
     bordercolor="#666666"
     borderopacity="1"
     objecttolerance="10"
     gridtolerance="10"
     guidetolerance="10"
     inkscape:pageopacity="0"
     inkscape:pageshadow="2"
     inkscape:window-width="1364"
     inkscape:window-height="744"
     id="namedview48"
     showgrid="false"
     inkscape:zoom="1.888"
     inkscape:cx="-2.6188794"
     inkscape:cy="62.5"
     inkscape:window-x="1"
     inkscape:window-y="1"
     inkscape:window-maximized="1"
     inkscape:current-layer="svg2" /><path
     d="m 26.702914,89.176 4.559742,0 c 0.440031,0 0.797157,-0.347667 0.797157,-0.777778 0,-0.430111 -0.357126,-0.777778 -0.797157,-0.777778 l -4.559742,0 c -0.44003,0 -0.797157,0.347667 -0.797157,0.777778 0,0.430111 0.357127,0.777778 0.797157,0.777778 z m 4.157177,-11.928 15.560516,0 c 0.440828,0 0.797157,-0.347667 0.797157,-0.777778 l 0,-3.832111 c 0,-0.430889 -0.356329,-0.777778 -0.797157,-0.777778 l -15.560516,0 c -0.440031,0 -0.797157,0.346889 -0.797157,0.777778 l 0,3.832111 c 0,0.430111 0.357126,0.777778 0.797157,0.777778 z m 8.850841,-3.832111 5.912517,0 0,2.276555 -5.912517,0 0,-2.276555 z m -8.053683,0 6.459367,0 0,2.276555 -6.459367,0 0,-2.276555 z M 75.837315,67.595778 63.7261,56.716222 c -0.03906,-0.035 -0.08609,-0.05289 -0.130733,-0.07933 -0.03747,-0.02256 -0.07015,-0.05133 -0.1124,-0.06767 -0.09566,-0.03733 -0.196898,-0.05833 -0.298934,-0.05833 l -5.615178,0 0,-11.578778 0,0 c 0,-1.409333 -2.220083,-2.040889 -4.421035,-2.040889 -2.200155,0 -4.419442,0.631556 -4.419442,2.040889 l 0,0 0,11.578778 -4.121305,0 0,-11.578778 0,0 c 0,-1.409333 -2.220083,-2.040889 -4.420238,-2.040889 -2.200952,0 -4.421833,0.631556 -4.421833,2.040889 l 0,0 0,11.578778 -4.118913,0 0,-11.578778 0,0 c 0,-1.409333 -2.220881,-2.040889 -4.421036,-2.040889 -2.200952,0 -4.421833,0.631556 -4.421833,2.040889 l 0,0 0,11.578778 -3.80005,0 c -0.03986,0 -0.07493,0.01633 -0.113197,0.02256 -0.05899,0.0086 -0.117979,0.01322 -0.174577,0.03422 -0.0566,0.02178 -0.102834,0.05756 -0.152257,0.09022 -0.03268,0.021 -0.06935,0.03189 -0.09964,0.05833 L 6.3514819,67.595778 c -0.00399,0.0031 -0.00478,0.0078 -0.00877,0.01244 -0.047032,0.04433 -0.078919,0.09878 -0.1139936,0.151667 -0.020726,0.03344 -0.049424,0.06067 -0.065367,0.09567 -0.01674,0.03655 -0.018335,0.08011 -0.029495,0.118222 -0.015943,0.05911 -0.035075,0.115111 -0.036669,0.177333 0,0.0062 -0.00319,0.01089 -0.00319,0.01633 l 0,26.054778 C 6.0939973,94.652333 6.4511239,95 6.8911549,95 l 44.1808631,0 c 0.0032,0 0.0048,-0.0016 0.008,-0.0016 l 24.216849,0 c 0.440829,0 0.797158,-0.347666 0.797158,-0.777777 l 0,-26.054 c 0,-0.217 -0.09327,-0.425445 -0.256685,-0.570889 z M 53.14782,44.446 c 1.349587,0 2.283856,0.270667 2.676057,0.486111 -0.392201,0.214667 -1.32647,0.485333 -2.676057,0.485333 -1.347994,0 -2.28306,-0.270666 -2.674464,-0.485333 C 50.86476,44.716667 51.799826,44.446 53.14782,44.446 Z m -2.825127,2.110889 c 0.801941,0.280778 1.812736,0.416111 2.825127,0.416111 1.01239,0 2.023983,-0.135333 2.82672,-0.416111 l 0,2.392444 c -0.242336,0.218556 -1.249146,0.587223 -2.82672,0.587223 -1.575981,0 -2.583588,-0.368667 -2.825127,-0.586445 l 0,-2.393222 z m 0,4.119111 c 0.801941,0.280778 1.812736,0.416111 2.825127,0.416111 1.01239,0 2.023983,-0.135333 2.82672,-0.416111 l 0,2.391667 c -0.242336,0.218555 -1.249146,0.587222 -2.82672,0.587222 -1.575981,0 -2.583588,-0.368667 -2.825127,-0.586445 l 0,-2.392444 z m 0,4.119111 c 0.801941,0.280778 1.812736,0.416111 2.825127,0.416111 1.01239,0 2.023983,-0.135333 2.82672,-0.416111 l 0,2.391667 C 55.732204,57.405333 54.725394,57.774 53.14782,57.774 c -1.575981,0 -2.583588,-0.368667 -2.825127,-0.587222 l 0,-2.391667 z M 40.186835,44.446 c 1.349587,0 2.283856,0.270667 2.676058,0.486111 -0.392202,0.214667 -1.326471,0.485333 -2.676058,0.485333 -1.350385,0 -2.285451,-0.270666 -2.677653,-0.485333 C 37.902181,44.716667 38.837247,44.446 40.186835,44.446 Z m -2.827518,2.110889 c 0.802737,0.280778 1.815925,0.416111 2.827518,0.416111 1.011593,0 2.023983,-0.135333 2.825923,-0.416111 l 0,2.393222 c -0.242336,0.218556 -1.249146,0.586445 -2.825923,0.586445 -1.576778,0 -2.585979,-0.368667 -2.827518,-0.587223 l 0,-2.392444 z m 0,4.119111 c 0.802737,0.280778 1.815925,0.416111 2.827518,0.416111 1.011593,0 2.023983,-0.135333 2.825923,-0.416111 l 0,2.392444 c -0.242336,0.217778 -1.249943,0.586445 -2.825923,0.586445 -1.576778,0 -2.585182,-0.368667 -2.827518,-0.587222 l 0,-2.391667 z m 0,4.118333 c 0.802737,0.280778 1.815925,0.416111 2.827518,0.416111 1.011593,0 2.023983,-0.135333 2.825923,-0.416111 l 0,2.391667 c -0.242336,0.218556 -1.249943,0.587222 -2.825923,0.587222 -1.576778,0 -2.585182,-0.368666 -2.827518,-0.587222 l 0,-2.391667 z M 27.22585,44.446 c 1.349588,0 2.284653,0.270667 2.676855,0.486111 -0.392999,0.214667 -1.327267,0.485333 -2.676855,0.485333 -1.350385,0 -2.285451,-0.270666 -2.677652,-0.485333 C 24.940399,44.716667 25.875465,44.446 27.22585,44.446 Z m -2.827518,2.110889 c 0.802738,0.280778 1.815925,0.416111 2.827518,0.416111 1.011593,0 2.02478,-0.135333 2.826721,-0.416111 l 0,2.392444 c -0.240742,0.218556 -1.249943,0.587223 -2.826721,0.587223 -1.576778,0 -2.585979,-0.368667 -2.827518,-0.587223 l 0,-2.392444 z m 0,4.119111 c 0.802738,0.280778 1.815925,0.416111 2.827518,0.416111 1.011593,0 2.02478,-0.135333 2.826721,-0.416111 l 0,2.392444 c -0.242336,0.218556 -1.250741,0.587223 -2.826721,0.587223 -1.576778,0 -2.585182,-0.368667 -2.827518,-0.587223 l 0,-2.392444 z m 0,4.118333 c 0.802738,0.280778 1.815925,0.416111 2.827518,0.416111 1.011593,0 2.02478,-0.135333 2.826721,-0.416111 l 0,2.391667 c -0.241539,0.218556 -1.249943,0.587222 -2.826721,0.587222 -1.576778,0 -2.585182,-0.368666 -2.827518,-0.587222 l 0,-2.391667 z m 9.063681,38.650111 -8.958456,0 0,-11.641 8.957659,0 7.97e-4,11.641 0,0 z m 16.815242,0 -15.220926,0 0,-12.418777 c 0,-0.430111 -0.357127,-0.777778 -0.797158,-0.777778 l -10.552772,0 c -0.440031,0 -0.797157,0.347667 -0.797157,0.777778 l 0,12.418777 -15.2201297,0 0,-24.5 42.5881427,0 0,24.5 z m 0.485469,-26.055555 -41.8284516,0 10.3805856,-9.322445 3.76099,0 c 0.654466,0.864889 2.406618,1.263112 4.149205,1.263112 1.742586,0 3.493941,-0.397445 4.148408,-1.263112 l 4.664169,0 c 0.654466,0.864889 2.406618,1.263112 4.149205,1.263112 1.742586,0 3.493144,-0.397445 4.14761,-1.263112 l 4.666561,0 c 0.652872,0.864889 2.405024,1.263112 4.146814,1.263112 1.74418,0 3.493941,-0.397445 4.148407,-1.263112 l 3.846286,0 -10.379789,9.322445 z M 11.548152,77.248 l 15.559719,0 c 0.440031,0 0.797157,-0.347667 0.797157,-0.777778 l 0,-3.832111 c 0,-0.430889 -0.357126,-0.777778 -0.797157,-0.777778 l -15.559719,0 c -0.440031,0 -0.797158,0.346889 -0.797158,0.777778 l 0,3.832111 c 0,0.430111 0.35633,0.777778 0.797158,0.777778 z m 8.575821,-3.832111 6.185943,0 0,2.276555 -6.185943,0 0,-2.276555 z m -7.778663,0 6.185145,0 0,2.276555 -6.185145,0 0,-2.276555 z m 34.075297,14.204555 -7.506833,0 c -0.440031,0 -0.797158,0.347667 -0.797158,0.777778 0,0.430111 0.357127,0.777778 0.797158,0.777778 l 7.506833,0 c 0.440828,0 0.797157,-0.347667 0.797157,-0.777778 0,-0.430111 -0.35872,-0.777778 -0.797157,-0.777778 z M 11.548152,89.176 l 7.503644,0 c 0.440031,0 0.797158,-0.347667 0.797158,-0.777778 0,-0.430111 -0.357127,-0.777778 -0.797158,-0.777778 l -7.503644,0 c -0.440031,0 -0.797158,0.347667 -0.797158,0.777778 0,0.430111 0.35633,0.777778 0.797158,0.777778 z m 34.872455,-8.928111 -7.506833,0 c -0.440031,0 -0.797158,0.347667 -0.797158,0.777778 l 0,4.499444 c 0,0.430111 0.357127,0.777778 0.797158,0.777778 l 7.506833,0 c 0.440828,0 0.797157,-0.347667 0.797157,-0.777778 l 0,-4.499444 c 0,-0.430111 -0.35872,-0.777778 -0.797157,-0.777778 z m -0.797158,4.499444 -5.912517,0 0,-2.943889 5.912517,0 0,2.943889 z m -34.075297,1.555556 7.503644,0 c 0.440031,0 0.797158,-0.347667 0.797158,-0.777778 l 0,-4.499444 c 0,-0.430111 -0.357127,-0.777778 -0.797158,-0.777778 l -7.503644,0 c -0.440031,0 -0.797158,0.347667 -0.797158,0.777778 l 0,4.499444 c 0,0.430111 0.35633,0.777778 0.797158,0.777778 z m 0.797158,-4.499445 5.909329,0 0,2.943889 -5.909329,0 0,-2.943889 z"
     id="path4"
     style="fill:#007fff;fill-opacity:1"
     inkscape:connector-curvature="0"
     inkscape:export-xdpi="90"
     inkscape:export-ydpi="90" /><g
     id="g6"
     style="fill:#007fff;fill-opacity:1"
     transform="matrix(0.79715756,0,0,0.77777778,1.2361218,21.111111)"
     inkscape:export-xdpi="90"
     inkscape:export-ydpi="90"><g
       id="g8"
       style="fill:#007fff;fill-opacity:1"><g
         id="g10"
         style="fill:#007fff;fill-opacity:1"><path
           d="m 48.512,8.585 c 0,-0.143 0.051,-0.265 0.153,-0.366 0.102,-0.102 0.229,-0.153 0.382,-0.153 0.152,0 0.279,0.051 0.381,0.153 0.102,0.102 0.153,0.224 0.153,0.366 l 0,0.917 c 0.662,0.051 1.293,0.193 1.894,0.428 0.561,0.213 0.84,0.545 0.84,0.993 0,0.275 -0.092,0.504 -0.274,0.687 -0.184,0.184 -0.412,0.275 -0.688,0.275 -0.092,0 -0.184,-0.013 -0.274,-0.038 -0.092,-0.025 -0.204,-0.069 -0.337,-0.13 -0.133,-0.061 -0.244,-0.107 -0.335,-0.137 -0.581,-0.204 -1.029,-0.306 -1.344,-0.306 -0.987,0 -1.481,0.295 -1.481,0.886 0,0.356 0.27,0.652 0.81,0.886 0.163,0.071 0.654,0.234 1.474,0.489 0.82,0.254 1.413,0.524 1.779,0.809 0.672,0.499 1.008,1.191 1.008,2.077 0,0.835 -0.279,1.517 -0.84,2.046 -0.56,0.53 -1.303,0.855 -2.229,0.978 l 0,0.886 c 0,0.143 -0.051,0.265 -0.153,0.366 -0.102,0.101 -0.231,0.153 -0.383,0.153 -0.153,0 -0.28,-0.051 -0.382,-0.153 -0.102,-0.102 -0.153,-0.224 -0.153,-0.366 l 0,-0.855 c -0.773,-0.031 -1.532,-0.209 -2.275,-0.535 -0.58,-0.244 -0.871,-0.59 -0.871,-1.039 0,-0.274 0.097,-0.507 0.291,-0.695 0.192,-0.188 0.422,-0.283 0.687,-0.283 0.082,0 0.164,0.013 0.245,0.039 0.082,0.025 0.15,0.05 0.207,0.076 0.056,0.025 0.14,0.071 0.252,0.138 l 0.274,0.16 c 0.469,0.244 0.988,0.367 1.558,0.367 0.55,0 0.942,-0.109 1.176,-0.329 0.234,-0.22 0.352,-0.481 0.352,-0.787 0,-0.407 -0.275,-0.733 -0.825,-0.977 -0.184,-0.082 -0.605,-0.227 -1.268,-0.436 -0.662,-0.209 -1.161,-0.41 -1.497,-0.603 -0.937,-0.52 -1.405,-1.324 -1.405,-2.414 0,-0.723 0.272,-1.324 0.817,-1.802 0.545,-0.478 1.306,-0.758 2.283,-0.84 l 0,-0.931 z"
           id="path12"
           style="fill:#007fff;fill-opacity:1"
           inkscape:connector-curvature="0" /></g></g><g
       id="g14"
       style="fill:#007fff;fill-opacity:1"><path
         d="m 49.009,23.917 c -5.215,0 -9.458,-4.243 -9.458,-9.458 0,-5.215 4.243,-9.459 9.458,-9.459 5.215,0 9.458,4.243 9.458,9.458 0,5.215 -4.242,9.459 -9.458,9.459 z M 49.009,7 c -4.113,0 -7.458,3.346 -7.458,7.458 0,4.112 3.346,7.458 7.458,7.458 4.112,0 7.458,-3.346 7.458,-7.458 C 56.467,10.346 53.121,7 49.009,7 Z"
         id="path16"
         style="fill:#007fff;fill-opacity:1"
         inkscape:connector-curvature="0" /></g><g
       id="g18"
       style="fill:#007fff;fill-opacity:1"><g
         id="g20"
         style="fill:#007fff;fill-opacity:1"><g
           id="g22"
           style="fill:#007fff;fill-opacity:1"><g
             id="g24"
             style="fill:#007fff;fill-opacity:1"><path
               d="m 68.261,15.637 c 0.011,-0.081 0.05,-0.146 0.115,-0.196 0.065,-0.049 0.142,-0.069 0.229,-0.057 0.086,0.012 0.153,0.05 0.204,0.116 0.05,0.065 0.068,0.139 0.058,0.219 l -0.07,0.519 c 0.371,0.08 0.717,0.209 1.039,0.388 0.301,0.165 0.434,0.374 0.399,0.627 -0.021,0.155 -0.092,0.278 -0.209,0.368 -0.118,0.089 -0.255,0.124 -0.41,0.102 -0.053,-0.007 -0.103,-0.021 -0.153,-0.042 -0.049,-0.021 -0.109,-0.055 -0.181,-0.1 -0.069,-0.045 -0.13,-0.079 -0.179,-0.104 -0.313,-0.16 -0.559,-0.253 -0.737,-0.277 -0.559,-0.076 -0.861,0.053 -0.907,0.388 -0.027,0.202 0.102,0.39 0.39,0.564 0.087,0.053 0.353,0.183 0.797,0.391 0.445,0.208 0.76,0.406 0.945,0.596 0.342,0.334 0.478,0.752 0.409,1.254 -0.064,0.473 -0.274,0.837 -0.633,1.094 -0.357,0.256 -0.804,0.384 -1.338,0.381 l -0.068,0.502 c -0.011,0.081 -0.049,0.146 -0.114,0.195 -0.066,0.05 -0.142,0.069 -0.228,0.058 -0.087,-0.012 -0.155,-0.051 -0.205,-0.116 -0.051,-0.065 -0.07,-0.139 -0.059,-0.219 l 0.065,-0.485 c -0.435,-0.077 -0.851,-0.236 -1.246,-0.478 -0.31,-0.183 -0.447,-0.402 -0.413,-0.656 0.021,-0.155 0.094,-0.279 0.219,-0.371 0.123,-0.092 0.261,-0.128 0.41,-0.107 0.047,0.006 0.093,0.02 0.135,0.041 0.045,0.021 0.081,0.04 0.112,0.059 0.029,0.019 0.073,0.051 0.132,0.098 l 0.144,0.111 c 0.246,0.175 0.529,0.284 0.853,0.328 0.312,0.042 0.542,0.01 0.691,-0.095 0.149,-0.106 0.236,-0.245 0.26,-0.418 0.031,-0.23 -0.099,-0.436 -0.392,-0.617 C 68.227,19.637 68,19.523 67.641,19.353 67.282,19.184 67.015,19.032 66.84,18.896 66.35,18.53 66.146,18.038 66.23,17.421 c 0.056,-0.409 0.257,-0.729 0.603,-0.957 0.346,-0.228 0.798,-0.329 1.356,-0.3 l 0.072,-0.527 z"
               id="path26"
               style="fill:#007fff;fill-opacity:1"
               inkscape:connector-curvature="0" /></g></g><g
           id="g28"
           style="fill:#007fff;fill-opacity:1"><path
             d="m 68.096,25.668 c -0.299,0 -0.602,-0.021 -0.906,-0.062 -3.643,-0.497 -6.202,-3.864 -5.706,-7.506 0.488,-3.585 3.832,-6.206 7.507,-5.705 3.643,0.497 6.201,3.864 5.705,7.507 -0.449,3.286 -3.287,5.766 -6.6,5.766 z M 68.083,14.333 c -2.318,0 -4.304,1.736 -4.617,4.038 -0.348,2.549 1.443,4.907 3.993,5.254 2.584,0.35 4.912,-1.484 5.254,-3.994 0.348,-2.549 -1.443,-4.907 -3.992,-5.255 -0.215,-0.029 -0.427,-0.043 -0.638,-0.043 z"
             id="path30"
             style="fill:#007fff;fill-opacity:1"
             inkscape:connector-curvature="0" /></g></g><g
         id="g32"
         style="fill:#007fff;fill-opacity:1"><g
           id="g34"
           style="fill:#007fff;fill-opacity:1"><g
             id="g36"
             style="fill:#007fff;fill-opacity:1"><path
               d="m 28.57,15.719 c -0.011,-0.081 0.008,-0.154 0.058,-0.22 0.049,-0.066 0.117,-0.105 0.204,-0.118 0.086,-0.012 0.162,0.006 0.228,0.056 0.066,0.049 0.104,0.114 0.116,0.195 l 0.074,0.518 c 0.379,-0.025 0.748,0.005 1.105,0.089 0.334,0.075 0.52,0.24 0.556,0.493 0.022,0.155 -0.011,0.292 -0.1,0.411 -0.089,0.118 -0.211,0.188 -0.367,0.211 -0.052,0.007 -0.104,0.007 -0.159,0.001 -0.053,-0.007 -0.121,-0.023 -0.201,-0.046 -0.079,-0.024 -0.146,-0.041 -0.2,-0.051 -0.345,-0.068 -0.607,-0.089 -0.786,-0.064 -0.558,0.08 -0.813,0.287 -0.766,0.621 0.029,0.202 0.205,0.347 0.529,0.436 0.099,0.027 0.389,0.08 0.874,0.157 0.485,0.078 0.841,0.182 1.072,0.313 0.42,0.228 0.666,0.592 0.737,1.094 0.068,0.472 -0.034,0.88 -0.309,1.226 -0.273,0.344 -0.667,0.589 -1.182,0.733 l 0.072,0.502 c 0.011,0.08 -0.007,0.153 -0.057,0.219 -0.05,0.065 -0.117,0.105 -0.203,0.117 -0.087,0.013 -0.163,-0.006 -0.229,-0.056 -0.066,-0.049 -0.105,-0.114 -0.117,-0.194 L 29.45,21.878 c -0.439,0.045 -0.883,0.006 -1.33,-0.118 -0.348,-0.091 -0.54,-0.263 -0.577,-0.517 -0.022,-0.155 0.013,-0.294 0.108,-0.417 0.093,-0.122 0.216,-0.194 0.366,-0.216 0.046,-0.006 0.094,-0.006 0.14,0.002 0.049,0.008 0.089,0.016 0.124,0.026 0.033,0.01 0.084,0.029 0.153,0.058 l 0.169,0.068 c 0.285,0.1 0.587,0.127 0.91,0.081 0.312,-0.044 0.524,-0.138 0.639,-0.281 0.114,-0.143 0.16,-0.301 0.135,-0.474 -0.033,-0.23 -0.215,-0.392 -0.546,-0.485 -0.11,-0.032 -0.361,-0.08 -0.752,-0.144 -0.392,-0.064 -0.69,-0.137 -0.896,-0.22 -0.572,-0.218 -0.903,-0.635 -0.991,-1.251 -0.059,-0.409 0.047,-0.771 0.317,-1.085 0.27,-0.314 0.677,-0.535 1.223,-0.66 L 28.57,15.719 Z"
               id="path38"
               style="fill:#007fff;fill-opacity:1"
               inkscape:connector-curvature="0" /></g></g><g
           id="g40"
           style="fill:#007fff;fill-opacity:1"><path
             d="m 29.321,25.668 c -3.291,0 -6.125,-2.46 -6.592,-5.722 -0.521,-3.639 2.015,-7.024 5.654,-7.545 0.315,-0.045 0.635,-0.068 0.951,-0.068 3.292,0 6.125,2.46 6.593,5.723 0.521,3.638 -2.015,7.023 -5.653,7.544 -0.316,0.045 -0.636,0.068 -0.953,0.068 z m 0.013,-11.335 c -0.22,0 -0.443,0.016 -0.668,0.048 -2.547,0.365 -4.323,2.734 -3.958,5.282 0.358,2.502 2.709,4.324 5.282,3.958 2.546,-0.365 4.322,-2.734 3.957,-5.282 -0.327,-2.284 -2.31,-4.006 -4.613,-4.006 z"
             id="path42"
             style="fill:#007fff;fill-opacity:1"
             inkscape:connector-curvature="0" /></g></g></g></g></svg>