<?xml version="1.0" encoding="UTF-8" standalone="no"?>
<svg
    xmlns:osb="http://www.openswatchbook.org/uri/2009/osb"
    xmlns:dc="http://purl.org/dc/elements/1.1/"
    xmlns:cc="http://creativecommons.org/ns#"
    xmlns:rdf="http://www.w3.org/1999/02/22-rdf-syntax-ns#"
    xmlns:svg="http://www.w3.org/2000/svg"
    xmlns="http://www.w3.org/2000/svg"
    xmlns:xlink="http://www.w3.org/1999/xlink"
    xmlns:sodipodi="http://sodipodi.sourceforge.net/DTD/sodipodi-0.dtd"
    xmlns:inkscape="http://www.inkscape.org/namespaces/inkscape"
    version="1.1"
    x="0px"
    y="0px"
    viewBox="0 0 100 125"
    enable-background="new 0 0 100 100"
    xml:space="preserve"
    id="svg3336"
    inkscape:version="0.91 r13725"
    sodipodi:docname="noun_43259_cc.svg"><metadata
    id="metadata3348"><rdf:RDF><cc:Work
    rdf:about=""><dc:format>image/svg+xml</dc:format><dc:type
    rdf:resource="http://purl.org/dc/dcmitype/StillImage" /></cc:Work></rdf:RDF></metadata><defs
    id="defs3346"><linearGradient
    id="linearGradient4476"
    osb:paint="solid"><stop
    style="stop-color:#000000;stop-opacity:1;"
    offset="0"
    id="stop4478" /></linearGradient><linearGradient
    id="linearGradient4456"
    osb:paint="solid"><stop
    style="stop-color:#007fff;stop-opacity:1;"
    offset="0"
    id="stop4458" /></linearGradient><linearGradient
    id="linearGradient4442"
    osb:paint="solid"><stop
    style="stop-color:#007fff;stop-opacity:0;"
    offset="0"
    id="stop4444" /></linearGradient><linearGradient
    id="linearGradient4432"
    osb:paint="solid"><stop
    style="stop-color:#000000;stop-opacity:0;"
    offset="0"
    id="stop4434" /></linearGradient><linearGradient
    id="linearGradient4426"
    osb:paint="solid"><stop
    style="stop-color:#007fff;stop-opacity:1;"
    offset="0"
    id="stop4428" /></linearGradient><linearGradient
    id="linearGradient4420"
    osb:paint="solid"><stop
    style="stop-color:#007fff;stop-opacity:1;"
    offset="0"
    id="stop4422" /></linearGradient><linearGradient
    id="linearGradient4236"
    osb:paint="solid"><stop
    style="stop-color:#000000;stop-opacity:1;"
    offset="0"
    id="stop4238" /></linearGradient><linearGradient
    id="linearGradient4208"
    osb:paint="solid"><stop
    style="stop-color:#000000;stop-opacity:1;"
    offset="0"
    id="stop4210" /></linearGradient><linearGradient
    id="linearGradient4200"
    osb:paint="solid"><stop
    style="stop-color:#000000;stop-opacity:0;"
    offset="0"
    id="stop4202" /></linearGradient><linearGradient
    id="linearGradient4194"
    osb:paint="solid"><stop
    style="stop-color:#e7ae18;stop-opacity:1;"
    offset="0"
    id="stop4196" /></linearGradient><linearGradient
    id="linearGradient4188"
    osb:paint="solid"><stop
    style="stop-color:#ffbf00;stop-opacity:1;"
    offset="0"
    id="stop4190" /></linearGradient><linearGradient
    id="linearGradient4182"
    osb:paint="solid"><stop
    style="stop-color:#e7ae18;stop-opacity:0;"
    offset="0"
    id="stop4184" /></linearGradient><linearGradient
    id="linearGradient4176"
    osb:paint="solid"><stop
    style="stop-color:#e7ae18;stop-opacity:0;"
    offset="0"
    id="stop4178" /></linearGradient><linearGradient
    id="linearGradient4170"
    osb:paint="solid"><stop
    style="stop-color:#007fff;stop-opacity:1;"
    offset="0"
    id="stop4172" /></linearGradient><linearGradient
    inkscape:collect="always"
    xlink:href="#linearGradient4170"
    id="linearGradient4174"
    x1="-1.3824502"
    y1="58.164425"
    x2="98.023698"
    y2="58.164425"
    gradientUnits="userSpaceOnUse" /><linearGradient
    inkscape:collect="always"
    xlink:href="#linearGradient4194"
    id="linearGradient4198"
    x1="41.905"
    y1="50.000028"
    x2="106.881"
    y2="50.000028"
    gradientUnits="userSpaceOnUse" /><linearGradient
    inkscape:collect="always"
    xlink:href="#linearGradient4208"
    id="linearGradient4212"
    x1="36.6"
    y1="44.9"
    x2="86.1"
    y2="44.9"
    gradientUnits="userSpaceOnUse" /><linearGradient
    inkscape:collect="always"
    xlink:href="#linearGradient4208"
    id="linearGradient4214"
    x1="6.6"
    y1="55.25"
    x2="63.2"
    y2="55.25"
    gradientUnits="userSpaceOnUse" /><linearGradient
    inkscape:collect="always"
    xlink:href="#linearGradient4194"
    id="linearGradient4414"
    gradientUnits="userSpaceOnUse"
    gradientTransform="translate(-237.07987,13.058909)"
    x1="253.8553"
    y1="116.4183"
    x2="294.58182"
    y2="116.4183" /><linearGradient
    inkscape:collect="always"
    xlink:href="#linearGradient4420"
    id="linearGradient4454"
    gradientUnits="userSpaceOnUse"
    x1="36.775494"
    y1="28.890003"
    x2="75.685654"
    y2="28.890003"
    gradientTransform="translate(0,2)" /><linearGradient
    inkscape:collect="always"
    xlink:href="#linearGradient4456"
    id="linearGradient4460"
    x1="73.343384"
    y1="31.878039"
    x2="131.51524"
    y2="31.878039"
    gradientUnits="userSpaceOnUse" /><linearGradient
    inkscape:collect="always"
    xlink:href="#linearGradient4476"
    id="linearGradient4480"
    x1="36.775494"
    y1="30.890003"
    x2="75.68565"
    y2="30.890003"
    gradientUnits="userSpaceOnUse" /></defs><sodipodi:namedview
    pagecolor="#ffffff"
    bordercolor="#666666"
    borderopacity="1"
    objecttolerance="10"
    gridtolerance="10"
    guidetolerance="10"
    inkscape:pageopacity="0"
    inkscape:pageshadow="2"
    inkscape:window-width="1600"
    inkscape:window-height="838"
    id="namedview3344"
    showgrid="false"
    inkscape:zoom="5.352"
    inkscape:cx="80.14787"
    inkscape:cy="46.847878"
    inkscape:window-x="-8"
    inkscape:window-y="-8"
    inkscape:window-maximized="1"
    inkscape:current-layer="svg3336" /><path
    d="m 41.905,69.451 3.136,16.723 18.987,0 c 0,0 0.871,-6.795 -1.045,-12.717 0,0 -16.55,-34.666 -6.098,-47.034 0,0 14.981,-22.125 35.015,0 0,0 10.278,12.368 -6.096,47.905 0,0 -2.439,6.096 -1.221,11.846 l 19.337,0 2.961,-16.201 -2.09,-0.174 -3.311,10.103 -13.238,-0.174 c 0,0 0.174,-6.619 4.703,-11.148 0,0 18.116,-20.729 11.846,-36.582 0,0 -10.277,-23.865 -40.239,-16.897 0,0 -15.505,5.051 -20.034,17.245 0,0 -7.142,11.149 12.543,37.28 0,0 5.227,6.792 3.831,10.277 L 47.48,80.078 43.996,69.276 41.905,69.451 Z"
    id="path3338"
    inkscape:connector-curvature="0"
    style="fill:url(#linearGradient4198);fill-opacity:1" /><path
    inkscape:connector-curvature="0"
    d="m 13.477824,58.163425 c -9.1401823,6.415 -14.5110365,12.117 -14.7388775,12.361 -0.182494,0.193 -0.1559495,0.481 0.057514,0.646 l 4.6364539,3.548 c 0.2134626,0.163 0.5342104,0.14 0.7144925,-0.053 0.054197,-0.057 5.3929742,-5.711 14.2920424,-11.868 0.330701,-0.23 0.67578,-0.466 1.026391,-0.702 3.919749,2.403 7.930194,4.528 11.92073,6.318 7.366122,3.303 14.822938,5.542 22.165833,6.656 3.180926,0.482 6.315399,0.728 9.318255,0.728 4.041413,0 7.931301,-0.442 11.562378,-1.315 5.155179,-1.24 9.865737,-3.348 14.000056,-6.264 4.046944,-2.854 6.735688,-5.931 8.277483,-8.01 0.460106,-0.618 0.879289,-1.231 1.247595,-1.819 0.08737,-0.14 0.08737,-0.311 0,-0.451 -0.368306,-0.588 -0.787489,-1.2 -1.247595,-1.819 -1.541795,-2.079 -4.230539,-5.156001 -8.277483,-8.010001 -4.134319,-2.916 -8.844877,-5.022 -14.000056,-6.263 -3.631077,-0.872 -7.519859,-1.315 -11.562378,-1.315 -3.002856,0 -6.137329,0.245 -9.318255,0.728 -7.341789,1.113 -14.798605,3.354 -22.165833,6.655 -3.990536,1.791 -8.000981,3.915001 -11.92073,6.318001 -0.305263,-0.205 -0.612738,-0.413 -0.908046,-0.617 C 9.6233328,47.448424 4.2027076,41.721424 4.1485124,41.662424 c -0.1791762,-0.191 -0.499923,-0.216 -0.7144922,-0.053 l -4.636454,3.548 c -0.2123566,0.163 -0.2400073,0.453 -0.057514,0.646 0.226735,0.242 5.5975892,5.946001 14.7377716,12.360001 z m 12.281294,0 c 9.667759,-5.574 19.40962,-9.136001 28.964564,-10.586001 2.833635,-0.43 5.598696,-0.646 8.216655,-0.646 8.05407,0 15.090596,2.044 20.912708,6.077001 2.149005,1.489 4.080124,3.222 5.743584,5.155 -1.66346,1.933 -3.594579,3.666 -5.743584,5.155 -5.823218,4.033 -12.858638,6.079 -20.913814,6.079 -2.617959,0 -5.381914,-0.219 -8.215549,-0.648 -9.553838,-1.449 -19.296805,-5.011 -28.964564,-10.586 z"
    id="path3340"
    style="fill:url(#linearGradient4174);fill-opacity:1" /><g
    transform="translate(-21.354485,40.621973)"
    id="g3338"
    style="fill:url(#linearGradient4214);fill-opacity:1"><path
    inkscape:connector-curvature="0"
    d="M 40.6,35.3 36.1,25.5 C 26.2,45.3 16.4,65 6.6,84.8 c 2.9,0 5.5,0.1 8.1,0 0.5,0 1.3,-0.5 1.6,-1 2,-3.9 3.9,-7.8 5.9,-11.7 6,-12.1 12.1,-24.1 18.1,-36.2 0,-0.3 0.2,-0.4 0.3,-0.6 z"
    id="path3340-4"
    style="fill:url(#linearGradient4214);fill-opacity:1" /><path
    inkscape:connector-curvature="0"
    d="m 59.1,76 c -0.6,0 -1.1,0 -1.6,0 -9.3,0 -18.6,-0.1 -27.9,-0.1 -0.7,0 -1.8,0.5 -2.1,1.1 -1.3,2.5 -2.3,5 -3.5,8 13.1,0 26.1,0 39.2,0 l -4.1,-9 z"
    id="path3342"
    style="fill:url(#linearGradient4214);fill-opacity:1" /></g><g
    transform="translate(-21.354485,40.621973)"
    id="g3344"
    style="fill:url(#linearGradient4212);fill-opacity:1"><polygon
    points="46.2,5.2 86.1,84.6 64.2,84.4 36.6,24.1 "
    id="polygon3346"
    style="fill:url(#linearGradient4212);fill-opacity:1" /></g><text
    xml:space="preserve"
    style="font-style:normal;font-weight:normal;font-size:25.98387718px;line-height:125%;font-family:sans-serif;letter-spacing:0px;word-spacing:0px;fill:#e7ae18;fill-opacity:1;stroke:none;stroke-width:1px;stroke-linecap:butt;stroke-linejoin:miter;stroke-opacity:1;"
    x="3.2607682"
    y="56.8004"
    id="text4216"
    sodipodi:linespacing="125%"
    transform="scale(1.1111751,0.89994818)"><tspan
    sodipodi:role="line"
    id="tspan4218"
    x="3.2607682"
    y="56.8004">IN</tspan></text>
<text
    xml:space="preserve"
    style="font-style:normal;font-weight:normal;font-size:3.66016889px;line-height:125%;font-family:sans-serif;letter-spacing:0px;word-spacing:0px;fill:url(#linearGradient4414);fill-opacity:1;stroke:none;stroke-width:1px;stroke-linecap:butt;stroke-linejoin:miter;stroke-opacity:1"
    x="16.775427"
    y="126.23615"
    id="text4220"
    sodipodi:linespacing="125%"
    transform="scale(1.3704173,0.72970474)"><tspan
    sodipodi:role="line"
    id="tspan4222"
    x="16.775427"
    y="126.23615"
    style="font-style:italic;font-variant:normal;font-weight:600;font-stretch:normal;font-family:'Adobe Hebrew';-inkscape-font-specification:'Adobe Hebrew Semi-Bold Italic';fill:url(#linearGradient4414);fill-opacity:1">        INICIO EN LA </tspan><tspan
    sodipodi:role="line"
    x="16.775427"
    y="130.81136"
    id="tspan4226"
    style="font-style:italic;font-variant:normal;font-weight:600;font-stretch:normal;font-family:'Adobe Hebrew';-inkscape-font-specification:'Adobe Hebrew Semi-Bold Italic';fill:url(#linearGradient4414);fill-opacity:1">        SOLUCIÓN DE</tspan><tspan
    sodipodi:role="line"
    x="16.775427"
    y="135.38657"
    id="tspan4224"
    style="font-style:italic;font-variant:normal;font-weight:600;font-stretch:normal;font-family:'Adobe Hebrew';-inkscape-font-specification:'Adobe Hebrew Semi-Bold Italic';fill:url(#linearGradient4414);fill-opacity:1"> SISTEMAS PARA UN FIN</tspan></text>
<text
    xml:space="preserve"
    style="font-style:normal;font-weight:normal;font-size:40px;line-height:125%;font-family:sans-serif;letter-spacing:0px;word-spacing:0px;fill:#000000;fill-opacity:1;stroke:none;stroke-width:1px;stroke-linecap:butt;stroke-linejoin:miter;stroke-opacity:1"
    x="35.127056"
    y="38.303436"
    id="text4252"
    sodipodi:linespacing="125%"><tspan
    sodipodi:role="line"
    id="tspan4254"
    x="35.127056"
    y="38.303436"></tspan></text>
<text
    xml:space="preserve"
    style="font-style:normal;font-weight:normal;font-size:40px;line-height:125%;font-family:sans-serif;letter-spacing:0px;word-spacing:0px;fill:url(#linearGradient4480);fill-opacity:1;stroke:url(#linearGradient4454);stroke-width:1px;stroke-linecap:butt;stroke-linejoin:miter;stroke-opacity:0"
    x="35.127056"
    y="41.798206"
    id="text4416"
    sodipodi:linespacing="125%"><tspan
    sodipodi:role="line"
    id="tspan4418"
    x="35.127056"
    y="41.798206"
    style="fill:url(#linearGradient4480);fill-opacity:1;stroke:url(#linearGradient4454);stroke-opacity:0">ss</tspan></text>
<text
    xml:space="preserve"
    style="font-style:normal;font-weight:normal;font-size:29.15711403px;line-height:125%;font-family:sans-serif;letter-spacing:0px;word-spacing:0px;fill:url(#linearGradient4460);fill-opacity:1;stroke:none;stroke-width:1px;stroke-linecap:butt;stroke-linejoin:miter;stroke-opacity:1"
    x="70.49601"
    y="42.47739"
    id="text4438"
    sodipodi:linespacing="125%"
    transform="scale(1.0442573,0.95761839)"><tspan
    sodipodi:role="line"
    id="tspan4440"
    x="70.49601"
    y="42.47739"
    style="fill-opacity:1;fill:url(#linearGradient4460)">END</tspan></text>
</svg>