<svg xmlns="http://www.w3.org/2000/svg" xmlns:xlink="http://www.w3.org/1999/xlink" version="1.1" x="0px" y="0px" viewBox="0 0 100 125" enable-background="new 0 0 100 100" xml:space="preserve"><rect x="5" y="5" fill="none" width="90" height="90"/><path d="M81.502,50c8.264-6.415,13.12-12.117,13.326-12.361c0.165-0.193,0.141-0.481-0.052-0.646l-4.192-3.548  c-0.193-0.163-0.483-0.14-0.646,0.053c-0.049,0.057-4.876,5.711-12.922,11.868c-0.299,0.23-0.611,0.466-0.928,0.702  c-3.544-2.403-7.17-4.528-10.778-6.318c-6.66-3.303-13.402-5.542-20.041-6.656c-2.876-0.482-5.71-0.728-8.425-0.728  c-3.654,0-7.171,0.442-10.454,1.315c-4.661,1.24-8.92,3.348-12.658,6.264c-3.659,2.854-6.09,5.931-7.484,8.01  c-0.416,0.618-0.795,1.231-1.128,1.819c-0.079,0.14-0.079,0.311,0,0.451c0.333,0.588,0.712,1.2,1.128,1.819  c1.394,2.079,3.825,5.156,7.484,8.01c3.738,2.916,7.997,5.022,12.658,6.263c3.283,0.872,6.799,1.315,10.454,1.315  c2.715,0,5.549-0.245,8.425-0.728c6.638-1.113,13.38-3.354,20.041-6.655c3.608-1.791,7.234-3.915,10.778-6.318  c0.276,0.205,0.554,0.413,0.821,0.617c8.078,6.167,12.979,11.894,13.028,11.953c0.162,0.191,0.452,0.216,0.646,0.053l4.192-3.548  c0.192-0.163,0.217-0.453,0.052-0.646C94.622,62.118,89.766,56.414,81.502,50z M70.398,50c-8.741,5.574-17.549,9.136-26.188,10.586  c-2.562,0.43-5.062,0.646-7.429,0.646c-7.282,0-13.644-2.044-18.908-6.077c-1.943-1.489-3.689-3.222-5.193-5.155  c1.504-1.933,3.25-3.666,5.193-5.155c5.265-4.033,11.626-6.079,18.909-6.079c2.367,0,4.866,0.219,7.428,0.648  C52.848,40.863,61.657,44.425,70.398,50z"/><text x="0" y="115" fill="#000000" font-size="5px" font-weight="bold" font-family="'Helvetica Neue', Helvetica, Arial-Unicode, Arial, Sans-serif">Created by Tinashe Mugayi</text><text x="0" y="120" fill="#000000" font-size="5px" font-weight="bold" font-family="'Helvetica Neue', Helvetica, Arial-Unicode, Arial, Sans-serif">from the Noun Project</text></svg>