<svg xmlns="http://www.w3.org/2000/svg" xmlns:xlink="http://www.w3.org/1999/xlink" version="1.1" x="0px" y="0px" viewBox="0 0 90 112.5" enable-background="new 0 0 90 90" xml:space="preserve"><g><path d="M40.6,35.3l-4.5-9.8C26.2,45.3,16.4,65,6.6,84.8c2.9,0,5.5,0.1,8.1,0c0.5,0,1.3-0.5,1.6-1c2-3.9,3.9-7.8,5.9-11.7   c6-12.1,12.1-24.1,18.1-36.2C40.3,35.6,40.5,35.5,40.6,35.3z"/><path d="M59.1,76c-0.6,0-1.1,0-1.6,0c-9.3,0-18.6-0.1-27.9-0.1c-0.7,0-1.8,0.5-2.1,1.1c-1.3,2.5-2.3,5-3.5,8c13.1,0,26.1,0,39.2,0   L59.1,76z"/></g><g><polygon points="36.6,24.1 46.2,5.2 86.1,84.6 64.2,84.4  "/></g><text x="0" y="105" fill="#000000" font-size="5px" font-weight="bold" font-family="'Helvetica Neue', Helvetica, Arial-Unicode, Arial, Sans-serif">Created by Anand Prahlad</text><text x="0" y="110" fill="#000000" font-size="5px" font-weight="bold" font-family="'Helvetica Neue', Helvetica, Arial-Unicode, Arial, Sans-serif">from the Noun Project</text></svg>