<?xml version="1.0" encoding="UTF-8" standalone="no"?>
<!-- Created with Inkscape (http://www.inkscape.org/) -->

<svg
    xmlns:dc="http://purl.org/dc/elements/1.1/"
    xmlns:cc="http://creativecommons.org/ns#"
    xmlns:rdf="http://www.w3.org/1999/02/22-rdf-syntax-ns#"
    xmlns:svg="http://www.w3.org/2000/svg"
    xmlns="http://www.w3.org/2000/svg"
    xmlns:xlink="http://www.w3.org/1999/xlink"
    xmlns:sodipodi="http://sodipodi.sourceforge.net/DTD/sodipodi-0.dtd"
    xmlns:inkscape="http://www.inkscape.org/namespaces/inkscape"
    width="210mm"
    height="297mm"
    viewBox="0 0 744.09448819 1052.3622047"
    id="svg2"
    version="1.1"
    inkscape:version="0.91 r13725"
    sodipodi:docname="drawing.svg">
    <defs
        id="defs4">
        <symbol
            id="BaggageCheckIn_Inv">
            <title
                id="title5211">Baggage Check In</title>
            <rect
                x="0.5"
                y="0.5"
                width="71"
                height="71"
                ry="6"
                style="stroke:white"
                id="rect5213" />
            <path
                d="m 31,14 a 3,3 0 0 0 -3,3 l 0,5 -6,0 0,36 29,0 0,-36 -7,0 0,-5 a 3,3 0 0 0 -3,-3 l -10,0 z m 0,3 10,0 0,5 -10,0 0,-5 z m -16,5 a 5,5 0 0 0 -5,5 l 0,26 a 5,5 0 0 0 5,5 l 4,0 0,-36 -4,0 z m 39,0 0,36 3,0 a 5,5 0 0 0 5,-5 l 0,-26 a 5,5 0 0 0 -5,-5 l -3,0 z"
                style="fill:white;stroke:none"
                id="path5215" />
        </symbol>
        <symbol
            id="Cashier_Inv">
            <title
                id="title4311">Cashier</title>
            <rect
                x="0.5"
                y="0.5"
                width="71"
                height="71"
                ry="6"
                style="stroke:white"
                id="rect4313" />
            <g
                style="fill:none;stroke:white;stroke-width:6"
                id="g4315">
                <circle
                    cx="36"
                    cy="36"
                    r="24"
                    id="circle4317" />
                <path
                    d="m 45,30 c 0,-4 -4,-6 -9,-6 -5,0 -9,2 -9,6 0,4 4,5.5 9,6 5,0.5 10,1 10,6 0,5 -5,6 -10,6 -5,0 -9,-3 -9,-7 m 9,-24 0,38"
                    id="path4319" />
            </g>
        </symbol>
    </defs>
    <sodipodi:namedview
        id="base"
        pagecolor="#ffffff"
        bordercolor="#666666"
        borderopacity="1.0"
        inkscape:pageopacity="0.0"
        inkscape:pageshadow="2"
        inkscape:zoom="0.35"
        inkscape:cx="-400.71429"
        inkscape:cy="514.28571"
        inkscape:document-units="px"
        inkscape:current-layer="layer1"
        showgrid="false"
        inkscape:window-width="1355"
        inkscape:window-height="666"
        inkscape:window-x="1"
        inkscape:window-y="31"
        inkscape:window-maximized="1" />
    <metadata
        id="metadata7">
        <rdf:RDF>
            <cc:Work
                rdf:about="">
                <dc:format>image/svg+xml</dc:format>
                <dc:type
                    rdf:resource="http://purl.org/dc/dcmitype/StillImage" />
                <dc:title></dc:title>
            </cc:Work>
        </rdf:RDF>
    </metadata>
    <g
        inkscape:label="Capa 1"
        inkscape:groupmode="layer"
        id="layer1">
        <use
            id="use10711"
            style="fill:#d43100;fill-opacity:1;stroke:#000000"
            xlink:href="#Cashier_Inv"
            x="0"
            y="0"
            width="100%"
            height="100%"
            transform="matrix(1.6124264,0,0,1.4758964,-3.5116944e-4,946.09734)" />
    </g>
</svg>
