<?xml version="1.0" encoding="UTF-8" standalone="no"?>
<svg
   xmlns:dc="http://purl.org/dc/elements/1.1/"
   xmlns:cc="http://creativecommons.org/ns#"
   xmlns:rdf="http://www.w3.org/1999/02/22-rdf-syntax-ns#"
   xmlns:svg="http://www.w3.org/2000/svg"
   xmlns="http://www.w3.org/2000/svg"
   xmlns:sodipodi="http://sodipodi.sourceforge.net/DTD/sodipodi-0.dtd"
   xmlns:inkscape="http://www.inkscape.org/namespaces/inkscape"
   version="1.1"
   x="0px"
   y="0px"
   viewBox="0 0 100 125"
   enable-background="new 0 0 100 100"
   xml:space="preserve"
   id="svg2"
   inkscape:version="0.91 r13725"
   sodipodi:docname="empresa2.svg"
   inkscape:export-filename="/home/adminlinux/apps/SOFACKAR/src/images/empresa.png"
   inkscape:export-xdpi="90"
   inkscape:export-ydpi="90"><metadata
     id="metadata52"><rdf:RDF><cc:Work
         rdf:about=""><dc:format>image/svg+xml</dc:format><dc:type
           rdf:resource="http://purl.org/dc/dcmitype/StillImage" /><dc:title></dc:title></cc:Work></rdf:RDF></metadata><defs
     id="defs50" /><sodipodi:namedview
     pagecolor="#ffffff"
     bordercolor="#666666"
     borderopacity="1"
     objecttolerance="10"
     gridtolerance="10"
     guidetolerance="10"
     inkscape:pageopacity="0"
     inkscape:pageshadow="2"
     inkscape:window-width="1364"
     inkscape:window-height="744"
     id="namedview48"
     showgrid="false"
     inkscape:zoom="1.888"
     inkscape:cx="-10.116525"
     inkscape:cy="62.5"
     inkscape:window-x="1"
     inkscape:window-y="1"
     inkscape:window-maximized="1"
     inkscape:current-layer="svg2" /><path
     d="M31.947,87.512h5.72c0.552,0,1-0.447,1-1s-0.448-1-1-1h-5.72c-0.552,0-1,0.447-1,1S31.395,87.512,31.947,87.512z   M37.162,72.176h19.52c0.553,0,1-0.447,1-1v-4.927c0-0.554-0.447-1-1-1h-19.52c-0.552,0-1,0.446-1,1v4.927  C36.162,71.729,36.61,72.176,37.162,72.176z M48.265,67.249h7.417v2.927h-7.417V67.249z M38.162,67.249h8.103v2.927h-8.103V67.249z   M93.584,59.766L78.391,45.778c-0.049-0.045-0.108-0.068-0.164-0.102c-0.047-0.029-0.088-0.066-0.141-0.087  c-0.12-0.048-0.247-0.075-0.375-0.075h-7.044V30.627l0,0c0-1.812-2.785-2.624-5.546-2.624c-2.76,0-5.544,0.812-5.544,2.624l0,0  v14.887h-5.17V30.627l0,0c0-1.812-2.785-2.624-5.545-2.624c-2.761,0-5.547,0.812-5.547,2.624l0,0v14.887h-5.167V30.627l0,0  c0-1.812-2.786-2.624-5.546-2.624c-2.761,0-5.547,0.812-5.547,2.624l0,0v14.887h-4.767c-0.05,0-0.094,0.021-0.142,0.029  c-0.074,0.011-0.148,0.017-0.219,0.044c-0.071,0.028-0.129,0.074-0.191,0.116c-0.041,0.027-0.087,0.041-0.125,0.075L6.417,59.766  c-0.005,0.004-0.006,0.01-0.011,0.016c-0.059,0.057-0.099,0.127-0.143,0.195C6.237,60.02,6.201,60.055,6.181,60.1  c-0.021,0.047-0.023,0.103-0.037,0.152C6.124,60.328,6.1,60.4,6.098,60.48c0,0.008-0.004,0.014-0.004,0.021V94c0,0.553,0.448,1,1,1  h55.423c0.004,0,0.006-0.002,0.01-0.002h30.379c0.553,0,1-0.447,1-1V60.5C93.906,60.221,93.789,59.953,93.584,59.766z   M65.121,30.002c1.693,0,2.865,0.348,3.357,0.625c-0.492,0.276-1.664,0.624-3.357,0.624c-1.691,0-2.864-0.348-3.355-0.624  C62.257,30.35,63.43,30.002,65.121,30.002z M61.577,32.716c1.006,0.361,2.274,0.535,3.544,0.535s2.539-0.174,3.546-0.535v3.076  c-0.304,0.281-1.567,0.755-3.546,0.755c-1.977,0-3.241-0.474-3.544-0.754V32.716z M61.577,38.012  c1.006,0.361,2.274,0.535,3.544,0.535s2.539-0.174,3.546-0.535v3.075c-0.304,0.281-1.567,0.755-3.546,0.755  c-1.977,0-3.241-0.474-3.544-0.754V38.012z M61.577,43.308c1.006,0.361,2.274,0.535,3.544,0.535s2.539-0.174,3.546-0.535v3.075  c-0.304,0.281-1.567,0.755-3.546,0.755c-1.977,0-3.241-0.474-3.544-0.755V43.308z M48.862,30.002c1.693,0,2.865,0.348,3.357,0.625  c-0.492,0.276-1.664,0.624-3.357,0.624c-1.694,0-2.867-0.348-3.359-0.624C45.996,30.35,47.169,30.002,48.862,30.002z M45.315,32.716  c1.007,0.361,2.278,0.535,3.547,0.535s2.539-0.174,3.545-0.535v3.077c-0.304,0.281-1.567,0.754-3.545,0.754  s-3.244-0.474-3.547-0.755V32.716z M45.315,38.012c1.007,0.361,2.278,0.535,3.547,0.535s2.539-0.174,3.545-0.535v3.076  c-0.304,0.28-1.568,0.754-3.545,0.754c-1.978,0-3.243-0.474-3.547-0.755V38.012z M45.315,43.307  c1.007,0.361,2.278,0.535,3.547,0.535s2.539-0.174,3.545-0.535v3.075c-0.304,0.281-1.568,0.755-3.545,0.755  c-1.978,0-3.243-0.474-3.547-0.755V43.307z M32.603,30.002c1.693,0,2.866,0.348,3.358,0.625c-0.493,0.276-1.665,0.624-3.358,0.624  c-1.694,0-2.867-0.348-3.359-0.624C29.736,30.35,30.909,30.002,32.603,30.002z M29.056,32.716c1.007,0.361,2.278,0.535,3.547,0.535  s2.54-0.174,3.546-0.535v3.076c-0.302,0.281-1.568,0.755-3.546,0.755s-3.244-0.474-3.547-0.755V32.716z M29.056,38.012  c1.007,0.361,2.278,0.535,3.547,0.535s2.54-0.174,3.546-0.535v3.076c-0.304,0.281-1.569,0.755-3.546,0.755  c-1.978,0-3.243-0.474-3.547-0.755V38.012z M29.056,43.307c1.007,0.361,2.278,0.535,3.547,0.535s2.54-0.174,3.546-0.535v3.075  c-0.303,0.281-1.568,0.755-3.546,0.755s-3.243-0.474-3.547-0.755V43.307z M40.426,93H29.188V78.033h11.237L40.426,93L40.426,93z   M61.52,93H42.426V77.033c0-0.553-0.448-1-1-1H28.188c-0.552,0-1,0.447-1,1V93H8.095V61.5H61.52V93z M62.129,59.5H9.657  l13.022-11.986h4.718c0.821,1.112,3.019,1.624,5.205,1.624s4.383-0.511,5.204-1.624h5.851c0.821,1.112,3.019,1.624,5.205,1.624  s4.382-0.511,5.203-1.624h5.854c0.819,1.112,3.017,1.624,5.202,1.624c2.188,0,4.383-0.511,5.204-1.624h4.825L62.129,59.5z   M12.936,72.176h19.519c0.552,0,1-0.447,1-1v-4.927c0-0.554-0.448-1-1-1H12.936c-0.552,0-1,0.446-1,1v4.927  C11.936,71.729,12.383,72.176,12.936,72.176z M23.694,67.249h7.76v2.927h-7.76V67.249z M13.936,67.249h7.759v2.927h-7.759V67.249z   M56.682,85.512h-9.417c-0.552,0-1,0.447-1,1s0.448,1,1,1h9.417c0.553,0,1-0.447,1-1S57.232,85.512,56.682,85.512z M12.936,87.512  h9.413c0.552,0,1-0.447,1-1s-0.448-1-1-1h-9.413c-0.552,0-1,0.447-1,1S12.383,87.512,12.936,87.512z M56.682,76.033h-9.417  c-0.552,0-1,0.447-1,1v5.785c0,0.553,0.448,1,1,1h9.417c0.553,0,1-0.447,1-1v-5.785C57.682,76.48,57.232,76.033,56.682,76.033z   M55.682,81.818h-7.417v-3.785h7.417V81.818z M12.936,83.818h9.413c0.552,0,1-0.447,1-1v-5.785c0-0.553-0.448-1-1-1h-9.413  c-0.552,0-1,0.447-1,1v5.785C11.936,83.371,12.383,83.818,12.936,83.818z M13.936,78.033h7.413v3.785h-7.413V78.033z"
     id="path4"
     style="fill:#007fff;fill-opacity:1" /><g
     id="g6"
     style="fill:#ff8d10;fill-opacity:1"><g
       id="g8"
       style="fill:#ff8d10;fill-opacity:1"><g
         id="g10"
         style="fill:#ff8d10;fill-opacity:1"><path
           d="M48.512,8.585c0-0.143,0.051-0.265,0.153-0.366c0.102-0.102,0.229-0.153,0.382-0.153c0.152,0,0.279,0.051,0.381,0.153     c0.102,0.102,0.153,0.224,0.153,0.366v0.917c0.662,0.051,1.293,0.193,1.894,0.428c0.561,0.213,0.84,0.545,0.84,0.993     c0,0.275-0.092,0.504-0.274,0.687c-0.184,0.184-0.412,0.275-0.688,0.275c-0.092,0-0.184-0.013-0.274-0.038     c-0.092-0.025-0.204-0.069-0.337-0.13s-0.244-0.107-0.335-0.137c-0.581-0.204-1.029-0.306-1.344-0.306     c-0.987,0-1.481,0.295-1.481,0.886c0,0.356,0.27,0.652,0.81,0.886c0.163,0.071,0.654,0.234,1.474,0.489     c0.82,0.254,1.413,0.524,1.779,0.809c0.672,0.499,1.008,1.191,1.008,2.077c0,0.835-0.279,1.517-0.84,2.046     c-0.56,0.53-1.303,0.855-2.229,0.978v0.886c0,0.143-0.051,0.265-0.153,0.366S49.2,20.85,49.048,20.85     c-0.153,0-0.28-0.051-0.382-0.153s-0.153-0.224-0.153-0.366v-0.855c-0.773-0.031-1.532-0.209-2.275-0.535     c-0.58-0.244-0.871-0.59-0.871-1.039c0-0.274,0.097-0.507,0.291-0.695c0.192-0.188,0.422-0.283,0.687-0.283     c0.082,0,0.164,0.013,0.245,0.039c0.082,0.025,0.15,0.05,0.207,0.076c0.056,0.025,0.14,0.071,0.252,0.138l0.274,0.16     c0.469,0.244,0.988,0.367,1.558,0.367c0.55,0,0.942-0.109,1.176-0.329s0.352-0.481,0.352-0.787c0-0.407-0.275-0.733-0.825-0.977     c-0.184-0.082-0.605-0.227-1.268-0.436c-0.662-0.209-1.161-0.41-1.497-0.603c-0.937-0.52-1.405-1.324-1.405-2.414     c0-0.723,0.272-1.324,0.817-1.802c0.545-0.478,1.306-0.758,2.283-0.84V8.585z"
           id="path12"
           style="fill:#ff8d10;fill-opacity:1" /></g></g><g
       id="g14"
       style="fill:#ff8d10;fill-opacity:1"><path
         d="M49.009,23.917c-5.215,0-9.458-4.243-9.458-9.458S43.794,5,49.009,5s9.458,4.243,9.458,9.458S54.225,23.917,49.009,23.917    z M49.009,7c-4.113,0-7.458,3.346-7.458,7.458c0,4.112,3.346,7.458,7.458,7.458c4.112,0,7.458-3.346,7.458-7.458    C56.467,10.346,53.121,7,49.009,7z"
         id="path16"
         style="fill:#ff8d10;fill-opacity:1" /></g><g
       id="g18"
       style="fill:#ff8d10;fill-opacity:1"><g
         id="g20"
         style="fill:#ff8d10;fill-opacity:1"><g
           id="g22"
           style="fill:#ff8d10;fill-opacity:1"><g
             id="g24"
             style="fill:#ff8d10;fill-opacity:1"><path
               d="M68.261,15.637c0.011-0.081,0.05-0.146,0.115-0.196c0.065-0.049,0.142-0.069,0.229-0.057       c0.086,0.012,0.153,0.05,0.204,0.116c0.05,0.065,0.068,0.139,0.058,0.219l-0.07,0.519c0.371,0.08,0.717,0.209,1.039,0.388       c0.301,0.165,0.434,0.374,0.399,0.627c-0.021,0.155-0.092,0.278-0.209,0.368c-0.118,0.089-0.255,0.124-0.41,0.102       c-0.053-0.007-0.103-0.021-0.153-0.042c-0.049-0.021-0.109-0.055-0.181-0.1c-0.069-0.045-0.13-0.079-0.179-0.104       c-0.313-0.16-0.559-0.253-0.737-0.277c-0.559-0.076-0.861,0.053-0.907,0.388c-0.027,0.202,0.102,0.39,0.39,0.564       c0.087,0.053,0.353,0.183,0.797,0.391c0.445,0.208,0.76,0.406,0.945,0.596c0.342,0.334,0.478,0.752,0.409,1.254       c-0.064,0.473-0.274,0.837-0.633,1.094c-0.357,0.256-0.804,0.384-1.338,0.381l-0.068,0.502       c-0.011,0.081-0.049,0.146-0.114,0.195c-0.066,0.05-0.142,0.069-0.228,0.058c-0.087-0.012-0.155-0.051-0.205-0.116       c-0.051-0.065-0.07-0.139-0.059-0.219l0.065-0.485c-0.435-0.077-0.851-0.236-1.246-0.478c-0.31-0.183-0.447-0.402-0.413-0.656       c0.021-0.155,0.094-0.279,0.219-0.371c0.123-0.092,0.261-0.128,0.41-0.107c0.047,0.006,0.093,0.02,0.135,0.041       c0.045,0.021,0.081,0.04,0.112,0.059c0.029,0.019,0.073,0.051,0.132,0.098l0.144,0.111c0.246,0.175,0.529,0.284,0.853,0.328       c0.312,0.042,0.542,0.01,0.691-0.095c0.149-0.106,0.236-0.245,0.26-0.418c0.031-0.23-0.099-0.436-0.392-0.617       c-0.098-0.061-0.325-0.175-0.684-0.345c-0.359-0.169-0.626-0.321-0.801-0.457c-0.49-0.366-0.694-0.858-0.61-1.475       c0.056-0.409,0.257-0.729,0.603-0.957s0.798-0.329,1.356-0.3L68.261,15.637z"
               id="path26"
               style="fill:#ff8d10;fill-opacity:1" /></g></g><g
           id="g28"
           style="fill:#ff8d10;fill-opacity:1"><path
             d="M68.096,25.668c-0.299,0-0.602-0.021-0.906-0.062c-3.643-0.497-6.202-3.864-5.706-7.506      c0.488-3.585,3.832-6.206,7.507-5.705c3.643,0.497,6.201,3.864,5.705,7.507C74.247,23.188,71.409,25.668,68.096,25.668z       M68.083,14.333c-2.318,0-4.304,1.736-4.617,4.038c-0.348,2.549,1.443,4.907,3.993,5.254c2.584,0.35,4.912-1.484,5.254-3.994      c0.348-2.549-1.443-4.907-3.992-5.255C68.506,14.347,68.294,14.333,68.083,14.333z"
             id="path30"
             style="fill:#ff8d10;fill-opacity:1" /></g></g><g
         id="g32"
         style="fill:#ff8d10;fill-opacity:1"><g
           id="g34"
           style="fill:#ff8d10;fill-opacity:1"><g
             id="g36"
             style="fill:#ff8d10;fill-opacity:1"><path
               d="M28.57,15.719c-0.011-0.081,0.008-0.154,0.058-0.22c0.049-0.066,0.117-0.105,0.204-0.118       c0.086-0.012,0.162,0.006,0.228,0.056c0.066,0.049,0.104,0.114,0.116,0.195l0.074,0.518c0.379-0.025,0.748,0.005,1.105,0.089       c0.334,0.075,0.52,0.24,0.556,0.493c0.022,0.155-0.011,0.292-0.1,0.411c-0.089,0.118-0.211,0.188-0.367,0.211       c-0.052,0.007-0.104,0.007-0.159,0.001c-0.053-0.007-0.121-0.023-0.201-0.046c-0.079-0.024-0.146-0.041-0.2-0.051       c-0.345-0.068-0.607-0.089-0.786-0.064c-0.558,0.08-0.813,0.287-0.766,0.621c0.029,0.202,0.205,0.347,0.529,0.436       c0.099,0.027,0.389,0.08,0.874,0.157c0.485,0.078,0.841,0.182,1.072,0.313c0.42,0.228,0.666,0.592,0.737,1.094       c0.068,0.472-0.034,0.88-0.309,1.226c-0.273,0.344-0.667,0.589-1.182,0.733l0.072,0.502c0.011,0.08-0.007,0.153-0.057,0.219       c-0.05,0.065-0.117,0.105-0.203,0.117c-0.087,0.013-0.163-0.006-0.229-0.056c-0.066-0.049-0.105-0.114-0.117-0.194       l-0.069-0.484c-0.439,0.045-0.883,0.006-1.33-0.118c-0.348-0.091-0.54-0.263-0.577-0.517c-0.022-0.155,0.013-0.294,0.108-0.417       c0.093-0.122,0.216-0.194,0.366-0.216c0.046-0.006,0.094-0.006,0.14,0.002c0.049,0.008,0.089,0.016,0.124,0.026       c0.033,0.01,0.084,0.029,0.153,0.058l0.169,0.068c0.285,0.1,0.587,0.127,0.91,0.081c0.312-0.044,0.524-0.138,0.639-0.281       c0.114-0.143,0.16-0.301,0.135-0.474c-0.033-0.23-0.215-0.392-0.546-0.485c-0.11-0.032-0.361-0.08-0.752-0.144       c-0.392-0.064-0.69-0.137-0.896-0.22c-0.572-0.218-0.903-0.635-0.991-1.251c-0.059-0.409,0.047-0.771,0.317-1.085       c0.27-0.314,0.677-0.535,1.223-0.66L28.57,15.719z"
               id="path38"
               style="fill:#ff8d10;fill-opacity:1" /></g></g><g
           id="g40"
           style="fill:#ff8d10;fill-opacity:1"><path
             d="M29.321,25.668c-3.291,0-6.125-2.46-6.592-5.722c-0.521-3.639,2.015-7.024,5.654-7.545      c0.315-0.045,0.635-0.068,0.951-0.068c3.292,0,6.125,2.46,6.593,5.723c0.521,3.638-2.015,7.023-5.653,7.544      C29.958,25.645,29.638,25.668,29.321,25.668z M29.334,14.333c-0.22,0-0.443,0.016-0.668,0.048      c-2.547,0.365-4.323,2.734-3.958,5.282c0.358,2.502,2.709,4.324,5.282,3.958c2.546-0.365,4.322-2.734,3.957-5.282      C33.62,16.055,31.637,14.333,29.334,14.333z"
             id="path42"
             style="fill:#ff8d10;fill-opacity:1" /></g></g></g></g></svg>