<?xml version="1.0" encoding="UTF-8" standalone="no"?>
<svg
   xmlns:dc="http://purl.org/dc/elements/1.1/"
   xmlns:cc="http://creativecommons.org/ns#"
   xmlns:rdf="http://www.w3.org/1999/02/22-rdf-syntax-ns#"
   xmlns:svg="http://www.w3.org/2000/svg"
   xmlns="http://www.w3.org/2000/svg"
   xmlns:sodipodi="http://sodipodi.sourceforge.net/DTD/sodipodi-0.dtd"
   xmlns:inkscape="http://www.inkscape.org/namespaces/inkscape"
   version="1.1"
   x="0px"
   y="0px"
   viewBox="0 0 100 84"
   enable-background="new 0 0 100 84"
   xml:space="preserve"
   id="svg8113"
   inkscape:version="0.91 r13725"
   sodipodi:docname="home.svg"><metadata
     id="metadata8121"><rdf:RDF><cc:Work
         rdf:about=""><dc:format>image/svg+xml</dc:format><dc:type
           rdf:resource="http://purl.org/dc/dcmitype/StillImage" /><dc:title></dc:title></cc:Work></rdf:RDF></metadata><defs
     id="defs8119" /><sodipodi:namedview
     pagecolor="#ffffff"
     bordercolor="#666666"
     borderopacity="1"
     objecttolerance="10"
     gridtolerance="10"
     guidetolerance="10"
     inkscape:pageopacity="0"
     inkscape:pageshadow="2"
     inkscape:window-width="1364"
     inkscape:window-height="744"
     id="namedview8117"
     showgrid="false"
     inkscape:zoom="6.7261905"
     inkscape:cx="50"
     inkscape:cy="42"
     inkscape:window-x="1"
     inkscape:window-y="1"
     inkscape:window-maximized="1"
     inkscape:current-layer="svg8113" /><path
     d="m 41,53.047619 0,-14.285714 -7,0 0,5.952381 L 25,34 0,63.761905 l 6.0005,0 0,20.238095 37.999,0 0,-20.238095 6.0005,0 -9,-10.714286 z m -16,-5.960714 0,-2.380953 5,4.7625 -5,4.761905 0,-2.381547 c -5.2545,0 -9.566,4.853571 -9.961,10.991666 L 11.0515,62.533333 C 11.5805,53.914286 17.6255,47.086905 25,47.086905 Z m 0,33.333928 c -5.1805,0 -9.702,-3.375 -12.123,-8.367262 l -1.6775,1.1375 1,-7.529166 5.953,2.815476 -1.8025,1.222024 c 1.7315,3.556547 4.9555,5.959524 8.65,5.959524 1.5745,0 3.06,-0.447024 4.386,-1.223215 L 31.157,78.7 C 29.2955,79.791071 27.211,80.420833 25,80.420833 Z m 13.775,-7.268452 -5.947,2.825 -1.01,-7.529167 1.829,1.236905 C 34.498,67.93631 35,65.917857 35,63.754167 35,59.683929 33.272,56.085714 30.6465,53.938095 l 2.2185,-3.961309 c 3.7,3.002381 6.135,8.055952 6.135,13.777381 0,3.017262 -0.6855,5.844047 -1.87,8.285714 l 1.645,1.1125 z"
     id="path8115"
     style="fill:#ffffff;fill-opacity:0.94117647"
     inkscape:connector-curvature="0"
     inkscape:export-xdpi="90"
     inkscape:export-ydpi="90"
     inkscape:export-filename="/home/adminlinux/apps/Sihic/src/images/home.png" /></svg>