<?xml version="1.0" encoding="UTF-8" standalone="no"?>
<!-- Created with Inkscape (http://www.inkscape.org/) -->

<svg
    xmlns:dc="http://purl.org/dc/elements/1.1/"
    xmlns:cc="http://creativecommons.org/ns#"
    xmlns:rdf="http://www.w3.org/1999/02/22-rdf-syntax-ns#"
    xmlns:svg="http://www.w3.org/2000/svg"
    xmlns="http://www.w3.org/2000/svg"
    xmlns:xlink="http://www.w3.org/1999/xlink"
    xmlns:sodipodi="http://sodipodi.sourceforge.net/DTD/sodipodi-0.dtd"
    xmlns:inkscape="http://www.inkscape.org/namespaces/inkscape"
    width="210mm"
    height="297mm"
    viewBox="0 0 744.09448819 1052.3622047"
    id="svg2"
    version="1.1"
    inkscape:version="0.91 r13725"
    sodipodi:docname="drawing-2.svg">
    <defs
        id="defs4">
        <symbol
            id="Customs_Inv">
            <title
                id="title5239">Customs</title>
            <rect
                x="0.5"
                y="0.5"
                width="71"
                height="71"
                ry="6"
                style="stroke:white"
                id="rect5241" />
            <g
                style="fill:white;stroke:none"
                id="g5243">
                <!-- Bag -->
                <path
                    d="m 11,53 4,0 0,-23 -4,0 a 3,3 0 0 0 -3,3 l 0,17 a 3,3 0 0 0 3,3 m 27,4 0,-4 -23,0 0,4 a 3,3 0 0 0 3,3 l 17,0 a 3,3 0 0 0 3,-3 z"
                    id="path5245" />
                <!-- Official -->
                <path
                    d="m 43,19 -2.5,3 3,0 A 6.25,6.25 0 0 0 56,22 l 0,-3 z m 13,-6 0,4.5 -13,0 L 40,13 z M 55.25,30 41,30 a 5.2,5.3 0 0 0 -4,1.8 L 25,47.5 a 2.93,2.93 0 0 0 4.6,3.6 L 41,36 41,49 z m 7.75,4 0,26 -22,0 0,-7 16,0 0,-3 -13,0 15,-20 a 4,4 0 0 1 4,4 z"
                    id="path5247" />
            </g>
        </symbol>
    </defs>
    <sodipodi:namedview
        id="base"
        pagecolor="#ffffff"
        bordercolor="#666666"
        borderopacity="1.0"
        inkscape:pageopacity="0.0"
        inkscape:pageshadow="2"
        inkscape:zoom="0.35"
        inkscape:cx="-395"
        inkscape:cy="514.28571"
        inkscape:document-units="px"
        inkscape:current-layer="layer1"
        showgrid="false"
        inkscape:window-width="1355"
        inkscape:window-height="666"
        inkscape:window-x="1"
        inkscape:window-y="31"
        inkscape:window-maximized="1" />
    <metadata
        id="metadata7">
        <rdf:RDF>
            <cc:Work
                rdf:about="">
                <dc:format>image/svg+xml</dc:format>
                <dc:type
                    rdf:resource="http://purl.org/dc/dcmitype/StillImage" />
                <dc:title></dc:title>
            </cc:Work>
        </rdf:RDF>
    </metadata>
    <g
        inkscape:label="Capa 1"
        inkscape:groupmode="layer"
        id="layer1">
        <use
            id="use8893"
            style="fill:#d40000;stroke:#000000;fill-opacity:1"
            xlink:href="#Customs_Inv"
            x="0"
            y="0"
            width="100%"
            height="100%"
            transform="translate(0,980.3622)"
            inkscape:export-xdpi="90"
            inkscape:export-ydpi="90" />
    </g>
</svg>
